<svg width="710" height="850" viewBox="0 0 710 850" fill="none" xmlns="http://www.w3.org/2000/svg">
<g opacity="0.15" clip-path="url(#clip0_151_2140)">
<path d="M664.497 327.964C671.141 328.549 677.556 330.675 683.23 334.173C688.903 337.671 693.678 342.444 697.172 348.11C695.856 343.089 695.638 337.844 696.535 332.732C697.432 327.62 699.423 322.76 702.371 318.484C705.911 314.789 708.642 310.4 710.391 305.596C711.015 301.78 710.498 297.864 708.906 294.338C701.48 274.044 682.766 257.898 681.875 236.419C691.038 239.379 698.937 245.326 704.302 253.306C709.527 261.334 713.812 269.932 717.075 278.933C719.936 284.232 721.029 290.303 720.194 296.264C727.344 288.551 732.168 278.984 734.112 268.66C736.056 258.336 735.042 247.675 731.185 237.9C726.545 229.912 720.905 222.545 714.401 215.976C708.549 210.187 703.968 203.246 700.951 195.596C697.934 187.945 696.546 179.752 696.875 171.537C717.272 190.652 733.589 213.678 744.849 239.233C750.841 230.124 754.385 219.63 755.139 208.761C755.893 197.892 753.833 187.012 749.156 177.166C756.736 183.034 762.673 190.751 766.393 199.572C770.113 208.394 771.491 218.023 770.395 227.531C767.679 246.583 758.693 264.195 744.849 277.599C749.731 277.367 754.515 276.144 758.908 274.004C763.3 271.865 767.209 268.854 770.395 265.156C768.637 272.242 765.157 278.787 760.261 284.212C755.365 289.638 749.204 293.777 742.324 296.264C736.909 297.617 731.674 299.606 726.729 302.189C721.512 306.618 717.737 312.498 715.887 319.076C713.372 326.167 711.24 333.386 709.5 340.704C708.182 345.525 707.829 350.559 708.46 355.517C710.688 367.219 723.313 375.663 723.313 387.513C726.133 384.854 728.257 381.547 729.5 377.88C730.743 374.213 731.066 370.299 730.442 366.479C730.442 358.776 727.174 351.665 725.986 343.666C724.277 331.757 726.083 319.609 731.185 308.707C737.006 312.693 742.04 317.715 746.037 323.52C748.764 328.901 750.523 334.717 751.235 340.704C753.893 348.659 754.895 357.071 754.18 365.425C753.465 373.779 751.048 381.901 747.077 389.291C739.947 399.068 727.917 404.104 719.451 412.696C721.382 410.77 709.351 386.921 708.015 383.81C706.165 377.449 702.684 371.68 697.915 367.071C682.616 358.235 670.82 344.43 664.497 327.964Z" fill="#4B5C42" fill-opacity="0.55"/>
<path d="M611.92 454.617L602.117 451.21C593.322 449.006 585.274 444.507 578.799 438.175C574.492 433.434 572.264 427.065 567.66 423.361C571.115 423.739 574.601 423.739 578.056 423.361C582.087 423.829 586.065 424.672 589.938 425.88C597.49 428.115 604.582 431.677 610.88 436.397C615.781 439.952 625.732 446.766 626.921 452.84C629.891 463.209 616.97 456.247 611.92 454.617Z" fill="#4B5C42" fill-opacity="0.55"/>
<path d="M615.335 432.397C611.745 424.962 608.668 417.291 606.127 409.437C604.551 405.42 603.696 401.158 603.602 396.846C603.602 385.44 614.296 376.404 615.335 364.997C615.206 357.036 612.26 349.376 607.018 343.37C602.081 337.316 597.565 330.931 593.502 324.261C589.728 315.698 588.195 306.32 589.047 297.005C590.763 277.819 597.079 259.326 607.464 243.085C617.85 226.92 629.522 211.613 642.367 197.312C639.935 201.176 638.324 205.497 637.634 210.007C636.944 214.517 637.19 219.12 638.357 223.531C640.379 229.301 642.966 234.858 646.08 240.122C655.138 260.726 660.902 282.619 663.16 305.004C664.946 312.103 664.946 319.532 663.16 326.631C659.893 335.667 651.13 341.444 646.08 349.592C644.186 353.472 642.053 357.232 639.693 360.85C635.238 367.071 627.811 370.626 622.91 376.552C617.922 383.287 615.596 391.619 616.375 399.957C617.261 407.949 619.106 415.807 621.871 423.361C624.917 431.216 627.545 439.227 629.742 447.359C630.417 453.553 632.336 459.549 635.386 464.987C627.702 454.768 620.99 443.858 615.335 432.397Z" fill="#4B5C42" fill-opacity="0.55"/>
<path d="M438.147 500.983C434.136 481.133 441.563 459.506 433.691 440.989C424.316 424.773 409.862 412.075 392.55 404.845C383.847 401.34 375.972 396.066 369.425 389.359C362.879 382.651 357.805 374.657 354.527 365.886C352.25 396.653 361.513 427.167 380.519 451.507C386.526 460.355 393.894 468.204 402.352 474.763C412.692 480.337 421.947 487.712 429.681 496.539C434.731 504.242 435.325 514.759 441.563 521.573C445.424 518.462 439.186 505.871 438.147 500.983Z" fill="#4B5C42" fill-opacity="0.55"/>
<path d="M277.889 344.111C276.218 340.505 275.292 336.602 275.164 332.632C275.037 328.662 275.711 324.707 277.146 321.002C279.34 316.978 281.822 313.117 284.573 309.448C288.311 301.846 290.451 293.561 290.859 285.103C291.268 276.645 289.937 268.194 286.949 260.268C282.097 243.747 274.841 228.026 265.413 213.606C259.769 204.867 253.085 194.497 256.799 184.721C249.571 199.095 244.563 214.477 241.946 230.345C241.133 235.548 241.133 240.845 241.946 246.047C243.029 251.811 245.035 257.362 247.887 262.49C257.541 281.599 270.908 300.856 269.275 321.743C268.529 325.758 268.529 329.875 269.275 333.89C270.398 336.58 272.009 339.041 274.027 341.148C277.592 345.444 285.464 351.666 286.058 357.295C282.813 353.244 280.07 348.817 277.889 344.111Z" fill="#4B5C42" fill-opacity="0.55"/>
<path d="M384.232 546.607C397.647 546.727 410.568 551.671 420.62 560.532C423.423 563.109 425.125 566.663 425.373 570.457C425.498 570.842 425.498 571.257 425.373 571.642C425.373 571.642 424.185 571.642 423.442 572.531C419.632 573.451 415.651 573.404 411.863 572.395C408.075 571.386 404.601 569.446 401.758 566.753C398.146 564.192 394.855 561.208 391.955 557.865C390.619 556.532 385.569 546.756 384.232 546.607Z" fill="#6F8C4D" fill-opacity="0.55"/>
<path d="M309.97 543.052C302.262 540.279 295.371 535.629 289.924 529.523C284.476 523.418 280.646 516.051 278.78 508.093C285.534 506.434 292.618 506.692 299.232 508.838C305.846 510.985 311.727 514.934 316.208 520.24C319.208 524.004 321.797 528.076 323.931 532.387L333.437 550.014C333.619 550.33 333.715 550.687 333.715 551.051C333.715 551.415 333.619 551.773 333.437 552.088C330.021 556.236 313.237 544.237 309.97 543.052Z" fill="#6F8C4D" fill-opacity="0.55"/>
<path d="M323.486 403.956C322.126 387.111 317.055 370.774 308.633 356.109C312.346 354.184 315.911 358.628 318.585 361.887C323.634 367.96 331.358 371.811 335.219 378.625C338.587 386.786 340.108 395.586 339.675 404.4C341.219 414.429 344.274 424.168 348.735 433.286C351.585 441.237 356.148 448.467 362.102 454.469C337.001 453.728 327.199 424.25 323.486 403.956Z" fill="#6F8C4D" fill-opacity="0.55"/>
<path d="M1051.25 937.528H1052.29L1049.03 943.898C1021.06 930.18 995.002 912.901 971.497 892.496L966.595 888.792C954.862 894.866 905.7 917.678 866.787 899.754C864.66 901.534 862.18 902.846 859.509 903.606C843.604 906.196 827.312 902.532 814.061 893.385C777.524 873.979 743.661 899.606 730.888 911.457L725.986 906.272C735.174 897.113 746.228 890.031 758.401 885.507C770.573 880.984 783.579 879.123 796.535 880.053C803.854 881.2 810.932 883.552 817.477 887.015C839.162 898.569 850.895 898.717 856.687 896.792C857.872 896.541 858.987 896.035 859.955 895.31L855.945 892.792C813.467 862.277 720.788 809.245 719.897 808.801C700.257 795.581 676.523 789.807 652.986 792.524C629.449 795.241 607.664 806.269 591.572 823.614C574.663 840.597 556.812 856.62 538.103 871.609C537.079 872.529 535.987 873.371 534.836 874.127C513.17 891.668 490.179 907.516 466.069 921.53L462.653 915.16C478.568 906.191 493.942 896.299 508.695 885.534C491.257 888.274 473.406 886.488 456.861 880.349C453.593 879.016 451.662 878.127 451.365 875.905L452.702 872.498L454.93 875.312H458.494C458.451 874.788 458.296 874.279 458.04 873.82C457.784 873.36 457.432 872.96 457.009 872.646C461.019 875.016 502.755 889.385 530.38 869.239C550.027 853.673 568.771 837.006 586.522 819.318C597.673 806.504 611.851 796.664 627.774 790.69C643.696 784.715 660.861 782.794 677.716 785.1C694.096 787.569 709.749 793.531 723.61 802.58C727.769 804.95 818.22 856.796 860.103 886.867C895.007 911.901 946.99 889.533 961.694 882.423C954.713 874.572 946.099 864.499 936.593 852.796C906.889 818.43 867.381 771.324 852.677 763.917C831.796 749.233 812.307 732.672 794.456 714.441C777.309 697.179 758.836 681.281 739.205 666.891C722.699 656.907 708.113 644.065 696.133 628.969V633.561C689.152 633.561 526.221 616.822 489.981 579.196L475.129 564.383C462.207 569.272 400.867 590.454 368.934 568.531C358.593 562.069 346.961 557.939 334.852 556.429C322.743 554.92 310.449 556.067 298.831 559.791C294.523 570.193 287.523 579.267 278.546 586.086C269.569 592.905 258.938 597.224 247.739 598.602L246.402 591.639C255.668 590.63 264.553 587.411 272.309 582.254C280.064 577.098 286.461 570.155 290.959 562.013C284.276 563.346 277.443 564.828 270.314 566.013C230.51 572.827 221.598 552.977 221.153 552.088L227.688 548.089C227.688 548.089 235.263 562.902 268.978 557.717C275.958 556.68 282.642 555.199 289.028 553.866L293.93 552.829C293.851 552.041 293.851 551.247 293.93 550.459H297.494H300.168C312.328 546.968 325.095 546.101 337.618 547.914C350.141 549.728 362.133 554.181 372.796 560.976C400.273 579.344 453.296 562.754 469.634 556.977L465.475 552.384C433.691 517.722 394.183 474.615 361.508 460.839C328.833 447.063 310.119 410.474 297.494 386.773C294.141 379.874 290.268 373.238 285.909 366.923C273.433 350.629 220.559 296.857 220.113 296.264L225.163 291.228C227.391 293.45 278.78 345.888 291.702 362.479C296.564 369.679 300.836 377.258 304.475 385.143C316.654 408.548 335.219 444.396 364.924 456.395C399.085 471.208 439.186 514.611 471.416 549.718C479.733 558.902 487.605 567.494 494.883 575.049C526.964 608.378 673.112 624.673 694.054 626.895C677.7 606.838 668.041 582.185 666.428 556.384C664.646 504.982 580.284 381.736 547.609 365.294L550.876 358.924C576.571 371.96 631.97 446.618 658.408 505.871C671.478 493.872 714.253 451.803 714.995 416.992C714.99 400.783 711.175 384.802 703.856 370.33C697.024 355.517 691.232 342.037 698.806 325.891C703.042 317.566 708.013 309.635 713.659 302.189C728.511 282.932 742.324 262.934 737.126 231.975C738.088 231.806 739.076 231.842 740.024 232.078C740.972 232.315 741.86 232.747 742.63 233.348C743.4 233.948 744.036 234.703 744.494 235.564C744.953 236.425 745.226 237.372 745.294 238.344C745.75 263.477 736.497 287.822 719.451 306.337C713.86 313.455 708.891 321.037 704.599 329.001C698.361 341.741 703.411 352.999 709.649 367.071C715.994 379.643 720.067 393.232 721.679 407.215C725.556 406.204 729.028 404.033 731.63 400.993C739.672 389.198 742.912 374.792 740.69 360.702C741.631 360.621 742.579 360.731 743.475 361.026C744.372 361.321 745.2 361.794 745.908 362.418C746.616 363.041 747.19 363.801 747.595 364.652C748 365.502 748.228 366.426 748.265 367.368C749.805 381.33 745.984 395.357 737.571 406.623C733.709 411.018 728.478 413.991 722.719 415.066C722.793 415.805 722.793 416.549 722.719 417.288C721.976 457.136 673.112 503.057 662.121 512.981C668.37 526.656 672.286 541.275 673.706 556.236C675.34 604.379 717.075 646.3 742.918 661.262C762.979 675.903 781.85 692.1 799.357 709.701C816.742 727.502 835.734 743.667 856.093 757.992C871.985 766.287 910.899 811.912 942.089 848.649C956.941 865.832 969.269 880.497 976.695 888.2C997.358 906.35 1020.27 921.782 1044.87 934.121C1048.88 921.826 1059.72 882.275 1037.74 857.833C1011.32 827.634 993.84 790.709 987.24 751.178L994.369 750.141C997.319 766.641 1002.31 782.712 1009.22 797.987C1018.28 777.841 1041.3 717.552 1009.22 677.408C966.595 626.895 931.692 577.715 931.395 577.715L937.336 573.567C937.336 573.567 972.388 622.155 1013.38 672.816C1054.37 723.477 1018.73 794.136 1012.34 806.135C1020.43 822.957 1030.77 838.604 1043.09 852.648C1068.33 881.386 1055.56 925.529 1051.25 937.528Z" fill="#6D7B66" fill-opacity="0.55"/>
<path d="M681.28 834.872C688.534 837.487 696.343 838.179 703.945 836.881C711.547 835.582 718.681 832.338 724.649 827.466C727.032 825.55 729.752 824.093 732.67 823.17C735.318 822.651 738.042 822.651 740.69 823.17C779.752 832.502 808.268 867.61 847.033 877.683C808.896 865.512 776.422 840.064 755.542 805.987C760.623 813.804 765.14 821.972 769.058 830.428C758.863 825.863 750.68 817.755 746.037 807.616C741.629 797.479 736.671 787.589 731.184 777.99C728.28 773.263 724.311 769.277 719.593 766.346C714.876 763.414 709.538 761.619 704.005 761.103C709.648 761.103 720.788 780.063 723.461 784.359C726.135 788.655 735.937 802.283 729.848 809.245C723.758 816.208 711.431 815.319 704.599 817.985C695.134 820.82 686.913 826.774 681.28 834.872Z" fill="#6F8C4D" fill-opacity="0.55"/>
<path d="M265.413 585.27C262.427 588.504 258.911 591.209 255.016 593.269C251.179 594.831 247.2 596.022 243.134 596.824C227.238 600.219 212.863 608.635 202.142 620.821C196.755 627.008 192.943 634.398 191.03 642.366C189.117 650.335 189.158 658.645 191.151 666.594C196.795 686.444 215.509 699.331 226.797 716.515C225.014 699.48 235.56 684.074 240.609 667.779C243.439 658.174 244.496 648.135 243.728 638.153C242.539 631.606 242.239 624.93 242.837 618.303C244.812 611.937 248.053 606.033 252.365 600.943C256.678 595.853 261.974 591.681 267.938 588.677C276.849 582.603 295.712 570.901 294.524 558.013C290.365 559.198 287.097 564.235 284.275 567.494C278.298 573.738 272.002 579.671 265.413 585.27Z" fill="#4B5C42" fill-opacity="0.55"/>
<path d="M646.674 514.315C638.919 512.958 630.96 513.312 623.356 515.351C607.816 520.739 591.033 521.46 575.086 517.425C568.811 514.553 563.003 510.758 557.857 506.167L538.549 491.354C537.212 490.169 535.43 489.132 533.945 489.873C533.114 490.423 532.528 491.272 532.311 492.243C530.612 497.135 530.063 502.35 530.707 507.488C531.35 512.625 533.17 517.545 536.024 521.869C528.76 517.842 522.385 512.395 517.281 505.854C512.177 499.312 508.449 491.811 506.319 483.799C505.652 481.074 505.652 478.229 506.319 475.504C506.931 472.607 508.258 469.908 510.181 467.653C514.812 461.273 520.997 456.175 528.152 452.84C539.008 449.071 550.624 448.005 561.988 449.735C573.351 451.464 584.119 455.937 593.354 462.765C612.662 475.06 628.406 492.391 647.12 505.427C650.982 508.093 664.349 515.944 660.19 521.721C656.27 518.314 651.66 515.788 646.674 514.315Z" fill="#4B5C42" fill-opacity="0.55"/>
<path d="M418.987 875.016C422.425 872.974 426.504 872.287 430.423 873.09C432.406 873.463 434.449 873.362 436.385 872.796C438.322 872.23 440.096 871.214 441.562 869.832C442.736 867.851 443.399 865.612 443.493 863.314L445.127 850.13C446.018 843.908 446.761 837.539 447.058 831.317C447.227 824.036 447.773 816.768 448.692 809.542C450.404 801.406 452.942 793.464 456.266 785.841C458.448 781.613 461.423 777.841 465.029 774.731C465.408 773.591 466.048 772.556 466.899 771.707C467.75 770.859 468.788 770.22 469.931 769.842C489.734 759.967 509.537 750.091 529.34 740.216C538.358 736.377 546.844 731.398 554.589 725.403C562.47 719.559 567.789 710.912 569.442 701.257C569.776 696.295 569.426 691.311 568.402 686.444C568.304 681.909 567.279 677.441 565.389 673.315C563.499 669.188 560.784 665.49 557.411 662.447C554 660.514 550.357 659.02 546.569 658.003C538.252 655.188 529.192 650.448 521.023 654.003C516.289 657.008 512.075 660.761 508.547 665.113C504.427 668.573 499.824 671.418 494.883 673.557L465.178 688.37C459.422 691.025 453.949 694.251 448.84 697.998C446.018 700.368 443.493 702.887 440.82 705.257C435.064 711.184 428.747 716.541 421.957 721.255C423.035 719.61 423.774 717.767 424.131 715.834C424.488 713.902 424.456 711.917 424.037 709.997C422.978 706.185 421.377 702.543 419.284 699.183C416.69 692.941 413.455 686.984 409.63 681.408C406.352 677.769 402.882 674.307 399.233 671.038L385.717 658.891C381.134 654.281 376.166 650.069 370.865 646.3C365.518 642.893 359.577 640.375 354.082 637.412C348.586 634.45 343.982 631.635 339.229 629.117C326.753 623.192 311.752 620.377 303.286 609.563C302.832 617.539 301.487 625.439 299.276 633.116C298.996 638.101 299.497 643.099 300.762 647.93C301.092 650.105 301.904 652.18 303.138 654.003C304.326 655.781 307.742 659.484 309.822 659.04C289.2 659.259 268.632 661.191 248.333 664.817C235.56 666.391 223.37 671.071 212.835 678.445C210.33 680.201 208.291 682.54 206.894 685.259C204.98 690.624 204.98 696.484 206.894 701.85C214.595 733.248 229.549 762.416 250.56 787.026C244.329 783.704 237.115 782.706 230.213 784.211C222.489 784.952 215.36 785.989 207.191 787.47C192.334 789.186 178.246 794.98 166.496 804.209C164.268 806.283 162.04 809.246 163.08 812.06C164.119 814.875 167.09 815.615 169.763 816.356C178.342 819.031 186.107 823.82 192.339 830.28C199.492 840.045 207.602 849.077 216.548 857.24C222.855 860.968 229.808 863.48 237.045 864.647C243.809 866.199 250.759 866.797 257.69 866.425C266.054 865.26 274.338 863.578 282.493 861.388C291.232 859.689 300.289 860.994 308.188 865.091C299.091 867.467 290.981 872.652 285.018 879.905C282.253 883.843 279.065 887.469 275.513 890.718C267.938 896.495 256.798 896.051 249.224 901.828C245.718 905.413 242.955 909.653 241.095 914.305C239.234 918.956 238.312 923.929 238.382 928.936C251.897 919.9 271.205 922.863 284.721 914.123C290.631 908.917 296.188 903.325 301.356 897.384C309.108 890.875 318.423 886.485 328.387 884.645C338.338 882.423 348.438 881.534 358.092 879.608C364.253 877.986 370.584 877.091 376.954 876.942C381.41 876.942 385.866 878.127 390.322 878.719C395.108 880.02 400.106 880.362 405.025 879.727C409.945 879.091 414.69 877.49 418.987 875.016Z" fill="#FF7A03"/>
<path d="M335.367 641.856C338.92 645.992 343.017 649.629 347.546 652.67C356.857 659.339 365.466 666.933 373.241 675.334C380.988 683.694 386.459 693.894 389.133 704.961C378.68 690.059 365.714 677.078 350.814 666.594C345.17 662.743 339.378 659.188 334.179 654.892C323.26 645.373 313.758 634.35 305.96 622.155C307.368 626.789 309.471 631.184 312.198 635.19C315.465 640.968 318.881 646.597 322.297 652.374C325.334 657.783 329.08 662.765 333.437 667.187C328.38 664.326 322.993 662.088 317.396 660.521C311.725 658.803 305.63 659.118 300.167 661.41C300.167 663.187 304.474 664.817 306.405 665.261C319.122 664.18 331.81 667.645 342.199 675.038C352.25 682.415 361.375 690.969 369.379 700.517C372.858 704.026 375.945 707.9 378.588 712.071C384.264 723.007 386.491 735.401 384.974 747.623C383.495 760.061 383.246 772.614 384.232 785.1C385.845 795.912 390.246 806.121 397.005 814.726C405.471 825.392 417.798 833.984 421.214 847.316C423.739 856.796 424.63 867.017 432.948 872.498C434.141 873.342 435.513 873.899 436.958 874.127C440.671 874.127 443.344 870.424 443.344 866.721C443.002 863.098 441.834 859.602 439.928 856.5C432.894 841.806 430.461 825.339 432.948 809.246C429.436 813.595 426.904 818.647 425.521 824.059C424.959 828.208 423.651 832.223 421.66 835.909C419.432 834.872 418.986 831.91 418.986 829.54C418.808 816.605 420.053 803.689 422.7 791.025C424.335 781.647 427.71 772.655 432.651 764.51C428.119 771.964 425.162 780.264 423.962 788.899C422.761 797.535 423.343 806.323 425.67 814.726C440.522 807.172 444.087 787.618 458.048 779.619C463.842 776.961 469.921 774.973 476.168 773.694C482.279 771.582 488.277 769.159 494.14 766.435C505.188 761.535 516.611 757.523 528.3 754.437C531.971 753.606 535.59 752.567 539.142 751.326C550.485 747.281 560.326 739.894 567.362 730.143C572.762 720.778 574.558 709.772 572.412 699.183C570.797 688.865 567.431 678.897 562.461 669.705C563.798 675.249 563.276 681.076 560.975 686.296C559.427 691.463 557.283 696.434 554.589 701.109C552.045 706.229 549.167 711.177 545.975 715.922C531.901 732.279 512.688 743.401 491.466 747.475C484.141 748.902 477.143 751.664 470.821 755.622C466.96 758.436 463.989 762.288 460.128 765.25C460.633 761.899 461.53 758.617 462.801 755.474C465.326 751.474 467.999 747.475 470.821 743.771C486.124 727.263 504.957 714.403 525.924 706.146C500.588 713.73 476.837 725.825 455.82 741.846C458.96 735.126 463.52 729.163 469.188 724.366C474.237 720.366 479.881 717.256 485.08 713.256C490.278 709.256 495.625 704.072 501.566 700.368C506.927 697.301 512.604 694.818 518.498 692.962C529.327 688.683 540.578 685.555 552.064 683.63C542.645 682.165 533.005 683.239 524.141 686.74C515.824 688.666 507.21 689.11 499.041 690.888C479.55 695.265 462.332 706.591 450.622 722.736C449.582 722.736 449.731 720.366 450.622 719.478L458.494 707.775C461.317 703.749 464.607 700.069 468.296 696.813C472.308 693.74 476.765 691.292 481.515 689.555C490.427 685.852 499.486 682.445 508.546 679.482C481.419 684.148 455.891 695.504 434.284 712.515C430.224 715.039 426.775 718.428 424.185 722.44C422.498 726.228 421.54 730.298 421.363 734.439C421.363 737.994 414.828 740.216 411.263 740.364C411.885 730.062 410.678 719.732 407.699 709.849C406.269 706.059 404.531 702.393 402.5 698.887C399.755 693.484 396.255 688.496 392.104 684.074C388.539 680.519 384.083 677.852 380.073 674.594C371.204 665.486 361.225 657.523 350.368 650.892C345.762 649.507 341.542 647.073 338.041 643.782" fill="#F9DAB5"/>
<path d="M399.085 870.276C401.518 871.349 404.26 871.505 406.8 870.715C409.34 869.925 411.506 868.242 412.897 865.98C414.155 863.743 414.913 861.26 415.118 858.703C415.323 856.146 414.971 853.575 414.086 851.167C412.086 846.262 409.385 841.671 406.065 837.539C394.74 824.617 386.241 809.482 381.113 793.099C378.44 780.36 380.074 767.176 378.44 754.437C376.979 743.213 373.12 732.433 367.125 722.825C361.129 713.216 353.136 705.003 343.685 698.739C321.11 683.926 292.89 682 267.047 674.297C281.629 677.102 295.701 682.097 308.782 689.11C319.087 696.4 328.333 705.073 336.259 714.885C342.497 722.144 348.735 729.699 354.824 736.957C357.048 739.328 358.811 742.091 360.023 745.104C360.55 746.62 360.648 748.251 360.308 749.818C359.967 751.386 359.201 752.83 358.092 753.992C352.774 748.958 347.812 743.563 343.24 737.846C316.148 707.873 280.299 687.147 240.758 678.593C277.555 694.924 310.46 718.856 337.299 748.808C340.534 751.528 343.032 755.015 344.563 758.949C346.094 762.884 346.61 767.139 346.062 771.324C345.762 772.698 345.034 773.942 343.982 774.879C340.269 777.99 334.922 774.879 331.506 771.324C300.316 741.697 270.314 709.256 232.292 688.962C271.662 721.085 306.619 758.24 336.259 799.469C338.784 802.876 341.16 808.06 337.893 810.875C334.625 813.689 331.655 811.912 328.833 810.875C321.548 806.41 314.945 800.922 309.228 794.58C292.622 777.328 277.097 759.074 262.74 739.92C273.136 755.473 284.276 772.953 295.118 789.84C268.355 761.211 243.545 730.825 220.856 698.887C242.672 736.612 267.141 772.748 294.078 807.023C280.514 796.803 268.068 785.185 256.947 772.361C263.736 789.205 275.04 803.861 289.622 814.726C311.485 828.519 335.95 837.695 361.508 841.686C374.162 843.455 386.111 848.57 396.114 856.5C399.085 859.314 401.61 863.906 399.382 867.461C366.304 857.693 333.822 846.021 302.098 832.502C294.969 829.824 288.266 826.132 282.196 821.54C277.382 817.428 273.137 812.695 269.572 807.468C260.048 793.254 251.513 778.406 244.026 763.028L221.301 718.589C214.399 706.798 209.387 694.002 206.449 680.667C206.356 699.658 211.493 718.309 221.301 734.587C231.165 750.425 239.093 767.383 244.917 785.1C244.917 781.545 239.57 780.804 236.005 781.1C212.387 782.971 189.662 790.934 170.061 804.209C169.169 804.656 168.38 805.282 167.741 806.046C167.102 806.811 166.628 807.698 166.347 808.653C166.382 809.756 166.778 810.817 167.476 811.673C168.173 812.53 169.134 813.134 170.209 813.393C172.356 813.914 174.597 813.914 176.744 813.393C194.746 810.894 213.05 811.596 230.807 815.467C235.778 816.945 240.348 819.528 244.174 823.022C242.815 822.113 241.275 821.51 239.659 821.255C238.043 820.999 236.391 821.096 234.817 821.54L221.895 823.17C213.742 823.411 205.839 826.038 199.171 830.725L259.472 845.538C242.858 844.348 226.368 841.822 210.162 837.983C224.741 847.262 241.588 852.385 258.878 852.796C276.04 853.21 293.157 854.744 310.119 857.388C312.606 857.7 314.912 858.849 316.654 860.647C318.52 859.814 320.55 859.409 322.595 859.462C323.469 859.505 324.306 859.833 324.976 860.394C325.647 860.956 326.114 861.721 326.308 862.573C326.308 864.943 323.783 866.276 321.555 866.869C311.174 868.767 301.805 874.279 295.118 882.423C293.282 885.79 291.742 889.308 290.514 892.94C288.006 897.94 284.968 902.657 281.454 907.013C280.504 908.497 279.297 909.802 277.889 910.864C276.498 911.805 274.933 912.46 273.285 912.79C266.601 914.864 259.621 916.197 253.085 918.715C246.429 920.905 240.686 925.227 236.748 931.01C242.41 926.987 249.112 924.673 256.056 924.344C261.135 923.133 266.104 921.498 270.908 919.456L287.246 913.086C289.035 912.622 290.672 911.703 291.999 910.42C292.905 908.889 293.604 907.245 294.078 905.531C298.429 895.399 305.527 886.678 314.574 880.349C317.13 877.991 320.036 876.042 323.189 874.572C327.539 873.13 332.135 872.575 336.705 872.942C357.536 873.87 378.409 872.978 399.085 870.276Z" fill="#F9DAB5"/>
<path d="M446.167 799.913C446.805 795.164 448.589 790.64 451.365 786.729C455.717 782.302 461.22 779.172 467.257 777.693L479.288 773.546C473.754 773.066 468.197 774.144 463.247 776.656C450.983 781.251 440.344 789.338 432.651 799.913C428.842 805.229 426.255 811.316 425.074 817.743C423.893 824.17 424.147 830.777 425.819 837.094C427.528 842.249 429.768 847.213 432.502 851.907L447.355 877.386C443.417 866.787 442.391 855.332 444.384 844.205C443.39 829.42 443.988 814.571 446.167 799.913Z" fill="#F9DAB5"/>
<path d="M413.937 869.683L399.827 858.722C395.477 855.164 390.859 851.945 386.015 849.093C382.302 847.167 378.44 845.686 374.727 843.908C355.864 834.724 341.606 817.837 322.743 808.801C353.739 822.841 383.371 839.701 411.264 859.166C390.163 844.841 371.887 826.764 357.349 805.839C368.137 814.723 378.449 824.168 388.243 834.132C380.022 824.918 372.986 814.717 367.301 803.765C366.296 800.16 365.503 796.5 364.924 792.803C359.527 764.047 343.657 738.299 320.367 720.514C335.431 730.475 348.109 743.625 357.498 759.029C364.33 769.102 370.865 779.323 377.103 789.84C383.341 800.358 387.797 808.357 393.738 817.097C399.68 825.909 406.443 834.142 413.937 841.686C415.274 836.057 410.67 830.873 406.808 826.873C399.544 818.725 393.628 809.474 389.282 799.469C387.589 796.062 386.437 792.414 385.866 788.655C385.272 782.965 385.573 777.218 386.757 771.62C388.066 764.04 388.416 756.326 387.797 748.66C386.061 738.283 382.597 728.27 377.549 719.033C373.469 709.54 368.231 700.584 361.954 692.369C347.457 676.82 328.265 666.417 307.297 662.743C318.451 666.248 329.204 670.915 339.378 676.667C345.596 680.596 351.46 685.057 356.904 689.999C361.801 693.975 366.325 698.388 370.42 703.183C374.207 707.855 377.633 712.807 380.668 717.996C392.754 733.995 399.225 753.515 399.085 773.546C402.261 760.59 401.538 746.987 397.005 734.439C392.541 721.954 386.555 710.064 379.183 699.035C372.945 689.259 366.261 679.63 359.577 670.15C380.359 691.235 395.656 717.069 404.135 745.401C406.247 732.399 405.435 719.092 401.758 706.442C398.578 697.586 393.852 689.361 387.797 682.148C380.359 672.658 371.947 663.97 362.696 656.225C386.674 669.508 404.913 691.126 413.937 716.959C416.444 723.442 416.444 730.623 413.937 737.105C420.472 731.476 427.75 724.514 427.156 715.922C428.284 722.847 427.827 729.937 425.819 736.661C424.631 739.327 423.146 741.697 421.957 744.364C419.091 753.047 418.277 762.275 419.581 771.324C430.104 751.032 444.598 733.05 462.208 718.441C455.219 725.144 448.993 732.596 443.642 740.66C437.595 748.039 432.598 756.214 428.79 764.954C427.26 769.11 426.019 773.367 425.076 777.693C422.255 788.951 419.878 800.21 417.799 811.616C415.871 821.814 416.901 832.349 420.769 841.983C422.619 845.946 424.858 849.717 427.453 853.241C433.237 860.112 438.219 867.616 442.305 875.609L420.918 873.239C416.759 872.35 417.205 871.757 413.937 869.683Z" fill="#D6D0C9" fill-opacity="0.55"/>
<path d="M293.187 904.791L297.049 900.347C302.058 893.541 308.561 887.968 316.06 884.052C323.407 881.722 330.97 880.134 338.635 879.312C343.685 878.127 348.438 876.201 353.488 875.164C371.756 871.165 390.916 878.127 409.036 874.275C406.362 870.128 401.015 868.943 396.411 867.165C386.757 863.462 378.588 856.5 368.934 852.352C364.776 850.722 360.468 849.685 356.31 848.5C340.269 844.205 324.674 838.872 309.079 833.687C301.652 831.366 294.486 828.289 287.691 824.503C282.442 820.212 276.222 817.263 269.572 815.911C277.241 823.566 286.187 829.831 296.009 834.428C296.009 836.354 292.89 835.169 290.959 835.169C270.314 835.169 249.521 834.428 228.876 833.391C243.201 838.311 258.286 840.668 273.433 840.353C287.516 841.583 301.506 843.711 315.317 846.723C282.493 850.722 248.036 854.129 217.143 842.279C238.14 852.004 261.426 855.746 284.424 853.093C291.368 851.537 298.571 851.537 305.514 853.093C310.063 855.016 314.236 857.723 317.842 861.092L302.989 865.98C310.825 863.014 319.012 861.072 327.347 860.203C342.175 858.455 357.175 858.804 371.905 861.24C360.91 864.144 349.561 865.491 338.19 865.239C326.765 865.035 315.523 868.121 305.811 874.127C300.547 877.867 296.432 882.997 293.929 888.94C292.407 893.649 290.571 898.252 288.434 902.717C284.057 908.932 278.251 914.012 271.502 917.53C268.711 919.698 265.234 920.802 261.7 920.641C263.353 920.927 265.046 920.877 266.679 920.496C268.313 920.114 269.852 919.407 271.205 918.419L291.85 907.161C292.89 907.457 292.296 905.976 293.187 904.791Z" fill="#F9DAB5"/>
<path d="M516.122 879.164C517.013 881.238 514.339 883.015 512.26 883.756C498.606 888.298 483.885 888.556 470.079 884.497C465.029 883.354 460.492 880.597 457.157 876.646C455.667 874.513 454.515 872.165 453.741 869.683L447.503 852.796C446.461 848.228 444.486 843.924 441.7 840.152C438.915 836.379 435.379 833.221 431.314 830.873C431.758 837.136 431.758 843.422 431.314 849.686C431.287 852.849 431.967 855.979 433.302 858.849C434.638 861.718 436.597 864.255 439.037 866.276C417.92 860.945 395.718 861.716 375.024 868.498L407.699 883.312C411.841 885.463 416.23 887.105 420.769 888.2C429.356 889.161 438.025 889.161 446.612 888.2C456.149 888.407 465.646 889.498 474.98 891.459C484.33 893.461 493.999 893.461 503.348 891.459C508.075 890.558 512.498 888.484 516.21 885.429C519.922 882.374 522.803 878.437 524.587 873.979C522.879 874.163 521.233 874.724 519.769 875.621C518.305 876.517 517.059 877.728 516.122 879.164Z" fill="#6F8C4D" fill-opacity="0.55"/>
<path d="M924.266 258.342C918.241 262.241 913.061 267.303 909.03 273.231C905 279.159 902.201 285.833 900.799 292.857C893.503 310.267 891.539 329.441 895.155 347.962C893.473 343.898 891.277 340.065 888.62 336.556C883.393 330.081 876.367 325.288 868.42 322.78C862.168 319.757 855.431 317.852 848.518 317.151C840.136 317.44 831.814 318.682 823.715 320.854C810.169 322.892 796.323 320.719 784.059 314.633C784.059 314.633 784.059 312.559 783.316 312.855C782.574 313.151 782.574 313.892 782.425 314.484C777.808 329.838 776.492 345.991 778.563 361.887C771.286 357.591 761.483 368.108 754.205 363.812C753.359 363.101 752.33 362.639 751.235 362.479C749.304 362.479 748.71 364.997 747.67 366.627C746.631 368.256 743.066 369.738 740.838 371.367C738.95 372.946 737.526 375.005 736.715 377.326C735.904 379.647 735.738 382.143 736.234 384.551C737.299 389.389 739.21 394.002 741.878 398.179C734.446 399.095 726.913 398.744 719.599 397.142C719.301 403.103 720.055 409.069 721.827 414.77L709.648 406.326C701.628 400.845 692.716 393.587 692.865 383.958C690.043 384.847 688.558 387.958 687.518 390.772C681.447 405.519 678.465 421.348 678.755 437.286C678.831 453.469 685.039 469.026 696.133 480.837C694.08 479.722 691.727 479.279 689.408 479.572C687.089 479.864 684.921 480.877 683.211 482.466C680.243 485.565 678.055 489.322 676.824 493.428C673.203 500.726 671.613 508.86 672.22 516.981C674.157 522.935 677.27 528.441 681.378 533.173C685.485 537.906 690.502 541.769 696.133 544.533C701.72 548.65 707.872 551.943 714.401 554.31C734.155 560.532 754.651 549.718 774.999 546.311C784.827 544.613 794.875 544.613 804.704 546.311C797.099 551.928 788.401 555.898 779.167 557.964C769.933 560.03 760.368 560.148 751.086 558.31C757.07 563.007 763.943 566.452 771.293 568.437C778.643 570.422 786.319 570.908 793.861 569.864C797.814 568.903 801.94 568.903 805.892 569.864C807.817 570.481 809.438 571.8 810.43 573.558C811.421 575.316 811.71 577.383 811.239 579.345C809.902 582.603 805.892 583.788 802.624 584.825C794.605 587.879 787.273 592.489 781.053 598.388C774.832 604.287 769.846 611.358 766.384 619.192C759.572 634.905 756.765 652.055 758.216 669.113C758.203 670.815 758.611 672.493 759.404 674.001C760.624 675.363 762.208 676.351 763.97 676.849C765.732 677.348 767.599 677.336 769.355 676.815C777.637 674.586 785.325 670.563 791.872 665.032C798.418 659.502 803.661 652.6 807.229 644.819C814.249 629.229 822.235 614.091 831.141 599.491L824.309 612.378C828.178 608.31 832.695 604.906 837.676 602.305C842.459 600.614 847.461 599.616 852.528 599.342L891.442 595.343C898.867 595.164 906.145 593.235 912.681 589.714C917.373 586.01 921.209 581.34 923.926 576.023C926.643 570.705 928.177 564.865 928.424 558.902C929.005 546.996 931.774 535.296 936.593 524.388C940.752 517.425 943.574 511.204 947.584 504.242C946.545 511.066 946.545 518.008 947.584 524.832C948.326 528.091 950.406 532.387 953.673 531.646C958.872 513.129 956.495 491.354 969.417 476.985C975.73 471.207 982.429 465.862 989.468 460.987C1002.93 446.646 1011.05 428.139 1012.49 408.548C1013.03 402.936 1014.43 397.44 1016.65 392.254C1017.76 389.649 1019.46 387.34 1021.63 385.513C1023.8 383.687 1026.36 382.393 1029.12 381.736L994.517 387.365C990.391 387.556 986.435 389.062 983.23 391.661C983.77 385.698 982.94 379.691 980.804 374.095C978.668 368.5 975.282 363.463 970.902 359.368C966.595 355.221 961.545 352.258 957.089 348.407C949.941 342.351 944.77 334.304 942.237 325.298C941.371 321.347 940.025 317.517 938.227 313.892C936.593 311.374 934.365 309.448 932.731 306.93C929.114 300.595 928.102 293.107 929.909 286.043C931.575 279.305 932.864 272.481 933.771 265.601C934.006 264.279 933.927 262.92 933.54 261.633C933.153 260.347 932.469 259.169 931.543 258.194C929.612 256.565 923.523 255.676 924.266 258.342Z" fill="white" fill-opacity="0.55"/>
<path d="M893.224 583.048C898.441 579.301 904.774 577.421 911.196 577.715C919.584 576.838 927.851 575.05 935.851 572.382C941.571 570.693 946.915 567.927 951.594 564.235C956.71 559.208 960.206 552.774 961.634 545.754C963.063 538.735 962.36 531.45 959.614 524.832C956.185 517.429 954.8 509.246 955.604 501.131C958.622 490.061 965.527 480.44 975.061 474.023C978.464 471.468 981.468 468.423 983.972 464.987C985.704 462.124 987.147 459.097 988.28 455.951L1000.9 423.954C994.654 431.62 987.526 438.531 979.665 444.544C975.429 449.268 970.23 453.034 964.415 455.589C958.6 458.144 952.304 459.429 945.95 459.358C959.922 439.474 979.008 423.713 1001.2 413.733C992.709 411.715 983.889 411.477 975.299 413.032C966.709 414.587 958.537 417.903 951.297 422.769C952.03 418.711 953.774 414.902 956.37 411.692C958.965 408.482 962.328 405.975 966.149 404.401C971.199 402.179 977.586 401.438 981.002 396.846C981.977 394.442 982.351 391.837 982.092 389.256C981.833 386.676 980.95 384.197 979.517 382.033C973.645 369.44 965.487 358.039 955.456 348.407C943.722 337.149 928.87 327.224 925.751 311.374C924.855 305.482 924.855 299.489 925.751 293.598L928.424 257.305C922.331 265.938 918.158 275.77 916.185 286.143C914.213 296.515 914.486 307.189 916.988 317.447C919.81 338.334 926.642 361.887 919.661 381.292L894.858 355.517C890.545 350.285 885.55 345.652 880.006 341.741C887.757 351.981 892.211 364.326 892.779 377.144C892.779 381.884 889.957 387.365 885.352 387.217C883.248 387.007 881.268 386.124 879.708 384.699L800.1 325.891C814.952 356.554 844.657 378.033 864.559 406.03C866.61 408.344 868.179 411.042 869.173 413.966C870.168 416.891 870.568 419.984 870.351 423.065C838.907 396.317 810.874 365.821 786.881 332.26C795.198 351.814 803.367 371.367 813.467 390.032C822.081 405.734 831.884 420.695 841.686 435.656C848.518 446.322 855.499 456.839 862.331 467.357C844.657 443.507 814.952 426.176 805.892 397.142C802.921 387.513 802.327 377.441 798.614 367.516C796.407 361.957 793.097 356.899 788.883 352.646C784.669 348.393 779.638 345.032 774.091 342.763C768.544 340.495 762.596 339.367 756.601 339.445C750.607 339.524 744.69 340.809 739.205 343.222C738.258 343.485 737.381 343.954 736.636 344.594C735.892 345.234 735.298 346.03 734.897 346.925C734.674 348.11 734.732 349.33 735.068 350.487C735.403 351.645 736.006 352.708 736.828 353.591L753.463 378.033C756.73 382.773 759.701 389.884 755.394 393.735C751.087 397.586 743.512 393.735 739.65 398.327C735.789 402.919 738.611 408.104 742.027 411.955C755.803 424.071 771.323 434.057 788.069 441.582C799.544 448.615 809.615 457.705 817.774 468.394C819.259 470.467 820.596 473.874 817.774 475.06C817.257 475.28 816.702 475.393 816.14 475.393C815.579 475.393 815.023 475.28 814.506 475.06C794.604 468.838 781.088 451.21 764.602 438.619C748.666 427.598 731.336 418.732 713.064 412.252C723.033 423.061 731.706 434.992 738.908 447.803C728.114 441.399 718.776 432.823 711.488 422.621C704.201 412.42 699.123 400.817 696.578 388.55C691.095 390.401 686.527 394.268 683.805 399.364C683.213 402.048 683.213 404.828 683.805 407.511C686.182 432.99 695.836 468.986 720.491 475.652C745.146 482.318 774.553 476.541 800.397 483.947C812.537 489.923 826.192 492.142 839.607 490.317C831.966 477.962 822.56 466.784 811.684 457.136C814.47 457.877 817.421 457.701 820.097 456.633C822.774 455.565 825.033 453.663 826.537 451.21C827.106 450.06 827.858 449.009 828.765 448.1C831.884 445.878 835.597 449.729 837.528 453.136L845.548 467.949C849.993 475.435 853.344 483.516 855.499 491.947C857.296 498.62 858.293 505.482 858.47 512.389C846.367 500.739 830.657 493.531 813.912 491.947C797.183 490.465 780.338 490.912 763.711 493.28C748.859 494.761 734.006 496.242 720.194 499.057C710.281 500.153 701.025 504.535 693.905 511.5C709.26 515.818 723.565 523.229 735.937 533.275C737.826 534.824 739.135 536.965 739.65 539.349C731.277 533.202 721.349 529.508 710.985 528.683C707.747 528.565 704.52 528.219 701.331 527.646C691.974 525.128 686.479 515.796 677.122 512.833C682.252 525.306 690.359 536.34 700.737 544.978C710.62 550.871 721.666 554.56 733.115 555.792C756.361 559.517 779.831 561.695 803.367 562.309C819.733 560.812 836.135 564.771 850.004 573.567C843.617 570.901 836.934 576.086 830.844 579.345C818.962 585.714 804.407 585.714 792.673 592.38C783.705 598.136 776.427 606.161 771.583 615.637C765.728 625.077 761.698 635.528 759.701 646.448C757.652 657.488 759.489 668.895 764.899 678.741C782.446 674.32 798.082 664.34 809.457 650.3C816.146 644.532 821.602 637.479 825.497 629.561C829.656 619.933 828.913 608.378 834.854 599.935C838.036 596.1 841.969 592.952 846.413 590.685C850.856 588.418 855.717 587.08 860.697 586.751C870.648 585.418 880.748 586.01 890.402 583.937L893.224 583.048Z" fill="#FF7A03"/>
<path d="M748.71 346.185C754.492 342.519 761.256 340.698 768.102 340.962C774.947 341.227 781.55 343.565 787.029 347.666C790.681 351.562 793.689 356.012 795.941 360.85C803.016 373.972 809.363 387.472 814.952 401.29C817.21 408.012 820.094 414.509 823.566 420.695C830.845 430.455 838.837 439.664 847.479 448.248C854.995 457.687 860.458 468.584 863.519 480.244C864.953 489.035 867.918 497.508 872.282 505.278C875.217 508.894 878.393 512.309 881.788 515.5C891.585 526.764 899.146 539.784 904.066 553.866C890.612 536.636 873.649 522.446 854.294 512.232C834.939 502.019 813.634 496.014 791.782 494.613C778.712 493.724 765.493 494.613 752.423 492.984C739.241 491.999 726.854 486.321 717.52 476.985C715.292 474.615 713.51 471.949 711.282 469.727C708.679 467.348 705.898 465.169 702.965 463.209C693.639 455.343 687.267 444.553 684.893 432.604C682.518 420.656 684.282 408.257 689.895 397.438C687.65 408.65 687.099 420.134 688.261 431.509C688.986 437.067 690.883 442.409 693.827 447.183C696.771 451.958 700.695 456.056 705.341 459.209C716.306 464.154 728.211 466.681 740.244 466.616C752.994 468.034 765.036 473.189 774.85 481.429C765.681 466.932 752.393 455.485 736.68 448.544C767.87 452.247 794.307 471.801 821.487 487.355C826.938 491.052 833.317 493.156 839.904 493.428C823.566 473.134 797.278 462.913 780.494 443.211C777.316 439.203 773.893 435.394 770.246 431.805C765.133 427.591 759.429 424.148 753.314 421.584C743.51 416.38 733.212 412.162 722.57 408.993C758.825 414.587 792.311 431.675 818.071 457.728C811.09 443.804 797.872 436.397 788.366 423.954C782.809 416.086 777.844 407.817 773.514 399.216C763.743 381.264 752.253 364.298 739.205 348.555C765.844 368.581 789.454 392.328 809.308 419.066C811.665 423.026 815.267 426.099 819.556 427.805C813.021 415.066 802.921 404.401 795.941 391.957C791.063 380.471 785.303 369.378 778.712 358.776C775.896 353.584 771.387 349.506 765.932 347.216C760.477 344.927 754.401 344.563 748.71 346.185Z" fill="#F9DAB5"/>
<path d="M900.502 586.307L936.593 563.791C938.109 562.719 939.827 561.963 941.643 561.569C947.881 560.384 953.673 567.346 959.763 565.716C965.852 564.087 966.892 557.569 966.744 552.088C965.041 538.403 961.854 524.943 957.238 511.944C954.958 505.418 954.123 498.477 954.789 491.599C955.456 484.72 957.609 478.067 961.1 472.097C967.338 463.505 978.328 459.209 983.675 449.729C979.038 456.459 972.46 461.625 964.813 464.542C954.565 468.245 942.98 467.505 932.88 471.653C929.87 472.703 927.202 474.545 925.157 476.985C923.393 479.199 922.035 481.707 921.147 484.392C917.879 492.687 914.463 500.983 911.196 509.13C910.402 500.244 911.778 491.299 915.206 483.059C919.958 473.578 931.543 469.579 938.227 461.283C940.432 458.269 942.417 455.101 944.168 451.803C947.232 447.177 950.554 442.726 954.119 438.471L968.971 419.658C962.953 421.375 957.342 424.278 952.469 428.196C947.596 432.115 943.561 436.969 940.603 442.471C940.53 432.332 943.309 422.376 948.624 413.733C951.357 409.676 954.934 406.254 959.112 403.698C963.289 401.142 967.969 399.512 972.833 398.92C971.591 385.323 966.775 372.293 958.872 361.146C951.432 351.795 943.5 342.845 935.108 334.334C926.569 325.563 920.92 314.399 918.919 302.338C917.136 287.524 924.86 272.711 926.791 256.713C915.948 262.342 914.166 276.563 909.71 287.969C907.928 292.709 905.552 297.153 904.215 302.041C902.98 307.38 902.48 312.862 902.73 318.336C902.318 330.789 903.214 343.25 905.403 355.517C908.084 369.176 914.57 381.806 924.117 391.957C919.861 378.839 913.435 366.522 905.106 355.517C901.26 350.019 896.717 345.04 891.59 340.704C881.947 333.762 871.056 328.733 859.509 325.891C850.941 322.655 841.923 320.756 832.775 320.262C817.922 320.262 803.07 326.779 789.257 320.262C802.388 324.06 816.24 324.669 829.656 322.039C842.177 321.846 854.543 324.814 865.606 330.668C876.668 336.521 886.066 345.069 892.927 355.517C903.241 374.261 909.514 394.948 911.344 416.251C912.536 420.364 912.536 424.73 911.344 428.842C903.51 414.302 893.093 401.302 880.6 390.476C852.378 364.117 821.118 341.193 787.475 322.187C793.676 325.109 799.039 329.541 803.07 335.075L864.113 404.845C872.131 412.462 878.062 421.998 881.342 432.546C882.363 439.903 883.901 447.179 885.946 454.321C870.014 431.994 849.826 413.017 826.537 398.475C836.136 414.229 847.121 429.101 859.361 442.915C882.827 475.8 886.838 519.499 910.007 552.829C912.764 555.964 914.568 559.818 915.206 563.939C896.195 553.421 879.411 539.201 860.846 527.795C836.815 511.743 807.94 504.517 779.158 507.352C769.924 509.853 760.302 510.606 750.79 509.574C743.111 506.208 735.223 503.338 727.174 500.983C746.732 509.268 767.232 515.138 788.218 518.462C800.057 518.843 811.439 523.113 820.596 530.609C809.262 526.251 796.755 525.988 785.247 529.868C773.936 533.774 762.143 536.116 750.195 536.831C729.907 534.318 710.96 525.389 696.133 511.352C713.007 524.825 731.645 535.938 751.532 544.385C756.031 546.66 760.761 548.448 765.642 549.718C771.434 550.755 777.969 552.681 783.613 554.31C751.829 555.495 719.302 554.31 691.974 538.756C704.277 550.397 719.359 558.708 735.789 562.902C743.958 564.461 752.283 565.058 760.592 564.679C770.222 564.608 779.841 564.015 789.406 562.902C804.541 559.981 819.89 558.297 835.3 557.865C843.033 557.703 850.717 559.132 857.872 562.062C865.027 564.993 871.5 569.364 876.886 574.901C875.442 576.003 873.792 576.806 872.032 577.264C870.272 577.722 868.438 577.825 866.638 577.567C855.22 577.734 843.954 580.203 833.517 584.825C823.278 589.803 813.574 595.809 804.555 602.749C800.493 605.481 796.712 608.607 793.267 612.082C787.869 618.676 783.74 626.209 781.088 634.302C776.407 644.564 773.207 655.436 771.583 666.594C783.847 648.885 797.989 632.545 813.764 617.859C812.129 627.713 808.476 637.126 803.033 645.511C797.59 653.896 790.474 661.073 782.128 666.594C775.742 670.89 768.909 673.112 762.671 677.852C777.777 676.756 792.019 670.414 802.921 659.928C813.767 649.564 822.847 637.506 829.804 624.229C838.27 609.415 847.182 592.38 863.519 587.64C867.561 586.627 871.688 585.982 875.847 585.714C882.976 585.27 894.264 590.158 900.502 586.307Z" fill="#F9DAB5"/>
<path d="M696.133 397.735C698.623 402.072 702.49 405.459 707.123 407.363C726.431 417.584 746.482 426.176 765.493 436.99C795.006 453.839 821.425 475.58 843.617 501.279C814.803 492.539 791.039 471.652 762.671 462.32C771.685 472.056 781.635 480.888 792.376 488.688C787.67 489.528 782.829 489.223 778.266 487.799C757.886 482.785 738.002 475.943 718.857 467.357C725.296 477.549 735.129 485.154 746.631 488.836C756.299 491.505 766.306 492.753 776.336 492.539L804.407 493.28C809.827 493.35 815.237 493.795 820.596 494.613C828.15 496.078 835.454 498.623 842.28 502.168C872.443 516.762 897.532 540.03 914.314 568.975C898.347 557.134 880.319 548.345 861.143 543.052C851.497 540.246 841.484 538.898 831.438 539.052C810.645 539.052 790.445 549.57 769.652 547.792C784.504 550.162 799.357 551.792 814.952 552.681C830.445 552.895 845.894 554.381 861.143 557.125C876.524 559.804 890.548 567.58 900.947 579.196C871.94 563.275 839.296 555.11 806.189 555.495C830.32 557.725 853.885 564.089 875.847 574.308C877.183 574.308 878.669 576.678 877.629 577.715C877.629 581.715 871.985 584.381 867.975 584.233C858.469 584.233 848.964 581.863 839.458 581.863C822.008 582.279 805.23 588.659 791.931 599.935C778.72 611.168 768.169 625.181 761.038 640.967C768.954 623.71 781.175 608.766 796.535 597.565C798.652 595.897 801.004 594.549 803.515 593.565C806.846 592.58 810.291 592.032 813.764 591.936C823.887 590.531 833.84 588.099 843.468 584.677L802.773 620.969C792.412 629.188 784.164 639.75 778.712 651.781C795.982 631.025 815.508 612.245 836.933 595.787C833.051 602.342 828.523 608.495 823.418 614.155C820.382 619.542 817.846 625.195 815.843 631.042C808.473 648.328 795.362 662.556 778.712 671.334C795.827 660.755 810.342 646.48 821.19 629.561C826.526 618.414 834.229 608.557 843.765 600.675C852.916 595.817 863.104 593.226 873.47 593.121C882.838 592.043 892.285 591.845 901.69 592.528C909.86 593.781 918.175 593.781 926.345 592.528C930.479 591.986 934.271 589.954 937.007 586.817C939.742 583.679 941.233 579.651 941.197 575.493C942.429 570.657 942.88 565.657 942.534 560.68C947.138 562.754 946.544 569.864 950.554 572.975C952.341 573.978 954.444 574.26 956.433 573.764C958.422 573.268 960.145 572.032 961.248 570.308C963.398 566.749 964.336 562.592 963.921 558.458C963.883 547.707 962.025 537.04 958.426 526.906C955.34 520.19 952.904 513.196 951.148 506.019C949.955 494.908 951.484 483.674 955.604 473.282C952.537 474.507 949.776 476.39 947.518 478.796C945.259 481.202 943.558 484.073 942.534 487.206C937.313 498.934 934.1 511.452 933.028 524.239C931.469 508.972 931.469 493.586 933.028 478.318C929.018 492.095 923.226 505.427 919.364 519.351C914.467 533.345 913.542 548.416 916.691 562.902C915.503 548.089 909.413 533.275 906.74 518.462C904.797 511.127 904.688 503.429 906.423 496.043C908.158 488.656 911.684 481.807 916.691 476.096C909.155 482.858 903.479 491.431 900.204 500.998C896.928 510.566 896.161 520.811 897.977 530.757C887.007 524.381 878.132 514.963 872.431 503.649C866.044 492.983 861.44 481.429 855.499 470.615C841.686 445.137 821.041 423.658 808.417 397.438C799.654 379.366 794.307 358.48 778.712 345.592C785.247 359.368 791.931 373.293 798.614 387.069C802.386 395.827 807.066 404.167 812.575 411.955C816.734 417.436 821.635 422.176 825.943 427.657C831.091 434.603 835.614 441.989 839.458 449.729C846.711 461.08 851.75 473.695 854.311 486.91L810.793 429.583C801.882 417.88 792.97 406.178 783.168 395.216C770.222 382.605 758.851 368.48 749.304 353.147C769.999 382.773 790.94 411.758 812.13 440.1C822.608 452.716 830.71 467.119 836.042 482.614C796.582 443.952 748.701 414.904 696.133 397.735Z" fill="#D6D0C9" fill-opacity="0.55"/>
<path d="M261.254 1.48133C254.944 5.11578 249.43 9.97857 245.042 15.7806C240.653 21.5826 237.479 28.2055 235.708 35.2554C227.828 52.3824 225.143 71.4344 227.985 90.0643C226.463 85.9671 224.416 82.0834 221.895 78.51C217.038 71.6213 210.126 66.4373 202.142 63.6968C196.054 60.3637 189.412 58.1556 182.536 57.179C174.187 57.1629 165.865 58.1073 157.733 59.9935C144.085 61.4883 130.304 58.8014 118.225 52.2906C118.225 52.2906 118.225 50.2168 118.225 50.513C117.933 50.6801 117.685 50.9158 117.504 51.1997C117.323 51.4836 117.213 51.8071 117.186 52.1425C111.989 67.2705 110.065 83.3251 111.542 99.2485C104.413 94.8045 94.1645 104.878 87.0354 100.285C86.2437 99.5782 85.2636 99.1151 84.2135 98.9522C82.2827 98.9522 81.54 101.322 80.5004 102.804C79.4607 104.285 75.8961 105.766 73.5197 107.248C71.5643 108.787 70.0625 110.825 69.1735 113.146C68.2845 115.466 68.0414 117.984 68.4698 120.431C69.2805 125.296 70.9931 129.968 73.5197 134.208C66.1452 135.149 58.6643 134.849 51.3896 133.319C50.8129 139.49 51.3665 145.714 53.0233 151.687L41.1415 142.799C33.2697 136.874 24.6553 129.467 25.2494 119.691C22.2789 120.431 20.6451 123.542 19.6054 126.357C12.9622 140.882 9.37338 156.611 9.06024 172.574C8.83478 188.648 14.7258 204.21 25.5464 216.125C23.5241 214.94 21.1855 214.404 18.8476 214.59C16.5096 214.775 14.2854 215.673 12.4763 217.162C9.37402 220.235 7.03452 223.989 5.64423 228.123C1.71802 235.23 -0.182526 243.273 0.148804 251.38C1.86014 257.366 4.75131 262.952 8.6532 267.81C12.5551 272.668 17.3893 276.701 22.873 279.673C28.2409 284.066 34.2516 287.613 40.6959 290.191C60.1526 297.153 81.0945 287.08 101.739 284.562C111.652 283.337 121.703 283.838 131.444 286.043C123.625 291.366 114.776 294.999 105.465 296.708C96.1546 298.418 86.5883 298.165 77.3813 295.968C83.1879 300.887 89.9286 304.59 97.201 306.855C104.474 309.12 112.129 309.901 119.711 309.152C123.74 308.624 127.834 308.927 131.741 310.04C133.638 310.715 135.203 312.09 136.115 313.881C137.027 315.672 137.216 317.743 136.642 319.669C135.157 322.928 131.296 323.965 127.879 325.002C119.752 327.706 112.251 332.01 105.822 337.659C99.3927 343.308 94.166 350.186 90.4515 357.887C82.9589 373.32 79.4854 390.386 80.3518 407.511C80.1242 408.884 80.2809 410.292 80.8047 411.581C81.3285 412.871 82.1991 413.99 83.3203 414.818C84.4416 415.645 85.7701 416.147 87.1595 416.27C88.5488 416.392 89.9449 416.129 91.194 415.51C99.5528 413.598 107.386 409.873 114.138 404.599C120.889 399.324 126.392 392.631 130.256 384.995C137.925 369.714 146.454 354.877 155.802 340.556L148.524 353.295C152.533 349.348 157.209 346.139 162.337 343.815C166.802 342.065 171.512 341.016 176.298 340.704L215.36 338.186C222.406 337.953 229.329 336.29 235.708 333.297C240.543 329.737 244.556 325.184 247.477 319.946C250.398 314.707 252.158 308.905 252.64 302.93C253.64 291.032 256.864 279.426 262.145 268.712C266.452 261.897 269.571 255.824 273.879 249.01C272.764 255.828 272.764 262.782 273.879 269.6C273.879 273.007 276.255 277.303 279.671 276.711C285.612 258.342 283.978 236.419 297.345 222.642C303.975 217.296 310.918 212.35 318.139 207.829C332.13 194.003 340.938 175.806 343.091 156.279C343.853 150.69 345.455 145.246 347.844 140.133C349.074 137.617 350.864 135.415 353.078 133.695C355.292 131.975 357.87 130.783 360.617 130.208L326.011 134.504C321.88 134.515 317.866 135.867 314.574 138.355C315.259 132.417 314.615 126.4 312.689 120.74C310.763 115.079 307.602 109.915 303.435 105.618C299.276 101.322 294.226 98.2116 289.919 94.212C283.068 87.822 278.219 79.5901 275.958 70.5109C275.362 66.633 274.264 62.8487 272.69 59.2528C271.205 56.7346 269.126 54.6607 267.492 52.1425C265.69 48.8408 264.576 45.2093 264.219 41.4669C263.862 37.7245 264.268 33.9487 265.413 30.3671C266.898 23.2567 269.72 16.2945 270.463 9.18419C270.704 7.88393 270.656 6.54673 270.322 5.26696C269.989 3.98719 269.377 2.79605 268.532 1.77759C266.601 6.04242e-06 260.66 -1.03692 261.254 1.48133Z" fill="white" fill-opacity="0.55"/>
<path d="M217.885 324.854C223.154 321.375 229.397 319.663 235.708 319.965C244.112 319.375 252.427 317.885 260.512 315.521C266.293 314.046 271.737 311.482 276.552 307.967C281.828 303.11 285.545 296.806 287.237 289.847C288.928 282.889 288.518 275.586 286.058 268.86C282.867 261.392 281.788 253.195 282.939 245.159C286.491 234.535 293.699 225.509 303.287 219.68C306.771 217.235 309.874 214.29 312.495 210.94C314.454 208.192 316.051 205.205 317.248 202.052L331.061 170.648C324.765 177.956 317.693 184.562 309.97 190.35C305.525 194.809 300.182 198.277 294.293 200.525C288.404 202.772 282.104 203.747 275.81 203.385C290.488 184.019 310.143 168.972 332.694 159.834C324.28 157.498 315.47 156.936 306.827 158.186C298.183 159.436 289.895 162.469 282.493 167.093C283.319 163.125 285.103 159.418 287.691 156.294C290.28 153.171 293.594 150.725 297.346 149.169C302.395 147.243 308.782 146.799 312.198 142.207C313.273 139.853 313.753 137.272 313.598 134.69C313.443 132.108 312.656 129.603 311.307 127.394C305.898 114.572 298.142 102.867 288.434 92.8788C277.295 81.1764 262.74 70.659 259.918 54.8089C259.021 48.9173 259.021 42.9246 259.918 37.033C261.403 25.0343 262.739 12.8875 264.076 0.888794C249.224 15.702 248.333 39.5513 250.263 60.1416C252.194 80.732 258.432 104.581 250.263 123.838L227.985 96.434C223.742 90.8373 218.744 85.8524 213.132 81.6208C220.96 92.3521 225.266 105.236 225.46 118.506C225.46 123.098 222.192 128.43 217.588 128.134C215.545 127.766 213.644 126.844 212.093 125.468L134.712 64.7337C149.118 96.2858 177.338 118.506 196.052 148.132C198.01 150.514 199.476 153.258 200.368 156.207C201.261 159.156 201.56 162.251 201.251 165.315C170.732 137.293 143.884 105.539 121.345 70.8071C128.771 90.6568 136.197 110.507 145.703 130.06C153.574 146.058 162.931 161.464 172.14 176.722L191.151 208.718C173.922 183.536 145.257 165.167 137.237 135.837C134.712 126.209 134.415 115.987 131.147 106.211C129.178 100.442 126.041 95.1386 121.93 90.6303C117.819 86.1221 112.823 82.5052 107.251 80.0045C101.679 77.5039 95.6514 76.1728 89.5419 76.0941C83.4325 76.0153 77.3721 77.1906 71.7375 79.5469C69.9552 79.5469 67.8759 81.3245 67.2818 83.1021C67.0392 84.288 67.0598 85.5125 67.342 86.6896C67.6242 87.8667 68.1612 88.968 68.9155 89.9162C74.1138 98.2116 79.4608 106.507 84.6591 114.95C87.7781 119.839 90.4515 126.949 85.9958 130.652C81.54 134.356 74.1138 130.652 70.1037 134.652C66.0935 138.652 68.767 144.429 71.886 148.428C85.084 161.095 100.101 171.73 116.443 179.98C128.157 187.537 138.377 197.178 146.594 208.422C148.079 210.496 149.267 214.051 146.594 215.088C146.077 215.308 145.521 215.421 144.96 215.421C144.398 215.421 143.843 215.308 143.326 215.088C123.721 208.126 110.799 189.905 94.7587 176.722C79.357 165.033 62.4779 155.421 44.5575 148.132C54.0716 159.292 62.2463 171.521 68.9155 184.573C58.3322 177.699 49.3096 168.691 42.4284 158.128C35.5473 147.566 30.9602 135.683 28.9626 123.246C26.1813 124.017 23.5809 125.33 21.312 127.11C19.043 128.89 17.1505 131.101 15.7439 133.615C15.2234 136.256 15.2234 138.973 15.7439 141.614C17.0806 167.241 25.3979 203.533 49.9044 211.088C74.4109 218.643 103.819 214.051 129.365 222.346C142.138 226.494 155.208 234.049 168.278 230.345C161.22 217.608 152.255 206.019 141.692 195.979C144.4 196.792 147.296 196.729 149.965 195.797C152.633 194.865 154.937 193.114 156.545 190.794C157.087 189.589 157.9 188.524 158.921 187.683C162.189 185.609 165.753 189.609 167.387 193.016C169.021 196.423 172.437 203.089 174.813 207.829C179.03 215.499 182.131 223.729 184.022 232.271C185.455 238.99 186.153 245.844 186.101 252.713C174.257 240.411 158.518 232.562 141.544 230.493C124.916 228.568 108.12 228.568 91.4912 230.493C76.8252 231.134 62.2014 232.518 47.6765 234.641C37.7369 235.355 28.3241 239.371 20.9422 246.047C36.1487 250.845 50.2031 258.711 62.2319 269.156C63.995 270.785 65.2352 272.898 65.7965 275.229C57.7011 268.845 47.9789 264.844 37.7254 263.675C34.4763 263.41 31.2501 262.915 28.0713 262.194C18.8628 259.379 13.219 249.751 4.45605 245.899C9.40787 258.686 17.4119 270.076 27.7743 279.081C37.3775 285.32 48.2202 289.413 59.5585 291.079C82.645 295.695 106.016 298.764 129.513 300.264C145.966 299.312 162.268 303.846 175.853 313.151C169.466 310.337 162.486 315.225 156.248 318.336C144.217 324.261 129.662 323.669 117.78 329.89C108.574 335.245 100.981 342.971 95.7984 352.258C89.6603 361.252 85.23 371.294 82.7282 381.884C80.0178 392.939 81.3338 404.594 86.4413 414.77C103.811 410.875 119.445 401.467 130.999 387.958C137.955 382.517 143.718 375.711 147.93 367.96C150.473 357.767 154.004 347.844 158.476 338.334C161.767 334.593 165.805 331.581 170.333 329.489C174.86 327.397 179.776 326.272 184.764 326.187C194.715 325.298 204.667 326.187 214.469 324.557L217.885 324.854Z" fill="#FF7A03"/>
<path d="M82.5799 82.8058C88.4802 79.3396 95.3056 77.7649 102.133 78.2948C108.96 78.8247 115.459 81.4336 120.751 85.7684C124.27 89.7032 127.083 94.213 129.068 99.1003C135.635 112.56 141.485 126.355 146.594 140.429C148.622 147.218 151.257 153.811 154.466 160.131C161.359 170.133 168.953 179.637 177.19 188.572C184.4 198.208 189.464 209.268 192.042 221.013C193.051 229.855 195.668 238.439 199.765 246.344C202.547 250.136 205.627 253.702 208.974 257.009C218.403 268.688 225.602 281.993 230.213 296.264C217.502 278.364 201.111 263.372 182.134 252.286C163.156 241.2 142.028 234.276 120.156 231.975C107.086 230.642 93.8677 231.086 80.9461 228.864C67.7939 227.384 55.6151 221.232 46.637 211.533C44.5576 209.162 42.924 206.496 40.6961 204.126C38.1597 201.699 35.4816 199.423 32.6758 197.312C23.6355 189.113 17.6651 178.087 15.7482 166.051C13.8314 154.015 16.0825 141.686 22.1306 131.097C19.3971 142.236 18.3459 153.719 19.0116 165.167C19.3491 170.943 20.93 176.579 23.6466 181.691C26.3633 186.804 30.152 191.272 34.7551 194.794C45.5783 200.177 57.4245 203.207 69.5097 203.682C82.0271 205.137 93.821 210.296 103.373 218.495C94.904 203.555 82.0494 191.561 66.5393 184.128C97.5808 189.016 123.276 209.607 149.861 226.049C155.127 230.019 161.406 232.431 167.981 233.012C153.129 211.977 126.543 200.719 110.057 180.573C106.789 176.573 103.819 172.278 100.254 168.722C95.2095 164.364 89.6177 160.679 83.6196 157.761C74.1603 152.314 64.2163 147.752 53.9147 144.132C89.6951 151.209 122.212 169.659 146.594 196.719C140.207 181.906 127.286 174.648 118.374 161.76C113.307 153.704 108.839 145.287 105.007 136.578C95.8097 118.243 84.8677 100.831 72.3317 84.5834C98.2616 105.616 121.021 130.261 139.91 157.761C141.997 161.839 145.472 165.043 149.713 166.797C143.772 153.909 133.969 142.947 127.583 130.208C123.021 118.595 117.662 107.311 111.542 96.4339C104.858 86.2128 94.1648 78.2137 82.5799 82.8058Z" fill="white" fill-opacity="0.55"/>
<path d="M225.014 328.409L261.996 307.374C263.553 306.276 265.324 305.519 267.195 305.152C273.433 304.263 278.928 311.374 285.166 310.04C291.404 308.707 292.444 302.189 292.444 296.709C291.359 282.975 288.718 269.409 284.572 256.268C282.514 249.662 281.926 242.687 282.85 235.83C283.773 228.973 286.186 222.4 289.919 216.569C296.603 208.274 307.445 203.978 313.237 195.09C308.361 201.507 301.618 206.266 293.929 208.718C283.532 211.977 272.096 210.94 261.848 214.643C258.791 215.62 256.032 217.353 253.828 219.68C252.027 221.865 250.574 224.313 249.52 226.938C245.956 235.086 242.391 243.233 238.678 251.38C238.257 242.428 239.935 233.501 243.579 225.309C248.778 215.977 260.511 212.421 267.492 204.422C269.838 201.517 271.972 198.448 273.878 195.238C277.087 190.695 280.558 186.342 284.275 182.202L300.167 163.982C294.008 165.448 288.206 168.13 283.104 171.87C278.002 175.61 273.704 180.332 270.462 185.758C271.085 175.749 274.478 166.109 280.265 157.909C283.008 153.73 286.664 150.226 290.961 147.661C295.257 145.095 300.08 143.534 305.068 143.096C304.264 129.454 299.969 116.245 292.592 104.729C286.057 94.8045 277.74 86.361 269.72 77.0287C261.683 68.0776 256.511 56.9355 254.867 45.0321C253.679 30.2189 261.996 15.4057 264.373 -0.296265C253.382 4.88836 251.006 19.2572 246.253 30.5152C243.922 34.9689 241.888 39.571 240.163 44.2915C238.748 49.5598 237.999 54.9841 237.936 60.4379C236.893 73.0745 237.191 85.7857 238.827 98.3597C240.884 112.127 246.923 124.997 256.204 135.393C252.427 122.059 246.454 109.444 238.53 98.0634C234.888 92.2736 230.548 86.9506 225.608 82.2133C216.281 75.0555 205.706 69.6816 194.418 66.3632C185.939 62.8307 176.978 60.5838 167.832 59.6972C152.98 59.6972 137.236 65.1781 124.315 58.2159C137.35 62.3972 151.189 63.4628 164.713 61.3267C177.191 61.8273 189.347 65.4211 200.083 71.7835C210.819 78.1458 219.796 87.0761 226.202 97.7672C235.815 116.856 241.281 137.754 242.243 159.094C243.072 163.246 242.765 167.545 241.352 171.537C233.937 156.709 223.87 143.356 211.647 132.134C184.469 104.725 154.103 80.656 121.196 60.4379C127.156 63.6827 132.249 68.3052 136.048 73.9179L195.012 145.762C202.67 153.748 208.186 163.529 211.053 174.203C211.879 181.584 213.169 188.907 214.914 196.127C199.94 173.192 180.494 153.495 157.733 138.207C166.887 153.85 177.319 168.714 188.923 182.647C211.201 216.421 213.578 260.268 235.411 294.338C238.023 297.628 239.669 301.577 240.163 305.745C220.855 295.079 206.003 280.266 187.14 268.119C163.805 251.199 135.286 242.922 106.492 244.714C97.1338 246.827 87.4625 247.179 77.9751 245.751C70.3592 242.437 62.576 239.52 54.6568 237.011C73.9595 246.321 94.3726 253.141 115.403 257.305C127.261 258.102 138.507 262.85 147.336 270.785C136.292 265.899 123.86 265.11 112.284 268.563C100.731 271.9 88.8076 273.791 76.787 274.192C56.6974 270.777 38.197 261.136 23.9123 246.64C40.2839 260.685 58.5278 272.4 78.1236 281.451C82.5108 284 87.2012 285.991 92.0849 287.376C97.7288 288.709 104.115 290.931 109.759 292.709C78.2184 295.184 46.6261 288.605 18.714 273.748C30.475 285.872 45.1484 294.795 61.3404 299.671C69.4191 301.574 77.6946 302.519 85.9954 302.486C95.9086 302.688 105.825 302.342 115.7 301.449C130.933 299.117 146.332 298.027 161.743 298.19C169.461 298.31 177.072 300.016 184.1 303.202C191.128 306.388 197.421 310.985 202.587 316.706C201.124 317.765 199.464 318.52 197.703 318.927C195.943 319.334 194.119 319.385 192.339 319.076C180.908 318.727 169.53 320.744 158.921 325.002C148.466 329.603 138.513 335.262 129.216 341.889C117.403 348.629 108.592 359.587 104.561 372.552C99.4086 382.584 95.7559 393.314 93.7187 404.401C106.792 387.07 121.734 371.224 138.276 357.146C136.291 366.98 132.3 376.302 126.552 384.533C120.803 392.764 113.419 399.728 104.858 404.993C98.1744 408.993 91.3423 410.918 84.9557 415.51C100.063 414.884 114.49 409.076 125.8 399.068C137.053 389.121 146.544 377.352 153.871 364.257C162.782 349.444 172.436 333.149 189.071 329.001C193.114 328.063 197.248 327.566 201.399 327.52C207.637 326.779 218.776 332.112 225.014 328.409Z" fill="#F9DAB5"/>
<path d="M27.774 132.282C30.1203 136.729 33.8821 140.273 38.4678 142.355C57.3304 153.317 77.084 162.649 95.6496 174.203C124.542 192.053 150.119 214.756 171.248 241.307C142.88 231.53 119.859 209.903 91.7879 199.386C100.791 209.489 110.737 218.715 121.493 226.938C116.483 227.628 111.38 227.068 106.64 225.309C86.1685 219.692 66.2764 212.153 47.2307 202.793C53.2305 213.16 62.6148 221.16 73.8165 225.457C83.4294 228.49 93.4395 230.087 103.521 230.197L131.741 232.123C137.171 232.349 142.58 232.943 147.93 233.901C155.381 235.677 162.535 238.521 169.169 242.344C198.865 257.8 223.27 281.729 239.272 311.077C223.745 298.733 206.074 289.343 187.14 283.377C177.808 280.185 168.041 278.436 158.178 278.192C137.385 278.192 116.888 287.08 96.0951 284.71C110.948 287.524 125.8 289.746 140.652 291.079C156.139 291.957 171.533 294.037 186.695 297.301C201.94 300.595 215.64 308.887 225.608 320.854C197.125 304.095 164.803 294.914 131.741 294.19C155.755 297.459 179.049 304.719 200.656 315.669C201.844 316.41 203.33 318.188 202.29 319.225C202.29 323.224 196.349 325.594 192.339 325.298C182.833 324.557 173.476 322.187 163.971 321.891C146.893 321.928 130.319 327.664 116.888 338.185C103.25 348.892 92.1863 362.507 84.5102 378.033C93.0955 361.087 105.876 346.606 121.641 335.964C123.816 334.339 126.218 333.041 128.77 332.112C132.169 331.262 135.664 330.864 139.167 330.927C149.545 329.934 159.795 327.899 169.763 324.854L127.582 359.517C116.594 367.138 107.624 377.304 101.442 389.143C119.338 369.099 139.47 351.157 161.446 335.667C157.144 342.103 152.165 348.062 146.593 353.443C143.514 358.828 140.929 364.48 138.87 370.33C130.747 387.286 117.075 400.975 100.105 409.141C117.867 399.372 133.119 385.631 144.663 368.997C150.255 358.013 158.158 348.363 167.832 340.704C177.089 336.252 187.262 334.02 197.537 334.186C206.972 333.297 216.47 333.297 225.905 334.186C234.003 335.906 242.306 336.455 250.56 335.815C258.58 334.334 266.601 327.52 265.413 319.373C266.768 314.553 267.418 309.564 267.343 304.559C271.799 306.781 270.908 313.892 274.77 317.151C276.527 318.205 278.617 318.562 280.626 318.15C282.634 317.739 284.414 316.589 285.612 314.929C287.898 311.414 288.991 307.26 288.731 303.078C289.17 292.39 287.712 281.708 284.424 271.526C281.597 264.63 279.41 257.489 277.889 250.195C277.147 239.073 279.136 227.938 283.681 217.754C280.544 218.851 277.691 220.629 275.328 222.96C272.965 225.292 271.151 228.118 270.017 231.234C264.336 242.724 260.669 255.099 259.175 267.823C258.262 252.584 258.959 237.292 261.254 222.198C256.65 235.974 250.412 249.01 246.402 262.786C241.334 276.362 240.051 291.055 242.688 305.3C242.688 290.487 236.45 275.674 234.371 260.861C232.693 253.438 232.872 245.719 234.892 238.382C236.913 231.045 240.712 224.317 245.956 218.791C238.085 225.197 232.027 233.54 228.38 242.997C224.733 252.454 223.624 262.696 225.163 272.711C214.409 265.922 205.889 256.137 200.656 244.566C194.715 233.752 190.408 222.05 184.913 210.94C171.991 185.017 152.386 162.649 140.355 136.133C132.335 117.765 127.731 96.7302 112.73 83.1021L130.85 125.32C134.369 134.12 138.747 142.555 143.92 150.502C147.93 156.131 152.683 161.168 156.693 166.797C161.553 173.946 165.825 181.476 169.466 189.313C176.116 200.995 180.547 213.8 182.536 227.086L141.246 167.834C132.781 155.835 124.315 143.836 114.958 132.43C102.573 119.52 91.7555 105.201 82.7279 89.768C102.531 119.394 122.334 149.021 142.138 178.647C152.245 191.659 159.849 206.425 164.565 222.198C126.516 182.123 79.703 151.352 27.774 132.282Z" fill="#F9DAB5"/>
<path d="M235.708 340.704C242.801 340.621 249.879 341.367 256.798 342.926C263.997 345.854 270.444 350.36 275.661 356.109C283.4 362.984 290.417 370.628 296.603 378.922C306.851 393.735 312.495 413.14 327.793 423.361C328.277 421.513 328.299 419.575 327.859 417.716C327.419 415.857 326.529 414.133 325.268 412.696L290.068 356.998C284.927 349.652 280.736 341.689 277.592 333.297C276.203 328.439 275.161 323.489 274.473 318.484C274.122 304.738 269.732 291.398 261.848 280.118C256.564 287.545 252.457 295.739 249.669 304.411C246.9 313.172 247.374 322.633 251.006 331.075C240.078 329.811 229.025 330.111 218.182 331.964C218.627 337.889 229.915 340.704 235.708 340.704Z" fill="#64735C" fill-opacity="0.55"/>
<path d="M267.641 176.87C270.092 172.115 272.13 167.159 273.73 162.057C277.294 153.873 279.164 145.055 279.226 136.133C278.334 120.431 266.601 107.544 260.809 92.8789C258.368 85.7363 256.53 78.403 255.313 70.9553C251.655 86.7892 252.845 103.354 258.729 118.506C262.612 126.92 263.247 136.466 260.511 145.318C257.69 150.947 252.046 154.798 248.778 160.131C246.885 163.618 245.737 167.458 245.404 171.41C245.072 175.361 245.563 179.338 246.847 183.091C247.887 186.498 251.452 199.386 257.095 197.164C258.729 197.164 259.769 190.202 260.511 188.72C262.442 184.128 265.413 180.721 267.641 176.87Z" fill="white" fill-opacity="0.55"/>
</g>
<defs>
<clipPath id="clip0_151_2140">
<rect width="1112" height="1023" fill="white" transform="matrix(-1 0 0 1 1112 0)"/>
</clipPath>
</defs>
</svg>
