<svg width="1220" height="521" viewBox="0 0 1220 521" fill="none" xmlns="http://www.w3.org/2000/svg">
<g opacity="0.1" clip-path="url(#clip0_151_2403)">
<path d="M729.035 360.985C736.324 361.629 743.362 363.969 749.587 367.819C755.811 371.669 761.049 376.923 764.883 383.16C763.438 377.633 763.2 371.86 764.184 366.233C765.168 360.606 767.352 355.257 770.587 350.55C774.47 346.483 777.467 341.653 779.386 336.365C780.07 332.164 779.503 327.855 777.756 323.974C769.609 301.636 749.077 283.864 748.1 260.223C758.153 263.48 766.82 270.027 772.705 278.81C778.437 287.646 783.139 297.11 786.719 307.017C789.858 312.85 791.057 319.532 790.14 326.093C797.985 317.604 803.278 307.073 805.411 295.71C807.543 284.347 806.43 272.612 802.199 261.853C797.108 253.061 790.921 244.952 783.785 237.722C777.364 231.35 772.339 223.71 769.029 215.289C765.718 206.868 764.196 197.85 764.557 188.808C786.935 209.848 804.836 235.192 817.19 263.32C823.764 253.294 827.652 241.744 828.48 229.78C829.307 217.817 827.047 205.841 821.916 195.004C830.232 201.463 836.745 209.956 840.827 219.666C844.908 229.376 846.42 239.975 845.217 250.44C842.238 271.41 832.379 290.796 817.19 305.549C822.547 305.294 827.795 303.947 832.614 301.592C837.434 299.237 841.722 295.923 845.217 291.854C843.289 299.653 839.47 306.856 834.099 312.828C828.728 318.8 821.969 323.356 814.42 326.093C808.479 327.582 802.735 329.772 797.31 332.615C791.587 337.49 787.445 343.961 785.415 351.203C782.657 359.007 780.318 366.953 778.408 375.007C776.962 380.315 776.574 385.855 777.267 391.312C779.712 404.193 793.562 413.486 793.562 426.53C796.656 423.603 798.987 419.963 800.35 415.927C801.714 411.891 802.069 407.582 801.384 403.377C801.384 394.899 797.799 387.073 796.495 378.268C794.62 365.16 796.602 351.789 802.199 339.789C808.585 344.177 814.109 349.704 818.494 356.094C821.485 362.016 823.416 368.418 824.197 375.007C827.113 383.763 828.212 393.022 827.427 402.218C826.643 411.413 823.991 420.352 819.634 428.487C811.813 439.248 798.614 444.791 789.326 454.248C791.444 452.128 778.245 425.878 776.779 422.454C774.75 415.453 770.93 409.102 765.698 404.03C748.913 394.303 735.972 379.109 729.035 360.985Z" fill="#4B5C42" fill-opacity="0.55"/>
<path d="M671.35 500.39L660.596 496.64C650.947 494.214 642.117 489.262 635.013 482.292C630.287 477.074 627.843 470.063 622.792 465.987C626.582 466.403 630.407 466.403 634.198 465.987C638.62 466.502 642.985 467.43 647.234 468.759C655.52 471.22 663.3 475.14 670.21 480.335C675.587 484.248 686.505 491.749 687.808 498.434C691.067 509.847 676.891 502.184 671.35 500.39Z" fill="#4B5C42" fill-opacity="0.55"/>
<path d="M675.098 475.933C671.159 467.749 667.783 459.306 664.995 450.661C663.266 446.24 662.328 441.549 662.225 436.802C662.225 424.247 673.958 414.302 675.098 401.747C674.956 392.984 671.724 384.553 665.973 377.942C660.556 371.278 655.602 364.251 651.145 356.909C647.004 347.484 645.322 337.162 646.256 326.909C648.139 305.791 655.069 285.436 666.462 267.56C677.857 249.767 690.663 232.919 704.755 217.178C702.087 221.431 700.32 226.187 699.563 231.151C698.806 236.115 699.076 241.182 700.355 246.037C702.575 252.388 705.413 258.504 708.829 264.299C718.767 286.977 725.09 311.075 727.568 335.713C729.527 343.527 729.527 351.704 727.568 359.518C723.983 369.464 714.369 375.823 708.829 384.79C706.751 389.061 704.411 393.2 701.822 397.182C696.934 404.03 688.786 407.943 683.409 414.465C677.936 421.878 675.384 431.049 676.239 440.226C677.211 449.024 679.235 457.673 682.268 465.987C685.61 474.633 688.493 483.45 690.904 492.401C691.645 499.219 693.751 505.818 697.097 511.803C688.666 500.556 681.302 488.548 675.098 475.933Z" fill="#4B5C42" fill-opacity="0.55"/>
<path d="M480.7 551.424C476.301 529.575 484.448 505.771 475.812 485.39C465.526 467.541 449.668 453.564 430.675 445.606C421.127 441.749 412.487 435.944 405.305 428.561C398.122 421.178 392.556 412.379 388.96 402.725C386.461 436.59 396.623 470.176 417.476 496.966C424.066 506.706 432.149 515.345 441.429 522.564C452.773 528.699 462.927 536.817 471.412 546.532C476.952 555.011 477.604 566.587 484.448 574.087C488.685 570.663 481.841 556.804 480.7 551.424Z" fill="#4B5C42" fill-opacity="0.55"/>
<path d="M304.878 378.757C303.045 374.788 302.028 370.492 301.888 366.122C301.748 361.753 302.488 357.4 304.063 353.322C306.47 348.892 309.193 344.642 312.211 340.604C316.312 332.236 318.66 323.117 319.108 313.808C319.556 304.499 318.096 295.196 314.818 286.473C309.495 268.289 301.534 250.984 291.19 235.113C284.998 225.493 277.665 214.08 281.739 203.319C273.809 219.141 268.315 236.072 265.444 253.537C264.552 259.264 264.552 265.094 265.444 270.82C266.633 277.164 268.833 283.274 271.962 288.918C282.554 309.951 297.219 331.147 295.427 354.137C294.608 358.556 294.608 363.088 295.427 367.507C296.659 370.468 298.427 373.176 300.641 375.496C304.552 380.224 313.188 387.072 313.84 393.268C310.28 388.81 307.271 383.937 304.878 378.757Z" fill="#4B5C42" fill-opacity="0.55"/>
<path d="M354.903 444.628C353.412 426.087 347.848 408.104 338.608 391.964C342.682 389.844 346.593 394.736 349.526 398.323C355.066 405.008 363.54 409.247 367.776 416.747C371.471 425.729 373.14 435.416 372.665 445.117C374.359 456.155 377.71 466.874 382.605 476.911C385.732 485.662 390.738 493.621 397.27 500.227C369.732 499.412 358.977 466.965 354.903 444.628Z" fill="#6F8C4D" fill-opacity="0.55"/>
<path d="M1153.35 1031.92H1154.49L1150.91 1038.93C1120.23 1023.83 1091.64 1004.82 1065.85 982.356L1060.47 978.28C1047.6 984.965 993.664 1010.07 950.971 990.345C948.637 992.304 945.916 993.749 942.987 994.584C925.537 997.436 907.662 993.403 893.124 983.334C853.039 961.975 815.886 990.182 801.873 1003.23L796.496 997.519C806.575 987.438 818.704 979.643 832.058 974.664C845.413 969.685 859.681 967.637 873.896 968.66C881.927 969.922 889.691 972.512 896.872 976.323C920.663 989.041 933.536 989.204 939.891 987.084C941.19 986.808 942.413 986.252 943.476 985.454L939.076 982.682C892.473 949.094 790.792 890.724 789.815 890.235C768.268 875.683 742.228 869.328 716.405 872.319C690.582 875.309 666.682 887.448 649.027 906.539C630.475 925.232 610.891 942.869 590.365 959.366C589.242 960.379 588.043 961.306 586.78 962.138C563.01 981.445 537.787 998.889 511.335 1014.31L507.587 1007.3C525.048 997.43 541.915 986.542 558.101 974.693C538.969 977.709 519.384 975.744 501.232 968.986C497.647 967.519 495.529 966.54 495.203 964.095L496.669 960.345L499.113 963.443H503.024C502.976 962.866 502.806 962.306 502.525 961.799C502.244 961.293 501.859 960.853 501.395 960.508C505.794 963.116 551.583 978.932 581.892 956.758C603.447 939.624 624.012 921.279 643.486 901.811C655.72 887.706 671.275 876.876 688.744 870.3C706.214 863.724 725.046 861.609 743.537 864.147C761.508 866.865 778.681 873.427 793.888 883.387C798.451 885.995 897.687 943.062 943.639 976.16C981.932 1003.72 1038.96 979.095 1055.1 971.269C1047.44 962.627 1037.99 951.54 1027.56 938.659C994.967 900.833 951.623 848.984 935.491 840.831C912.581 824.669 891.2 806.44 871.615 786.374C852.803 767.374 832.536 749.875 810.998 734.036C792.889 723.047 776.887 708.912 763.743 692.296V697.35C756.084 697.35 577.329 678.926 537.569 637.512L521.274 621.208C507.098 626.588 439.8 649.904 404.766 625.773C393.42 618.661 380.658 614.115 367.373 612.453C354.088 610.791 340.6 612.054 327.854 616.153C323.128 627.602 315.448 637.59 305.599 645.096C295.75 652.601 284.086 657.355 271.799 658.871L270.333 651.208C280.498 650.097 290.247 646.554 298.756 640.878C307.265 635.202 314.283 627.561 319.218 618.599C311.885 620.066 304.389 621.697 296.568 623.001C252.897 630.501 243.12 608.653 242.632 607.675L249.801 603.272C249.801 603.272 258.112 619.577 295.101 613.871C302.76 612.729 310.092 611.099 317.099 609.631L322.477 608.49C322.391 607.622 322.391 606.749 322.477 605.881H326.387H329.32C342.662 602.039 356.669 601.085 370.408 603.081C384.147 605.077 397.304 609.978 409.003 617.457C439.148 637.675 497.321 619.414 515.245 613.055L510.683 608.001C475.812 569.848 432.467 522.401 396.618 507.238C360.77 492.075 340.238 451.802 326.387 425.715C322.708 418.121 318.459 410.818 313.677 403.866C299.99 385.931 241.98 326.745 241.491 326.093L247.031 320.55C249.475 322.995 305.856 380.714 320.032 398.975C325.367 406.9 330.053 415.242 334.046 423.921C347.408 449.683 367.776 489.14 400.366 502.347C437.845 518.651 481.841 566.424 517.201 605.066C526.326 615.175 534.962 624.632 542.947 632.947C578.144 669.632 738.486 687.568 761.461 690.013C743.52 667.937 732.923 640.802 731.153 612.403C729.198 555.826 636.642 420.171 600.794 402.073L604.379 395.062C632.569 409.41 693.349 491.586 722.354 556.804C736.693 543.597 783.623 497.292 784.437 458.976C784.431 441.136 780.246 423.545 772.216 407.616C764.72 391.312 758.365 376.475 766.676 358.702C771.323 349.54 776.776 340.81 782.971 332.615C799.266 311.419 814.42 289.408 808.717 255.331C809.773 255.146 810.856 255.184 811.897 255.445C812.937 255.705 813.911 256.181 814.756 256.842C815.601 257.503 816.298 258.334 816.801 259.281C817.305 260.229 817.604 261.272 817.679 262.342C818.179 290.005 808.027 316.801 789.326 337.18C783.192 345.015 777.74 353.36 773.031 362.126C766.187 376.148 771.727 388.54 778.571 404.029C785.533 417.867 790.001 432.825 791.77 448.215C796.023 447.102 799.833 444.712 802.688 441.367C811.511 428.384 815.065 412.528 812.628 397.018C813.66 396.929 814.699 397.051 815.683 397.376C816.667 397.7 817.575 398.221 818.352 398.907C819.129 399.593 819.759 400.43 820.203 401.366C820.648 402.303 820.898 403.32 820.938 404.356C822.628 419.724 818.435 435.163 809.206 447.563C804.969 452.401 799.23 455.674 792.911 456.857C792.992 457.67 792.992 458.489 792.911 459.302C792.096 503.162 738.486 553.706 726.427 564.63C733.284 579.681 737.58 595.773 739.137 612.24C740.93 665.23 786.719 711.372 815.072 727.84C837.081 743.956 857.785 761.783 876.992 781.156C896.066 800.749 916.903 818.542 939.239 834.31C956.674 843.44 999.367 893.659 1033.59 934.094C1049.88 953.008 1063.41 969.149 1071.55 977.628C1094.22 997.605 1119.36 1014.59 1146.35 1028.17C1150.75 1014.64 1162.64 971.106 1138.53 944.203C1109.54 910.964 1090.36 870.321 1083.12 826.809L1090.94 825.668C1094.18 843.829 1099.65 861.519 1107.24 878.332C1117.18 856.158 1142.44 789.798 1107.24 745.612C1060.47 690.013 1022.18 635.882 1021.85 635.882L1028.37 631.316C1028.37 631.316 1066.83 684.796 1111.8 740.558C1156.78 796.32 1117.67 874.093 1110.66 887.3C1119.53 905.815 1130.88 923.039 1144.39 938.496C1172.09 970.127 1158.08 1018.72 1153.35 1031.92Z" fill="#6D7B66" fill-opacity="0.55"/>
<path d="M709.481 566.098C700.972 564.605 692.24 564.994 683.898 567.239C666.848 573.169 648.435 573.963 630.939 569.522C624.055 566.36 617.683 562.183 612.037 557.13L590.854 540.826C589.387 539.521 587.432 538.38 585.802 539.195C584.891 539.801 584.248 540.736 584.01 541.804C582.146 547.188 581.544 552.929 582.25 558.584C582.956 564.238 584.952 569.654 588.084 574.413C580.114 569.981 573.12 563.985 567.521 556.785C561.921 549.585 557.83 541.329 555.494 532.51C554.762 529.511 554.762 526.379 555.494 523.38C556.165 520.191 557.621 517.221 559.73 514.738C564.812 507.716 571.598 502.104 579.447 498.434C591.358 494.285 604.102 493.112 616.569 495.016C629.036 496.92 640.85 501.843 650.982 509.358C672.165 522.891 689.438 541.967 709.97 556.315C714.206 559.25 728.872 567.892 724.309 574.25C720.008 570.5 714.951 567.72 709.481 566.098Z" fill="#4B5C42" fill-opacity="0.55"/>
<path d="M1014.03 284.353C1007.42 288.644 1001.74 294.217 997.318 300.742C992.896 307.266 989.825 314.611 988.287 322.343C980.282 341.506 978.128 362.611 982.095 382.997C980.25 378.523 977.84 374.304 974.925 370.442C969.191 363.315 961.482 358.04 952.764 355.279C945.904 351.952 938.513 349.855 930.929 349.083C921.732 349.401 912.602 350.769 903.716 353.159C888.855 355.402 873.664 353.011 860.209 346.311C860.209 346.311 860.209 344.028 859.394 344.355C858.579 344.681 858.579 345.496 858.416 346.148C853.351 363.048 851.907 380.827 854.18 398.323C846.195 393.595 835.44 405.171 827.456 400.443C826.527 399.659 825.399 399.151 824.197 398.975C822.079 398.975 821.427 401.747 820.286 403.541C819.146 405.334 815.235 406.964 812.791 408.758C810.719 410.496 809.156 412.763 808.267 415.317C807.378 417.872 807.195 420.619 807.739 423.269C808.908 428.594 811.004 433.671 813.931 438.269C805.778 439.277 797.513 438.891 789.489 437.128C789.162 443.689 789.989 450.256 791.933 456.531L778.571 447.237C769.772 441.204 759.995 433.215 760.158 422.617C757.062 423.595 755.432 427.019 754.292 430.117C747.631 446.348 744.36 463.771 744.678 481.314C744.761 499.127 751.572 516.25 763.743 529.249C761.491 528.022 758.91 527.535 756.365 527.857C753.821 528.179 751.442 529.293 749.566 531.043C746.31 534.454 743.909 538.589 742.56 543.108C738.586 551.142 736.842 560.095 737.508 569.033C739.633 575.586 743.049 581.646 747.555 586.855C752.061 592.064 757.566 596.316 763.743 599.359C769.873 603.891 776.623 607.515 783.786 610.121C805.458 616.968 827.945 605.066 850.269 601.316C861.052 599.447 872.076 599.447 882.859 601.316C874.515 607.499 864.972 611.868 854.842 614.142C844.711 616.417 834.218 616.546 824.034 614.523C830.599 619.693 838.139 623.484 846.203 625.67C854.267 627.855 862.688 628.389 870.963 627.24C875.3 626.183 879.826 626.183 884.162 627.24C886.275 627.919 888.053 629.372 889.141 631.307C890.229 633.242 890.546 635.516 890.028 637.675C888.562 641.262 884.162 642.567 880.577 643.708C871.78 647.069 863.735 652.143 856.911 658.636C850.086 665.129 844.616 672.912 840.818 681.535C833.343 698.829 830.264 717.707 831.856 736.482C831.842 738.355 832.29 740.203 833.159 741.862C834.498 743.362 836.235 744.449 838.168 744.998C840.102 745.546 842.151 745.533 844.077 744.96C853.164 742.506 861.598 738.078 868.78 731.991C875.962 725.903 881.715 718.307 885.629 709.742C893.331 692.583 902.093 675.92 911.864 659.85L904.368 674.035C908.613 669.557 913.569 665.811 919.033 662.948C924.281 661.086 929.769 659.988 935.328 659.687L978.021 655.284C986.168 655.087 994.153 652.964 1001.32 649.089C1006.47 645.012 1010.68 639.872 1013.66 634.019C1016.64 628.166 1018.32 621.738 1018.6 615.175C1019.23 602.069 1022.27 589.192 1027.56 577.185C1032.12 569.522 1035.22 562.674 1039.62 555.011C1038.48 562.522 1038.48 570.163 1039.62 577.674C1040.43 581.261 1042.71 585.99 1046.3 585.174C1052 564.794 1049.39 540.826 1063.57 525.01C1070.5 518.65 1077.85 512.767 1085.57 507.401C1100.33 491.616 1109.25 471.245 1110.82 449.683C1111.42 443.506 1112.96 437.456 1115.39 431.748C1116.6 428.88 1118.48 426.339 1120.85 424.328C1123.23 422.318 1126.05 420.894 1129.07 420.171L1091.11 426.367C1086.58 426.577 1082.24 428.234 1078.72 431.095C1079.32 424.532 1078.41 417.92 1076.06 411.761C1073.72 405.602 1070 400.058 1065.2 395.551C1060.47 390.986 1054.93 387.725 1050.04 383.486C1042.2 376.821 1036.53 367.964 1033.75 358.05C1032.8 353.702 1031.32 349.486 1029.35 345.496C1027.56 342.724 1025.11 340.604 1023.32 337.833C1019.35 330.86 1018.24 322.618 1020.22 314.843C1022.05 307.427 1023.47 299.916 1024.46 292.343C1024.72 290.887 1024.63 289.392 1024.21 287.976C1023.78 286.56 1023.03 285.264 1022.02 284.19C1019.9 282.397 1013.22 281.419 1014.03 284.353Z" fill="white" fill-opacity="0.55"/>
<path d="M979.976 641.751C985.7 637.627 992.648 635.559 999.693 635.882C1008.9 634.916 1017.97 632.948 1026.74 630.012C1033.02 628.152 1038.88 625.108 1044.02 621.045C1049.63 615.512 1053.46 608.429 1055.03 600.703C1056.6 592.977 1055.83 584.959 1052.81 577.674C1049.05 569.526 1047.53 560.519 1048.42 551.587C1051.73 539.402 1059.3 528.813 1069.76 521.749C1073.5 518.938 1076.79 515.586 1079.54 511.803C1081.44 508.653 1083.02 505.321 1084.26 501.857L1098.11 466.639C1091.26 475.077 1083.44 482.684 1074.81 489.303C1070.17 494.502 1064.46 498.647 1058.08 501.46C1051.7 504.272 1044.79 505.686 1037.82 505.607C1053.15 483.722 1074.09 466.374 1098.44 455.389C1089.12 453.168 1079.45 452.906 1070.02 454.618C1060.6 456.33 1051.63 459.979 1043.69 465.335C1044.49 460.868 1046.41 456.675 1049.25 453.143C1052.1 449.61 1055.79 446.85 1059.98 445.117C1065.52 442.671 1072.53 441.856 1076.28 436.802C1077.35 434.155 1077.76 431.289 1077.48 428.448C1077.19 425.608 1076.22 422.879 1074.65 420.497C1068.21 406.636 1059.26 394.088 1048.25 383.486C1035.38 371.094 1019.08 360.17 1015.66 342.724C1014.68 336.239 1014.68 329.643 1015.66 323.158L1018.6 283.212C1011.91 292.714 1007.33 303.536 1005.17 314.953C1003 326.37 1003.3 338.118 1006.05 349.409C1009.14 372.398 1016.64 398.323 1008.98 419.682L981.769 391.312C977.037 385.553 971.557 380.454 965.474 376.148C973.978 387.42 978.865 401.008 979.488 415.117C979.488 420.334 976.392 426.367 971.34 426.204C969.031 425.972 966.859 425 965.148 423.432L877.807 358.702C894.102 392.453 926.692 416.095 948.527 446.911C950.778 449.457 952.499 452.427 953.59 455.646C954.681 458.866 955.12 462.27 954.882 465.661C920.384 436.22 889.628 402.653 863.305 365.714C872.43 387.236 881.392 408.758 892.473 429.302C901.924 446.585 912.678 463.052 923.433 479.52C930.929 491.259 938.587 502.836 946.083 514.412C926.692 488.161 894.102 469.085 884.162 437.128C880.903 426.53 880.252 415.443 876.178 404.519C873.756 398.4 870.124 392.833 865.501 388.152C860.878 383.47 855.359 379.771 849.273 377.274C843.188 374.777 836.661 373.535 830.084 373.622C823.508 373.709 817.016 375.123 810.998 377.779C809.959 378.069 808.997 378.585 808.181 379.289C807.364 379.994 806.712 380.87 806.273 381.855C806.028 383.159 806.092 384.502 806.459 385.776C806.827 387.05 807.489 388.22 808.391 389.192L826.641 416.095C830.226 421.312 833.485 429.139 828.76 433.378C824.034 437.617 815.724 433.378 811.487 438.432C807.25 443.487 810.346 449.193 814.094 453.433C829.209 466.768 846.236 477.76 864.608 486.042C877.198 493.783 888.247 503.789 897.198 515.553C898.828 517.836 900.294 521.586 897.198 522.89C896.632 523.133 896.022 523.258 895.406 523.258C894.79 523.258 894.18 523.133 893.613 522.89C871.778 516.042 856.95 496.64 838.862 482.781C821.379 470.65 802.365 460.891 782.319 453.759C793.256 465.657 802.771 478.789 810.672 492.89C798.83 485.841 788.586 476.401 780.59 465.173C772.594 453.944 767.023 441.172 764.232 427.671C758.216 429.708 753.204 433.965 750.218 439.574C749.569 442.527 749.569 445.587 750.218 448.541C752.825 476.585 763.417 516.206 790.467 523.543C817.516 530.88 849.78 524.521 878.133 532.673C891.453 539.251 906.434 541.692 921.152 539.684C912.769 526.085 902.449 513.781 890.517 503.162C893.573 503.978 896.811 503.784 899.747 502.609C902.684 501.434 905.162 499.34 906.812 496.64C907.436 495.374 908.262 494.217 909.257 493.216C912.678 490.77 916.752 495.009 918.87 498.76L927.67 515.064C932.547 523.304 936.223 532.198 938.587 541.478C940.559 548.823 941.653 556.376 941.846 563.978C928.568 551.155 911.333 543.222 892.962 541.478C874.607 539.847 856.126 540.339 837.885 542.945C821.59 544.576 805.295 546.206 790.141 549.304C779.266 550.511 769.11 555.334 761.299 563C778.146 567.752 793.84 575.909 807.413 586.968C809.486 588.673 810.921 591.028 811.487 593.653C802.301 586.887 791.409 582.821 780.038 581.913C776.485 581.784 772.945 581.402 769.446 580.772C759.18 578 753.151 567.728 742.885 564.467C748.515 578.196 757.408 590.341 768.794 599.848C779.638 606.335 791.756 610.396 804.317 611.751C829.821 615.852 855.57 618.248 881.392 618.925C899.348 617.276 917.343 621.635 932.558 631.316C925.551 628.382 918.219 634.088 911.538 637.675C898.502 644.686 882.533 644.686 869.66 652.023C859.82 658.359 851.836 667.192 846.521 677.622C840.097 688.013 835.676 699.515 833.485 711.535C831.238 723.687 833.252 736.243 839.188 747.08C858.44 742.213 875.593 731.228 888.073 715.775C895.413 709.426 901.398 701.663 905.672 692.948C910.234 682.35 909.419 669.632 915.937 660.339C919.428 656.117 923.743 652.653 928.619 650.158C933.494 647.663 938.827 646.189 944.291 645.828C955.208 644.36 966.289 645.012 976.88 642.73L979.976 641.751Z" fill="#FF7A03"/>
<path d="M821.427 381.04C827.77 377.006 835.191 375.001 842.701 375.292C850.212 375.583 857.456 378.157 863.468 382.67C867.474 386.959 870.774 391.857 873.245 397.182C881.007 411.625 887.97 426.485 894.102 441.693C896.58 449.092 899.744 456.243 903.553 463.052C911.538 473.795 920.307 483.932 929.788 493.379C938.034 503.768 944.028 515.762 947.386 528.597C948.959 538.273 952.213 547.599 957 556.152C960.221 560.132 963.705 563.89 967.429 567.402C978.178 579.801 986.473 594.132 991.872 609.631C977.111 590.666 958.5 575.048 937.265 563.806C916.031 552.564 892.656 545.954 868.682 544.413C854.343 543.434 839.84 544.413 825.501 542.619C811.039 541.535 797.448 535.286 787.207 525.01C784.763 522.401 782.808 519.466 780.364 517.021C777.507 514.402 774.457 512.004 771.238 509.847C761.007 501.189 754.016 489.312 751.411 476.161C748.806 463.009 750.741 449.362 756.899 437.454C754.436 449.795 753.832 462.435 755.106 474.955C755.902 481.073 757.983 486.952 761.213 492.208C764.443 497.463 768.748 501.974 773.846 505.444C785.875 510.887 798.937 513.668 812.139 513.597C826.127 515.158 839.339 520.832 850.106 529.901C840.046 513.945 825.468 501.345 808.228 493.705C842.447 497.781 871.452 519.303 901.272 536.423C907.252 540.493 914.251 542.809 921.478 543.108C903.553 520.771 874.711 509.521 856.298 487.835C852.811 483.424 849.056 479.231 845.054 475.281C839.445 470.643 833.186 466.852 826.478 464.031C815.722 458.303 804.423 453.66 792.748 450.172C832.524 456.329 869.262 475.138 897.524 503.814C889.865 488.488 875.363 480.335 864.934 466.639C858.837 457.979 853.391 448.877 848.639 439.411C837.92 419.652 825.314 400.977 810.998 383.649C840.225 405.691 866.128 431.829 887.91 461.259C890.495 465.618 894.448 469 899.154 470.879C891.984 456.857 880.903 445.117 873.245 431.421C867.893 418.779 861.573 406.568 854.343 394.899C851.253 389.184 846.306 384.696 840.321 382.175C834.336 379.655 827.67 379.255 821.427 381.04Z" fill="#F9DAB5"/>
<path d="M987.961 645.338L1027.56 620.555C1029.22 619.375 1031.11 618.544 1033.1 618.11C1039.94 616.805 1046.3 624.468 1052.98 622.675C1059.66 620.881 1060.8 613.707 1060.64 607.675C1058.77 592.612 1055.27 577.796 1050.21 563.489C1047.71 556.306 1046.79 548.666 1047.52 541.094C1048.25 533.523 1050.61 526.2 1054.44 519.629C1061.29 510.173 1073.35 505.444 1079.21 495.009C1074.12 502.417 1066.91 508.103 1058.52 511.314C1047.27 515.39 1034.56 514.575 1023.48 519.14C1020.18 520.296 1017.25 522.324 1015.01 525.01C1013.08 527.447 1011.59 530.207 1010.61 533.162C1007.03 542.293 1003.28 551.423 999.693 560.391C998.823 550.611 1000.33 540.765 1004.09 531.695C1009.31 521.26 1022.02 516.858 1029.35 507.727C1031.77 504.409 1033.95 500.922 1035.87 497.292C1039.23 492.2 1042.87 487.301 1046.79 482.618L1063.08 461.911C1056.48 463.8 1050.32 466.996 1044.98 471.309C1039.63 475.622 1035.2 480.964 1031.96 487.02C1031.88 475.861 1034.93 464.902 1040.76 455.389C1043.76 450.924 1047.68 447.157 1052.26 444.344C1056.85 441.53 1061.98 439.737 1067.32 439.084C1065.95 424.119 1060.67 409.777 1052 397.507C1043.84 387.215 1035.13 377.364 1025.93 367.996C1016.56 358.342 1010.36 346.054 1008.17 332.778C1006.21 316.473 1014.68 300.169 1016.8 282.56C1004.91 288.755 1002.95 304.408 998.064 316.962C996.108 322.18 993.501 327.071 992.035 332.452C990.679 338.328 990.131 344.362 990.405 350.387C989.954 364.094 990.937 377.81 993.338 391.312C996.28 406.346 1003.4 420.247 1013.87 431.421C1009.2 416.982 1002.15 403.425 993.012 391.312C988.793 385.26 983.808 379.78 978.184 375.007C967.604 367.366 955.655 361.831 942.987 358.702C933.586 355.141 923.693 353.051 913.656 352.507C897.361 352.507 881.066 359.681 865.912 352.507C880.319 356.687 895.516 357.358 910.234 354.463C923.971 354.251 937.539 357.518 949.675 363.96C961.812 370.403 972.123 379.812 979.651 391.312C990.966 411.943 997.849 434.713 999.856 458.161C1001.16 462.688 1001.16 467.493 999.856 472.02C991.261 456.016 979.832 441.707 966.126 429.791C935.163 400.777 900.867 375.546 863.957 354.626C870.76 357.842 876.644 362.721 881.066 368.811L948.038 445.606C956.835 453.99 963.342 464.486 966.94 476.096C968.06 484.194 969.748 492.203 971.992 500.064C954.512 475.489 932.364 454.601 906.812 438.595C917.344 455.935 929.395 472.304 942.824 487.509C968.57 523.706 972.97 571.804 998.39 608.49C1001.41 611.94 1003.39 616.182 1004.09 620.718C983.235 609.142 964.822 593.49 944.454 580.935C918.089 563.267 886.409 555.314 854.831 558.435C844.701 561.187 834.144 562.016 823.708 560.88C815.284 557.175 806.629 554.016 797.799 551.423C819.257 560.543 841.747 567.004 864.771 570.663C877.761 571.082 890.249 575.782 900.294 584.033C887.859 579.235 874.138 578.947 861.512 583.218C849.103 587.516 836.164 590.094 823.056 590.881C800.798 588.116 780.011 578.287 763.743 562.837C782.256 577.666 802.705 589.899 824.523 599.196C829.459 601.7 834.649 603.667 840.003 605.066C846.358 606.207 853.528 608.327 859.72 610.12C824.849 611.425 789.163 610.12 759.18 593C772.679 605.813 789.226 614.961 807.25 619.577C816.213 621.293 825.347 621.95 834.463 621.534C845.028 621.455 855.581 620.802 866.075 619.577C882.68 616.363 899.52 614.509 916.426 614.033C924.911 613.854 933.341 615.427 941.191 618.653C949.041 621.879 956.143 626.689 962.052 632.784C960.467 633.997 958.657 634.882 956.726 635.385C954.795 635.889 952.784 636.003 950.809 635.719C938.281 635.902 925.921 638.62 914.471 643.708C903.237 649.187 892.59 655.797 882.696 663.437C878.239 666.443 874.091 669.884 870.312 673.708C864.389 680.967 859.858 689.258 856.95 698.165C851.814 709.461 848.303 721.428 846.521 733.71C859.976 714.217 875.491 696.232 892.799 680.067C891.005 690.914 886.997 701.275 881.026 710.504C875.054 719.733 867.247 727.632 858.09 733.71C851.084 738.438 843.588 740.884 836.744 746.101C853.317 744.894 868.942 737.914 880.903 726.373C892.802 714.964 902.764 701.692 910.397 687.078C919.685 670.774 929.462 652.023 947.387 646.806C951.821 645.691 956.348 644.981 960.911 644.686C968.733 644.197 981.117 649.578 987.961 645.338Z" fill="#F9DAB5"/>
<path d="M763.743 437.78C766.475 442.554 770.718 446.283 775.801 448.378C796.984 459.628 818.983 469.085 839.84 480.987C872.219 499.534 901.204 523.463 925.551 551.75C893.939 542.13 867.867 519.14 836.744 508.868C846.634 519.585 857.549 529.305 869.334 537.891C864.17 538.816 858.86 538.48 853.854 536.912C831.494 531.394 809.678 523.863 788.674 514.412C795.739 525.631 806.527 534.001 819.146 538.054C829.753 540.992 840.732 542.365 851.735 542.13L882.533 542.945C888.48 543.022 894.415 543.512 900.294 544.413C908.583 546.026 916.595 548.826 924.085 552.728C957.177 568.791 984.703 594.403 1003.12 626.262C985.597 613.229 965.818 603.555 944.779 597.729C934.197 594.64 923.212 593.156 912.19 593.327C889.377 593.327 867.216 604.903 844.403 602.946C860.698 605.555 876.993 607.349 894.102 608.327C911.1 608.562 928.05 610.198 944.779 613.218C961.654 616.167 977.041 624.727 988.45 637.512C956.625 619.988 920.811 611.001 884.488 611.425C910.963 613.879 936.816 620.884 960.911 632.132C962.378 632.132 964.007 634.74 962.867 635.882C962.867 640.284 956.675 643.219 952.275 643.056C941.846 643.056 931.418 640.447 920.989 640.447C901.843 640.905 883.436 647.927 868.845 660.339C854.351 672.703 842.776 688.127 834.952 705.503C843.636 686.508 857.045 670.06 873.896 657.73C876.22 655.894 878.8 654.411 881.555 653.328C885.209 652.243 888.989 651.64 892.799 651.534C903.905 649.988 914.825 647.311 925.388 643.545L880.74 683.491C869.374 692.537 860.324 704.163 854.343 717.405C873.289 694.559 894.713 673.889 918.219 655.773C913.959 662.989 908.992 669.761 903.39 675.991C900.059 681.92 897.278 688.142 895.08 694.578C886.994 713.604 872.609 729.265 854.343 738.927C873.119 727.283 889.045 711.57 900.946 692.948C906.8 680.678 915.252 669.829 925.714 661.154C935.754 655.806 946.931 652.954 958.304 652.839C968.581 651.653 978.947 651.434 989.264 652.186C998.228 653.566 1007.35 653.566 1016.31 652.186C1020.85 651.59 1025.01 649.354 1028.01 645.9C1031.01 642.446 1032.65 638.013 1032.61 633.436C1033.96 628.114 1034.46 622.61 1034.08 617.131C1039.13 619.414 1038.48 627.24 1042.87 630.664C1044.83 631.768 1047.14 632.079 1049.32 631.533C1051.51 630.987 1053.4 629.626 1054.61 627.729C1056.97 623.812 1057.99 619.236 1057.54 614.686C1057.5 602.852 1055.46 591.111 1051.51 579.957C1048.13 572.565 1045.45 564.867 1043.53 556.967C1042.22 544.737 1043.89 532.372 1048.41 520.934C1045.05 522.283 1042.02 524.354 1039.54 527.003C1037.07 529.651 1035.2 532.811 1034.08 536.26C1028.35 549.169 1024.82 562.947 1023.65 577.022C1021.94 560.217 1021.94 543.282 1023.65 526.477C1019.25 541.641 1012.89 556.315 1008.66 571.641C1003.28 587.044 1002.27 603.633 1005.72 619.577C1004.42 603.272 997.738 586.968 994.805 570.663C992.673 562.59 992.554 554.117 994.457 545.986C996.36 537.856 1000.23 530.318 1005.72 524.032C997.455 531.474 991.228 540.91 987.634 551.441C984.04 561.972 983.199 573.248 985.191 584.196C973.156 577.178 963.418 566.812 957.163 554.358C950.157 542.619 945.105 529.901 938.587 517.999C923.433 489.955 900.783 466.313 886.932 437.454C877.318 417.562 871.452 394.573 854.343 380.388C861.512 395.551 868.845 410.877 876.178 426.041C880.316 435.68 885.45 444.861 891.495 453.433C896.058 459.465 901.435 464.683 906.16 470.716C911.809 478.361 916.771 486.49 920.989 495.009C928.946 507.504 934.474 521.388 937.284 535.934L889.54 472.835C879.763 459.954 869.986 447.074 859.231 435.008C845.028 421.127 832.553 405.58 822.079 388.703C844.783 421.312 867.759 453.215 891.006 484.411C902.502 498.297 911.391 514.151 917.241 531.206C873.948 488.651 821.417 456.678 763.743 437.78Z" fill="#D6D0C9" fill-opacity="0.55"/>
<path d="M1028.21 476.912C1030.84 471.709 1032.92 466.244 1034.4 460.607C1038.01 451.482 1039.73 441.719 1039.45 431.911C1037.82 414.628 1024.46 401.095 1017.45 385.116C1014.44 377.357 1012.14 369.333 1010.61 361.148C1007.48 378.23 1009.41 395.854 1016.15 411.856C1020.68 420.948 1021.78 431.367 1019.25 441.204C1015.49 446.867 1011.4 452.31 1007.03 457.509C1005.14 461.455 1004.07 465.741 1003.87 470.111C1003.68 474.48 1004.36 478.845 1005.88 482.944C1007.03 486.694 1011.59 500.553 1017.62 497.945C1019.25 497.129 1020.22 490.281 1021.04 488.488C1022.83 485.064 1026.09 481.151 1028.21 476.912Z" fill="white" fill-opacity="0.55"/>
<path d="M286.628 1.63044C279.704 5.63082 273.655 10.9832 268.841 17.3694C264.026 23.7556 260.543 31.0453 258.6 38.8051C249.955 57.6564 247.009 78.6267 250.127 99.1323C248.458 94.6226 246.212 90.3479 243.446 86.4147C238.118 78.8324 230.533 73.1264 221.774 70.11C215.095 66.4414 207.808 64.0109 200.265 62.936C191.105 62.9182 181.974 63.9578 173.052 66.0339C158.079 67.6791 142.96 64.7218 129.708 57.5554C129.708 57.5554 129.708 55.2728 129.708 55.5989C129.386 55.7828 129.115 56.0422 128.916 56.3547C128.717 56.6671 128.598 57.0233 128.567 57.3924C122.865 74.0435 120.755 91.7146 122.375 109.241C114.553 104.35 103.31 115.437 95.4884 110.383C94.6199 109.604 93.5446 109.094 92.3925 108.915C90.2741 108.915 89.4594 111.524 88.3187 113.154C87.1781 114.785 83.2673 116.415 80.6601 118.046C78.5147 119.74 76.8671 121.983 75.8918 124.538C74.9165 127.092 74.6497 129.863 75.1198 132.557C76.0092 137.912 77.8881 143.054 80.6601 147.72C72.5693 148.757 64.3619 148.426 56.3806 146.742C55.748 153.534 56.3553 160.385 58.1731 166.96L45.1372 157.177C36.5009 150.655 27.0499 142.503 27.7017 131.742C24.4427 132.557 22.6502 135.981 21.5095 139.079C14.2211 155.067 10.2837 172.38 9.94016 189.949C9.69281 207.642 16.156 224.771 28.0275 237.885C25.8088 236.581 23.2431 235.991 20.6781 236.195C18.1131 236.4 15.6728 237.388 13.688 239.026C10.2844 242.409 7.71768 246.541 6.19238 251.092C1.88486 258.914 -0.200287 267.767 0.163239 276.69C2.04077 283.279 5.21274 289.427 9.49359 294.774C13.7744 300.121 19.0782 304.561 25.0944 307.832C30.9837 312.667 37.5782 316.571 44.6484 319.408C65.9947 327.072 88.9706 315.984 111.62 313.213C122.496 311.865 133.523 312.416 144.21 314.843C135.632 320.702 125.923 324.701 115.708 326.582C105.493 328.463 94.998 328.186 84.8967 325.767C91.2673 331.182 98.6626 335.258 106.641 337.751C114.62 340.244 123.019 341.103 131.337 340.278C135.757 339.698 140.25 340.031 144.536 341.257C146.617 341.999 148.335 343.512 149.335 345.484C150.335 347.455 150.542 349.735 149.913 351.855C148.284 355.442 144.047 356.583 140.299 357.724C131.382 360.701 123.153 365.438 116.099 371.656C109.046 377.873 103.312 385.445 99.2363 393.921C91.016 410.907 87.2052 429.692 88.1558 448.541C87.9061 450.052 88.078 451.602 88.6526 453.021C89.2273 454.44 90.1824 455.673 91.4126 456.583C92.6428 457.494 94.1003 458.047 95.6245 458.181C97.1488 458.316 98.6805 458.027 100.051 457.346C109.222 455.241 117.816 451.14 125.223 445.335C132.63 439.53 138.668 432.163 142.907 423.758C151.321 406.938 160.678 390.608 170.934 374.844L162.949 388.866C167.347 384.522 172.477 380.989 178.104 378.431C183.002 376.506 188.169 375.351 193.421 375.007L236.276 372.235C244.006 371.979 251.602 370.149 258.6 366.855C263.905 362.936 268.308 357.925 271.512 352.159C274.717 346.393 276.648 340.007 277.177 333.43C278.274 320.335 281.811 307.56 287.605 295.767C292.331 288.266 295.753 281.581 300.478 274.081C299.256 281.586 299.256 289.24 300.478 296.745C300.478 300.495 303.086 305.223 306.833 304.571C313.351 284.353 311.559 260.222 326.224 245.059C333.498 239.175 341.115 233.73 349.037 228.754C364.387 213.536 374.051 193.506 376.413 172.014C377.249 165.862 379.006 159.87 381.627 154.242C382.977 151.473 384.941 149.05 387.37 147.156C389.798 145.263 392.627 143.95 395.641 143.318L357.674 148.046C353.142 148.058 348.738 149.546 345.126 152.286C345.878 145.749 345.171 139.127 343.058 132.896C340.945 126.666 337.477 120.981 332.905 116.252C328.343 111.524 322.802 108.1 318.077 103.698C310.561 96.6643 305.241 87.6036 302.76 77.6102C302.106 73.3418 300.901 69.1765 299.175 65.2186C297.545 62.4468 295.264 60.1642 293.472 57.3924C291.494 53.7582 290.273 49.7611 289.881 45.642C289.489 41.5228 289.934 37.3668 291.19 33.4245C292.82 25.5983 295.916 17.9351 296.731 10.1089C296.995 8.67768 296.943 7.20585 296.577 5.79723C296.21 4.3886 295.54 3.07753 294.612 1.95653C292.494 -2.91485e-05 285.976 -1.14136 286.628 1.63044Z" fill="white" fill-opacity="0.55"/>
<path d="M239.047 357.561C244.827 353.732 251.677 351.848 258.601 352.18C267.82 351.531 276.944 349.891 285.813 347.289C292.156 345.666 298.129 342.843 303.412 338.974C309.2 333.629 313.278 326.69 315.134 319.03C316.99 311.371 316.54 303.333 313.84 295.929C310.34 287.71 309.156 278.687 310.418 269.842C314.315 258.149 322.224 248.214 332.742 241.798C336.565 239.107 339.97 235.865 342.845 232.178C344.995 229.154 346.747 225.866 348.06 222.395L363.214 187.829C356.307 195.873 348.549 203.144 340.075 209.515C335.198 214.423 329.336 218.241 322.875 220.714C316.415 223.187 309.503 224.261 302.597 223.863C318.701 202.547 340.265 185.984 365.006 175.927C355.775 173.355 346.11 172.737 336.626 174.112C327.143 175.488 318.051 178.827 309.93 183.916C310.835 179.549 312.793 175.469 315.633 172.031C318.472 168.592 322.108 165.9 326.225 164.188C331.765 162.068 338.772 161.579 342.519 156.525C343.698 153.933 344.226 151.093 344.055 148.251C343.885 145.409 343.022 142.651 341.542 140.22C335.608 126.107 327.098 113.224 316.448 102.23C304.226 89.3493 288.257 77.773 285.161 60.327C284.178 53.8422 284.178 47.2462 285.161 40.7614C286.791 27.5546 288.257 14.1848 289.724 0.978027C273.429 17.2827 272.451 43.5332 274.57 66.1967C276.688 88.8602 283.532 115.111 274.57 136.307L250.127 106.143C245.472 99.9829 239.989 94.4961 233.832 89.8384C242.42 101.65 247.145 115.832 247.357 130.437C247.357 135.492 243.772 141.361 238.721 141.035C236.48 140.63 234.393 139.615 232.692 138.1L147.795 71.2511C163.601 105.98 194.562 130.437 215.093 163.046C217.241 165.668 218.85 168.689 219.829 171.934C220.807 175.18 221.136 178.587 220.796 181.96C187.314 151.117 157.859 116.165 133.13 77.936C141.277 99.7843 149.425 121.633 159.853 143.155C168.49 160.764 178.756 177.721 188.858 194.514L209.716 229.732C190.814 202.015 159.365 181.797 150.565 149.514C147.795 138.915 147.469 127.665 143.884 116.904C141.724 110.555 138.283 104.717 133.772 99.7551C129.262 94.793 123.78 90.8119 117.667 88.0595C111.555 85.307 104.941 83.8419 98.2384 83.7553C91.5357 83.6686 84.8867 84.9623 78.7047 87.5558C76.7494 87.5558 74.4681 89.5124 73.8163 91.4689C73.5502 92.7742 73.5727 94.122 73.8824 95.4176C74.192 96.7133 74.7812 97.9254 75.6087 98.9691C81.3119 108.1 87.1781 117.23 92.8813 126.524C96.3033 131.904 99.2363 139.731 94.3478 143.807C89.4594 147.883 81.3119 143.807 76.9123 148.209C72.5127 152.611 75.4458 158.97 78.8677 163.372C93.3476 177.315 109.824 189.02 127.752 198.101C140.604 206.419 151.816 217.03 160.831 229.406C162.461 231.689 163.764 235.602 160.831 236.743C160.265 236.986 159.655 237.11 159.039 237.11C158.423 237.11 157.813 236.986 157.246 236.743C135.737 229.08 121.56 209.026 103.962 194.514C87.0643 181.649 68.5459 171.069 48.885 163.046C59.3232 175.33 68.2918 188.791 75.6087 203.156C63.9975 195.59 54.0986 185.675 46.5492 174.049C38.9997 162.423 33.9671 149.344 31.7755 135.655C28.7241 136.503 25.8712 137.949 23.3818 139.908C20.8925 141.867 18.8162 144.301 17.273 147.068C16.702 149.975 16.702 152.965 17.273 155.872C18.7395 184.079 27.8646 224.026 54.7512 232.341C81.6378 240.657 113.902 235.602 141.929 244.733C155.943 249.298 170.282 257.613 184.622 253.537C176.878 239.518 167.042 226.762 155.454 215.71C158.424 216.606 161.601 216.536 164.529 215.51C167.457 214.485 169.985 212.557 171.749 210.004C172.343 208.677 173.235 207.505 174.356 206.58C177.941 204.297 181.852 208.699 183.644 212.449C185.436 216.2 189.184 223.537 191.791 228.754C196.418 237.196 199.82 246.255 201.894 255.657C203.467 263.052 204.232 270.597 204.176 278.157C191.181 264.616 173.914 255.978 155.291 253.7C137.048 251.581 118.62 251.581 100.377 253.7C84.2867 254.405 68.2425 255.929 52.3069 258.266C41.402 259.051 31.075 263.471 22.9762 270.82C39.6595 276.101 55.0789 284.759 68.276 296.255C70.2103 298.049 71.571 300.375 72.1868 302.94C63.3052 295.914 52.6386 291.509 41.3894 290.223C37.8246 289.931 34.2851 289.386 30.7977 288.592C20.6948 285.494 14.5028 274.896 4.88882 270.657C10.3215 284.732 19.1029 297.268 30.4718 307.18C41.0077 314.047 52.9034 318.552 65.3429 320.386C90.6717 325.467 116.312 328.844 142.092 330.495C160.142 329.448 178.028 334.438 192.932 344.68C185.925 341.582 178.267 346.963 171.423 350.387C158.224 356.909 142.255 356.257 129.219 363.105C119.119 368.998 110.789 377.502 105.103 387.725C98.3683 397.625 93.5078 408.678 90.7629 420.334C87.7893 432.501 89.2331 445.33 94.8367 456.53C113.893 452.244 131.046 441.889 143.721 427.019C151.353 421.031 157.676 413.539 162.298 405.008C165.087 393.788 168.962 382.866 173.867 372.398C177.478 368.281 181.909 364.965 186.876 362.663C191.843 360.36 197.236 359.122 202.709 359.028C213.627 358.05 224.544 359.028 235.299 357.235L239.047 357.561Z" fill="#FF7A03"/>
<path d="M90.6001 91.1431C97.0734 87.328 104.562 85.5948 112.052 86.178C119.542 86.7612 126.672 89.6328 132.478 94.4041C136.339 98.735 139.426 103.699 141.603 109.078C148.807 123.893 155.226 139.077 160.831 154.568C163.056 162.04 165.947 169.298 169.467 176.253C177.031 187.263 185.362 197.724 194.399 207.558C202.309 218.164 207.865 230.338 210.694 243.266C211.8 252.997 214.672 262.446 219.167 271.147C222.219 275.321 225.597 279.246 229.27 282.886C239.614 295.74 247.512 310.385 252.572 326.093C238.626 306.391 220.643 289.889 199.823 277.687C179.002 265.486 155.822 257.864 131.826 255.331C117.487 253.864 102.984 254.353 88.8076 251.907C74.378 250.278 61.0164 243.507 51.1663 232.831C48.885 230.222 47.0927 227.287 44.6484 224.678C41.8657 222.007 38.9275 219.502 35.8491 217.178C25.9308 208.153 19.3805 196.017 17.2775 182.769C15.1745 169.522 17.6443 155.952 24.2798 144.296C21.2808 156.557 20.1275 169.196 20.8578 181.797C21.2281 188.155 22.9625 194.358 25.943 199.985C28.9236 205.612 33.0802 210.531 38.1304 214.406C50.0047 220.332 63.0015 223.667 76.2605 224.189C89.9935 225.791 102.933 231.47 113.413 240.494C104.121 224.05 90.018 210.849 73.0015 202.667C107.058 208.048 135.248 230.711 164.416 248.809C170.193 253.178 177.082 255.834 184.296 256.472C168.001 233.32 138.833 220.928 120.746 198.754C117.161 194.352 113.902 189.623 109.991 185.71C104.456 180.913 98.3214 176.857 91.7407 173.645C81.3627 167.65 70.453 162.629 59.1509 158.644C98.4063 166.433 134.082 186.741 160.831 216.526C153.824 200.221 139.648 192.232 129.871 178.047C124.311 169.179 119.409 159.915 115.205 150.329C105.115 130.148 93.1101 110.983 79.3565 93.0997C107.805 116.249 132.775 143.376 153.498 173.645C155.788 178.134 159.6 181.66 164.253 183.591C157.735 169.406 146.98 157.34 139.974 143.318C134.969 130.536 129.089 118.115 122.375 106.143C115.042 94.8932 103.31 86.0887 90.6001 91.1431Z" fill="white" fill-opacity="0.55"/>
<path d="M246.868 361.474L287.442 338.322C289.15 337.113 291.093 336.28 293.146 335.876C299.99 334.898 306.019 342.724 312.863 341.257C319.706 339.789 320.847 332.615 320.847 326.582C319.656 311.466 316.759 296.534 312.211 282.071C309.953 274.799 309.308 267.121 310.321 259.574C311.334 252.027 313.981 244.792 318.077 238.374C325.41 229.243 337.305 224.515 343.66 214.732C338.31 221.795 330.912 227.034 322.476 229.733C311.07 233.32 298.523 232.178 287.279 236.254C283.926 237.329 280.899 239.237 278.48 241.798C276.505 244.203 274.911 246.897 273.755 249.787C269.844 258.755 265.933 267.722 261.859 276.69C261.397 266.836 263.238 257.011 267.237 247.994C272.94 237.722 285.813 233.809 293.472 225.004C296.046 221.806 298.387 218.428 300.478 214.895C303.998 209.895 307.807 205.104 311.885 200.547L329.32 180.493C322.563 182.106 316.198 185.058 310.6 189.175C305.003 193.291 300.287 198.489 296.731 204.46C297.413 193.444 301.136 182.833 307.485 173.808C310.494 169.208 314.506 165.352 319.22 162.528C323.933 159.703 329.225 157.986 334.698 157.503C333.815 142.488 329.103 127.949 321.01 115.274C313.84 104.35 304.715 95.0561 295.916 84.7842C287.098 74.9318 281.424 62.6679 279.621 49.5661C278.317 33.2614 287.442 16.9568 290.05 -0.326172C277.991 5.38046 275.384 21.196 270.17 33.5875C267.612 38.4896 265.381 43.5551 263.489 48.7509C261.936 54.5496 261.115 60.52 261.045 66.5229C259.9 80.4319 260.228 94.4229 262.022 108.263C264.279 123.416 270.905 137.582 281.087 149.025C276.944 134.348 270.391 120.463 261.696 107.937C257.701 101.564 252.94 95.7051 247.52 90.4908C237.287 82.6124 225.685 76.6974 213.301 73.0448C203.998 69.1567 194.167 66.6836 184.133 65.7077C167.838 65.7077 150.565 71.7404 136.389 64.0772C150.69 68.6796 165.873 69.8524 180.711 67.5012C194.401 68.0522 207.737 72.0079 219.516 79.0109C231.294 86.0138 241.143 95.8432 248.172 107.611C258.718 128.622 264.715 151.623 265.77 175.112C266.68 179.682 266.343 184.414 264.793 188.808C256.658 172.487 245.613 157.789 232.203 145.438C202.385 115.27 169.07 88.7768 132.967 66.5229C139.505 70.0945 145.093 75.1824 149.262 81.3602L213.952 160.438C222.354 169.228 228.406 179.994 231.551 191.743C232.458 199.867 233.873 207.926 235.788 215.874C219.359 190.63 198.024 168.95 173.052 152.122C183.095 169.341 194.541 185.701 207.271 201.036C231.714 238.211 234.321 286.473 258.275 323.974C261.141 327.595 262.946 331.941 263.489 336.528C242.306 324.789 226.011 308.484 205.316 295.114C179.715 276.491 148.425 267.381 116.835 269.353C106.568 271.678 95.9573 272.065 85.5485 270.494C77.193 266.847 68.6538 263.636 59.9655 260.875C81.1429 271.122 103.539 278.628 126.612 283.212C139.622 284.089 151.96 289.314 161.646 298.049C149.529 292.67 135.89 291.803 123.19 295.603C110.515 299.276 97.4331 301.357 84.245 301.799C62.2043 298.04 41.9071 287.429 26.235 271.473C44.1967 286.932 64.2125 299.827 85.7115 309.789C90.5247 312.594 95.6707 314.785 101.029 316.31C107.221 317.778 114.228 320.224 120.42 322.18C85.8154 324.905 51.1548 317.663 20.5319 301.31C33.4351 314.654 49.5336 324.476 67.2983 329.843C76.1615 331.938 85.2408 332.977 94.3478 332.941C105.224 333.164 116.104 332.783 126.938 331.8C143.65 329.233 160.544 328.033 177.452 328.213C185.92 328.345 194.27 330.223 201.98 333.73C209.691 337.236 216.595 342.296 222.263 348.594C220.658 349.758 218.836 350.589 216.905 351.038C214.974 351.486 212.973 351.542 211.019 351.202C198.479 350.817 185.995 353.038 174.356 357.724C162.886 362.789 151.965 369.017 141.766 376.312C128.805 383.731 119.139 395.792 114.716 410.062C109.064 421.104 105.056 432.914 102.821 445.117C117.164 426.042 133.558 408.6 151.706 393.105C149.528 403.929 145.15 414.19 138.843 423.249C132.536 432.309 124.435 439.974 115.042 445.769C107.71 450.172 100.214 452.291 93.2071 457.346C109.781 456.657 125.61 450.264 138.018 439.248C150.365 428.3 160.777 415.346 168.815 400.932C178.592 384.627 189.184 366.692 207.434 362.126C211.87 361.093 216.405 360.547 220.959 360.496C227.803 359.681 240.024 365.55 246.868 361.474Z" fill="#F9DAB5"/>
<path d="M30.4717 145.601C33.0459 150.496 37.173 154.396 42.204 156.688C62.8986 168.753 84.5708 179.025 104.939 191.743C136.638 211.39 164.7 236.379 187.881 265.603C156.757 254.842 131.5 231.037 100.703 219.461C110.58 230.581 121.492 240.736 133.293 249.788C127.796 250.546 122.198 249.93 116.998 247.994C94.5375 241.811 72.7135 233.513 51.818 223.211C58.4005 234.622 68.6963 243.427 80.9859 248.157C91.5324 251.495 102.515 253.254 113.576 253.375L144.536 255.494C150.494 255.743 156.428 256.396 162.297 257.451C170.473 259.406 178.321 262.537 185.599 266.744C218.179 283.756 244.955 310.094 262.511 342.398C245.476 328.811 226.088 318.476 205.316 311.908C195.077 308.395 184.362 306.471 173.541 306.202C150.728 306.202 128.241 315.984 105.428 313.376C121.723 316.474 138.018 318.919 154.313 320.387C171.303 321.353 188.193 323.642 204.827 327.235C221.553 330.86 236.584 339.987 247.52 353.159C216.27 334.713 180.809 324.607 144.536 323.811C170.882 327.408 196.439 335.399 220.144 347.452C221.448 348.268 223.078 350.224 221.937 351.366C221.937 355.768 215.419 358.377 211.019 358.05C200.591 357.235 190.325 354.626 179.896 354.3C161.16 354.341 142.976 360.655 128.241 372.236C113.278 384.02 101.14 399.006 92.7182 416.095C102.137 397.442 116.159 381.504 133.456 369.79C135.841 368.002 138.477 366.573 141.277 365.551C145.005 364.615 148.841 364.177 152.684 364.246C164.069 363.153 175.315 360.913 186.251 357.561L139.974 395.714C127.918 404.103 118.077 415.293 111.294 428.324C130.929 406.261 153.015 386.514 177.126 369.464C172.406 376.548 166.944 383.107 160.831 389.029C157.452 394.957 154.616 401.178 152.358 407.617C143.446 426.279 128.445 441.347 109.828 450.335C129.315 439.582 146.048 424.458 158.713 406.149C164.848 394.06 173.519 383.437 184.133 375.007C194.289 370.108 205.449 367.651 216.723 367.833C227.074 366.855 237.494 366.855 247.846 367.833C256.73 369.726 265.84 370.33 274.895 369.627C283.695 367.996 292.494 360.496 291.19 351.529C292.677 346.224 293.391 340.733 293.309 335.224C298.197 337.67 297.219 345.496 301.456 349.083C303.384 350.244 305.677 350.636 307.881 350.183C310.084 349.73 312.037 348.464 313.351 346.637C315.859 342.768 317.059 338.196 316.773 333.593C317.255 321.829 315.655 310.072 312.048 298.865C308.947 291.274 306.547 283.415 304.878 275.386C304.065 263.144 306.246 250.887 311.233 239.679C307.791 240.886 304.661 242.843 302.068 245.409C299.476 247.975 297.485 251.086 296.242 254.516C290.01 267.163 285.986 280.784 284.346 294.788C283.345 278.015 284.11 261.183 286.628 244.57C281.576 259.733 274.732 274.081 270.333 289.245C264.773 304.188 263.365 320.359 266.259 336.039C266.259 319.735 259.415 303.43 257.134 287.125C255.293 278.956 255.489 270.459 257.706 262.383C259.922 254.308 264.091 246.902 269.844 240.82C261.209 247.871 254.562 257.054 250.561 267.463C246.56 277.872 245.343 289.145 247.031 300.169C235.233 292.696 225.885 281.926 220.144 269.19C213.626 257.288 208.901 244.407 202.872 232.178C188.695 203.645 167.186 179.025 153.987 149.84C145.188 129.622 140.136 106.47 123.679 91.4692L143.558 137.938C147.42 147.624 152.223 156.908 157.898 165.655C162.298 171.851 167.512 177.395 171.912 183.591C177.244 191.46 181.93 199.748 185.925 208.374C193.221 221.232 198.082 235.327 200.265 249.951L154.965 184.732C145.677 171.525 136.389 158.318 126.123 145.764C112.536 131.554 100.667 115.793 90.7628 98.8063C112.489 131.416 134.216 164.025 155.942 196.634C167.031 210.956 175.374 227.209 180.548 244.57C138.803 200.46 87.4441 166.591 30.4717 145.601Z" fill="#F9DAB5"/>
<path d="M258.6 375.007C266.382 374.916 274.148 375.737 281.739 377.453C289.638 380.676 296.71 385.635 302.434 391.964C310.925 399.531 318.623 407.944 325.409 417.073C336.653 433.378 342.845 454.737 359.629 465.987C360.16 463.953 360.185 461.82 359.702 459.773C359.219 457.727 358.243 455.83 356.859 454.248L318.24 392.942C312.6 384.856 308.001 376.092 304.552 366.855C303.028 361.508 301.885 356.059 301.13 350.55C300.745 335.421 295.929 320.737 287.279 308.321C281.483 316.497 276.976 325.515 273.917 335.061C270.879 344.704 271.4 355.118 275.384 364.409C263.395 363.018 251.268 363.348 239.372 365.388C239.861 371.909 252.245 375.007 258.6 375.007Z" fill="#64735C" fill-opacity="0.55"/>
<path d="M293.634 194.677C296.324 189.444 298.559 183.989 300.315 178.373C304.226 169.365 306.277 159.66 306.344 149.84C305.367 132.557 292.494 118.372 286.139 102.23C283.461 94.3683 281.445 86.2967 280.11 78.0991C276.096 95.5272 277.401 113.76 283.857 130.437C288.117 139.698 288.813 150.206 285.813 159.949C282.717 166.144 276.525 170.384 272.94 176.253C270.863 180.091 269.603 184.318 269.239 188.668C268.874 193.017 269.413 197.395 270.822 201.525C271.962 205.275 275.873 219.461 282.065 217.015C283.857 217.015 284.998 209.352 285.813 207.721C287.931 202.667 291.19 198.917 293.634 194.677Z" fill="white" fill-opacity="0.55"/>
</g>
<defs>
<clipPath id="clip0_151_2403">
<rect width="1220" height="1126" fill="white" transform="matrix(-1 0 0 1 1220 0)"/>
</clipPath>
</defs>
</svg>
