<svg width="764" height="604" viewBox="0 0 764 604" fill="none" xmlns="http://www.w3.org/2000/svg">
<path d="M280.189 239.178C275.353 239.603 270.683 241.152 266.553 243.699C262.423 246.247 258.948 249.722 256.404 253.849C257.363 250.192 257.521 246.373 256.868 242.65C256.215 238.927 254.766 235.388 252.62 232.273C250.043 229.582 248.055 226.386 246.782 222.888C246.328 220.109 246.704 217.257 247.863 214.69C253.269 199.91 266.891 188.152 267.54 172.51C260.869 174.665 255.119 178.997 251.215 184.808C247.411 190.654 244.292 196.916 241.917 203.47C239.834 207.329 239.039 211.751 239.647 216.092C234.442 210.475 230.93 203.507 229.515 195.989C228.1 188.471 228.839 180.707 231.646 173.588C235.024 167.771 239.129 162.406 243.863 157.622C248.123 153.406 251.457 148.352 253.654 142.78C255.85 137.208 256.86 131.242 256.62 125.259C241.774 139.18 229.896 155.948 221.7 174.559C217.338 167.925 214.759 160.283 214.209 152.368C213.66 144.452 215.16 136.529 218.565 129.359C213.047 133.632 208.725 139.252 206.017 145.676C203.31 152.101 202.306 159.113 203.104 166.037C205.081 179.912 211.622 192.738 221.7 202.499C218.146 202.33 214.663 201.439 211.466 199.881C208.269 198.323 205.424 196.131 203.104 193.438C204.384 198.598 206.917 203.364 210.481 207.315C214.045 211.266 218.529 214.281 223.538 216.092C227.479 217.077 231.29 218.526 234.89 220.407C238.687 223.632 241.435 227.914 242.782 232.705C244.612 237.869 246.164 243.126 247.431 248.455C248.39 251.967 248.647 255.632 248.188 259.243C246.566 267.765 237.376 273.914 237.376 282.544C235.323 280.608 233.777 278.199 232.873 275.529C231.968 272.859 231.732 270.008 232.187 267.226C232.187 261.616 234.565 256.438 235.43 250.613C236.674 241.94 235.359 233.093 231.646 225.154C227.409 228.056 223.744 231.713 220.835 235.941C218.85 239.86 217.569 244.095 217.051 248.455C215.117 254.248 214.387 260.374 214.908 266.458C215.428 272.543 217.188 278.457 220.078 283.839C225.268 290.959 234.025 294.626 240.187 300.883C238.782 299.481 247.539 282.113 248.512 279.847C249.858 275.215 252.392 271.013 255.864 267.657C267 261.222 275.586 251.169 280.189 239.178Z" fill="#4B5C42" fill-opacity="0.55"/>
<path d="M318.461 331.413L325.596 328.931C331.998 327.326 337.857 324.05 342.57 319.438C345.705 315.986 347.327 311.347 350.678 308.651C348.163 308.926 345.626 308.926 343.111 308.651C340.176 308.991 337.281 309.605 334.461 310.484C328.964 312.113 323.802 314.706 319.218 318.144C315.65 320.733 308.406 325.695 307.541 330.118C305.379 337.669 314.785 332.599 318.461 331.413Z" fill="#4B5C42" fill-opacity="0.55"/>
<path d="M315.974 315.231C318.588 309.816 320.827 304.23 322.677 298.51C323.824 295.585 324.447 292.481 324.515 289.341C324.515 281.034 316.731 274.453 315.974 266.147C316.068 260.349 318.213 254.771 322.028 250.397C325.622 245.988 328.909 241.338 331.867 236.481C334.614 230.245 335.73 223.415 335.11 216.631C333.861 202.659 329.263 189.191 321.704 177.364C314.143 165.592 305.647 154.445 296.297 144.03C298.068 146.844 299.24 149.99 299.742 153.275C300.245 156.559 300.066 159.912 299.216 163.124C297.744 167.326 295.861 171.373 293.595 175.206C287.001 190.211 282.806 206.155 281.162 222.457C279.862 227.627 279.862 233.037 281.162 238.207C283.54 244.787 289.919 248.994 293.595 254.928C294.973 257.754 296.526 260.492 298.243 263.126C301.487 267.657 306.893 270.246 310.46 274.561C314.091 279.467 315.785 285.534 315.217 291.606C314.572 297.427 313.229 303.149 311.217 308.651C308.999 314.371 307.087 320.205 305.487 326.127C304.996 330.638 303.599 335.004 301.379 338.964C306.972 331.523 311.858 323.577 315.974 315.231Z" fill="#4B5C42" fill-opacity="0.55"/>
<path d="M444.952 365.178C447.871 350.723 442.466 334.972 448.196 321.488C455.02 309.678 465.541 300.431 478.143 295.166C484.478 292.614 490.21 288.773 494.976 283.888C499.741 279.003 503.434 273.182 505.82 266.794C507.478 289.2 500.735 311.422 486.9 329.147C482.528 335.591 477.165 341.307 471.008 346.084C463.481 350.143 456.744 355.514 451.115 361.942C447.439 367.551 447.006 375.211 442.466 380.173C439.655 377.908 444.196 368.738 444.952 365.178Z" fill="#4B5C42" fill-opacity="0.55"/>
<path d="M561.607 250.936C562.823 248.311 563.497 245.468 563.59 242.577C563.683 239.686 563.192 236.805 562.147 234.107C560.55 231.177 558.744 228.365 556.742 225.693C554.02 220.157 552.463 214.123 552.165 207.964C551.868 201.805 552.837 195.65 555.012 189.878C558.543 177.847 563.825 166.398 570.688 155.896C574.796 149.532 579.662 141.98 576.959 134.86C582.22 145.329 585.865 156.531 587.77 168.087C588.362 171.875 588.362 175.733 587.77 179.522C586.982 183.719 585.521 187.762 583.446 191.496C576.418 205.412 566.688 219.436 567.877 234.647C568.42 237.571 568.42 240.569 567.877 243.493C567.06 245.452 565.887 247.244 564.418 248.779C561.823 251.907 556.093 256.438 555.661 260.537C558.022 257.587 560.019 254.364 561.607 250.936Z" fill="#4B5C42" fill-opacity="0.55"/>
<path d="M484.198 398.404C474.433 398.491 465.027 402.092 457.71 408.545C455.67 410.422 454.431 413.01 454.25 415.773C454.159 416.053 454.159 416.355 454.25 416.636C454.25 416.636 455.115 416.636 455.656 417.283C458.43 417.953 461.327 417.919 464.085 417.184C466.842 416.449 469.371 415.037 471.44 413.076C474.07 411.211 476.465 409.038 478.576 406.603C479.549 405.632 483.225 398.512 484.198 398.404Z" fill="#6F8C4D" fill-opacity="0.55"/>
<path d="M538.254 395.815C543.865 393.796 548.881 390.409 552.846 385.963C556.811 381.516 559.6 376.152 560.958 370.356C556.042 369.148 550.885 369.336 546.07 370.899C541.256 372.462 536.975 375.338 533.713 379.202C531.53 381.943 529.645 384.909 528.091 388.048L521.172 400.886C521.039 401.115 520.969 401.376 520.969 401.641C520.969 401.906 521.039 402.166 521.172 402.396C523.659 405.416 535.876 396.678 538.254 395.815Z" fill="#6F8C4D" fill-opacity="0.55"/>
<path d="M528.416 294.519C529.405 282.251 533.097 270.354 539.227 259.674C536.524 258.272 533.929 261.508 531.983 263.882C528.308 268.304 522.686 271.109 519.875 276.072C517.423 282.014 516.316 288.424 516.631 294.842C515.507 302.146 513.284 309.238 510.037 315.878C507.962 321.668 504.641 326.934 500.306 331.305C518.577 330.765 525.713 309.298 528.416 294.519Z" fill="#6F8C4D" fill-opacity="0.55"/>
<path d="M56.6113 491.718C68.8284 487.826 79.6961 480.572 87.964 470.79C78.342 475.537 66.9901 472.192 56.3951 473.703C45.711 476.122 35.7709 481.081 27.4208 488.158C33.9605 481.758 38.632 473.703 40.9349 464.857C33.4609 465.417 26.1429 467.279 19.3124 470.358C13.4143 473.754 8.73668 478.915 5.94244 485.111C3.14821 491.306 2.3791 498.223 3.74412 504.879C6.33882 515.667 14.5554 524.513 14.5554 535.408C18.2516 527.682 21.3246 519.674 23.745 511.46C26.3397 503.369 26.5559 500.672 34.5563 497.759C41.7162 495.104 49.0963 493.083 56.6113 491.718Z" fill="#6F8C4D" fill-opacity="0.55"/>
<path d="M-1.33707 683.092H-2.09386L0.284616 687.731C20.6394 677.741 39.6093 665.158 56.7195 650.298L60.2873 647.601C68.8282 652.024 104.614 668.637 132.939 655.583C134.488 656.88 136.293 657.835 138.237 658.388C149.814 660.275 161.674 657.607 171.319 650.945C197.915 636.813 222.565 655.476 231.862 664.106L235.43 660.33C228.742 653.66 220.696 648.503 211.835 645.208C202.975 641.914 193.508 640.559 184.076 641.236C178.749 642.071 173.597 643.785 168.833 646.306C153.048 654.72 144.507 654.828 140.291 653.426C139.429 653.243 138.617 652.875 137.912 652.347L140.831 650.513C171.752 628.291 239.214 589.671 239.863 589.347C254.158 579.719 271.435 575.514 288.568 577.493C305.701 579.472 321.558 587.503 333.272 600.135C345.581 612.502 358.575 624.171 372.193 635.087C372.938 635.757 373.733 636.37 374.571 636.921C390.342 649.695 407.077 661.236 424.628 671.441L427.114 666.803C415.529 660.271 404.338 653.067 393.599 645.227C406.293 647.223 419.287 645.923 431.331 641.452C433.709 640.481 435.115 639.833 435.331 638.215L434.358 635.734L432.736 637.784H430.141C430.173 637.402 430.286 637.031 430.472 636.697C430.659 636.362 430.914 636.07 431.222 635.842C428.303 637.568 397.924 648.032 377.815 633.361C363.513 622.025 349.869 609.887 336.948 597.006C328.831 587.674 318.511 580.508 306.92 576.157C295.33 571.806 282.835 570.407 270.567 572.087C258.644 573.885 247.249 578.227 237.16 584.816C234.133 586.542 168.292 624.299 137.804 646.198C112.398 664.429 74.5581 648.14 63.855 642.962C68.9363 637.244 75.2068 629.909 82.1261 621.386C103.749 596.359 132.507 562.054 143.21 556.66C158.41 545.967 172.596 533.906 185.59 520.629C198.071 508.058 211.518 496.48 225.808 486.001C237.823 478.73 248.44 469.378 257.161 458.384V461.728C262.242 461.728 380.842 449.538 407.221 422.137L418.033 411.35C427.439 414.91 472.089 430.336 495.333 414.37C502.861 409.664 511.328 406.657 520.143 405.557C528.957 404.458 537.906 405.293 546.363 408.005C549.498 415.581 554.594 422.189 561.128 427.155C567.663 432.121 575.401 435.266 583.553 436.269L584.526 431.199C577.782 430.464 571.314 428.12 565.668 424.364C560.023 420.609 555.367 415.553 552.093 409.624C556.958 410.594 561.931 411.673 567.12 412.536C596.095 417.499 602.581 403.043 602.906 402.396L598.149 399.483C598.149 399.483 592.635 410.271 568.093 406.495C563.012 405.74 558.147 404.661 553.498 403.69L549.93 402.935C549.987 402.361 549.987 401.783 549.93 401.209H547.336H545.39C536.538 398.667 527.245 398.036 518.129 399.356C509.014 400.677 500.284 403.92 492.522 408.868C472.522 422.245 433.925 410.163 422.033 405.956L425.06 402.612C448.196 377.368 476.954 345.976 500.739 335.943C524.524 325.911 538.146 299.265 547.336 282.005C549.777 276.981 552.596 272.148 555.768 267.549C564.85 255.683 603.338 216.523 603.662 216.092L599.987 212.424C598.365 214.042 560.958 252.231 551.552 264.313C548.013 269.556 544.904 275.076 542.254 280.818C533.389 297.863 519.875 323.969 498.252 332.707C473.386 343.495 444.196 375.103 420.736 400.67C414.681 407.358 408.951 413.615 403.654 419.117C380.301 443.389 273.918 455.256 258.674 456.874C270.578 442.268 277.609 424.314 278.783 405.524C280.081 368.091 341.489 278.337 365.274 266.363L362.895 261.724C344.192 271.217 303.866 325.587 284.621 368.738C275.107 360 243.971 329.363 243.43 304.012C243.434 292.208 246.212 280.57 251.539 270.03C256.512 259.243 260.728 249.426 255.215 237.667C252.131 231.605 248.513 225.829 244.403 220.407C233.592 206.383 223.538 191.82 227.322 169.273C226.621 169.151 225.902 169.176 225.212 169.348C224.521 169.521 223.875 169.836 223.315 170.273C222.754 170.71 222.292 171.26 221.958 171.887C221.624 172.514 221.425 173.204 221.375 173.912C221.044 192.215 227.779 209.944 240.187 223.428C244.257 228.611 247.874 234.133 250.998 239.933C255.539 249.21 251.863 257.409 247.322 267.657C242.703 276.813 239.739 286.709 238.565 296.892C235.744 296.156 233.216 294.574 231.322 292.361C225.468 283.771 223.11 273.28 224.727 263.018C224.042 262.96 223.352 263.04 222.699 263.255C222.047 263.47 221.444 263.814 220.929 264.268C220.413 264.722 219.995 265.275 219.701 265.895C219.406 266.515 219.24 267.188 219.213 267.873C218.092 278.041 220.873 288.256 226.997 296.46C229.808 299.661 233.616 301.827 237.809 302.609C237.754 303.147 237.754 303.69 237.809 304.228C238.349 333.247 273.918 366.688 281.919 373.916C277.37 383.874 274.519 394.521 273.486 405.416C272.297 440.476 241.917 471.006 223.105 481.901C208.503 492.564 194.766 504.359 182.022 517.177C169.368 530.14 155.543 541.913 140.723 552.345C129.155 558.386 100.83 591.612 78.1259 618.366C67.3146 630.88 58.3412 641.559 52.9356 647.169C37.8945 660.387 21.2173 671.626 3.31178 680.611C0.392731 671.657 -7.49951 642.854 8.50119 625.054C27.7294 603.062 40.4555 576.171 45.2596 547.383L40.0701 546.628C37.9232 558.643 34.2918 570.347 29.2589 581.472C22.664 566.801 5.90649 522.895 29.2589 493.66C60.2873 456.874 85.6938 421.059 85.91 421.059L81.5855 418.038C81.5855 418.038 56.0709 453.422 26.2317 490.316C-3.60744 527.21 22.3396 578.667 26.9885 587.405C21.1011 599.656 13.5724 611.051 4.60913 621.279C-13.7701 642.207 -4.47235 674.354 -1.33707 683.092Z" fill="#6D7B66" fill-opacity="0.55"/>
<path d="M267.972 608.333C262.692 610.237 257.007 610.741 251.474 609.796C245.94 608.85 240.747 606.488 236.403 602.939C234.668 601.544 232.689 600.483 230.565 599.811C228.637 599.433 226.654 599.433 224.727 599.811C196.293 606.607 175.535 632.174 147.318 639.51C175.078 630.646 198.717 612.114 213.915 587.297C210.217 592.99 206.929 598.938 204.077 605.097C211.498 601.772 217.455 595.867 220.835 588.484C224.043 581.102 227.652 573.899 231.646 566.908C233.76 563.467 236.649 560.563 240.083 558.429C243.517 556.294 247.402 554.987 251.431 554.61C247.322 554.61 239.214 568.419 237.268 571.547C235.322 574.676 228.186 584.6 232.619 589.671C237.052 594.741 246.025 594.094 250.998 596.035C257.888 598.1 263.872 602.436 267.972 608.333Z" fill="#6F8C4D" fill-opacity="0.55"/>
<path d="M7.85248 650.405C9.0276 645.546 11.0791 640.94 13.9068 636.813C16.9519 633.43 20.3598 630.392 24.0694 627.751C29.8984 622.566 35.121 616.739 39.6377 610.383C35.0674 608.914 30.244 608.396 25.4652 608.86C20.6864 609.324 16.0536 610.76 11.8527 613.08C26.4134 602.731 39.5054 590.466 50.7733 576.617C56.3278 569.624 60.3521 561.547 62.5866 552.908C64.8212 544.268 65.2164 535.256 63.7468 526.454C57.8138 528.947 52.1607 532.057 46.8812 535.732C43.6515 537.828 40.8003 540.454 38.4484 543.499C36.2249 546.837 34.4783 550.468 33.259 554.287C30.7596 560.851 28.63 567.55 26.8803 574.352C25.6615 581.475 23.705 588.452 21.0422 595.172C18.9925 598.95 16.6425 602.557 14.0149 605.96C10.4472 611.138 7.31192 616.748 4.17664 621.818C-1.37738 630.036 -5.33787 639.22 -7.49954 648.895C-8.25634 655.273 -8.25634 661.719 -7.49954 668.097C-7.49954 674.138 -2.41824 678.885 0.933263 671.657C3.72768 664.741 6.0396 657.64 7.85248 650.405Z" fill="#6F8C4D" fill-opacity="0.55"/>
<path d="M570.688 426.56C572.862 428.916 575.421 430.886 578.256 432.386C581.049 433.523 583.945 434.391 586.905 434.975C598.476 437.447 608.939 443.576 616.744 452.451C620.665 456.956 623.44 462.338 624.832 468.141C626.225 473.944 626.195 479.996 624.744 485.785C620.636 500.24 607.014 509.626 598.797 522.139C600.095 509.734 592.419 498.514 588.743 486.648C586.683 479.653 585.913 472.342 586.472 465.072C587.338 460.305 587.556 455.443 587.121 450.617C585.683 445.981 583.325 441.681 580.186 437.974C577.046 434.267 573.191 431.229 568.85 429.041C562.363 424.619 548.633 416.096 549.498 406.711C552.525 407.574 554.903 411.242 556.958 413.615C561.309 418.162 565.892 422.483 570.688 426.56Z" fill="#4B5C42" fill-opacity="0.55"/>
<path d="M293.162 374.887C298.807 373.899 304.601 374.157 310.136 375.642C321.448 379.566 333.664 380.091 345.272 377.153C349.84 375.061 354.067 372.297 357.814 368.954L371.868 358.166C372.841 357.303 374.139 356.548 375.22 357.087C375.825 357.488 376.251 358.106 376.409 358.813C377.646 362.376 378.045 366.174 377.577 369.915C377.108 373.656 375.784 377.24 373.706 380.389C378.994 377.456 383.634 373.489 387.349 368.726C391.064 363.962 393.778 358.499 395.329 352.664C395.814 350.68 395.814 348.608 395.329 346.623C394.883 344.514 393.917 342.548 392.518 340.906C389.146 336.259 384.644 332.547 379.436 330.118C371.534 327.373 363.078 326.597 354.807 327.857C346.535 329.116 338.697 332.374 331.975 337.346C317.92 346.3 306.46 358.921 292.838 368.414C290.027 370.356 280.297 376.074 283.324 380.281C286.177 377.8 289.533 375.96 293.162 374.887Z" fill="#4B5C42" fill-opacity="0.55"/>
<path d="M34.4482 464.857C33.7633 460.801 32.2945 456.918 30.1236 453.422C26.6315 449.016 22.2946 445.349 17.3663 442.634L-5.87792 427.855C-13.2543 423.947 -19.4785 418.183 -23.9328 411.134C-29.7709 400.346 -25.9869 385.998 -28.906 373.593C-30.0845 369.093 -32.1431 364.87 -34.9634 361.167C-37.7836 357.465 -41.3098 354.355 -45.3391 352.017C-29.8302 351.875 -14.6805 356.675 -2.09398 365.718C10.0816 374.597 20.9926 385.085 30.3399 396.894C38.7727 406.819 47.2055 419.117 44.0702 431.738C42.6647 437.024 39.3132 441.771 38.124 447.165C37.633 454.689 38.4375 462.242 40.5025 469.495C40.5025 471.221 40.5025 485.353 36.2861 482.549C35.0956 476.725 34.48 470.8 34.4482 464.857Z" fill="#4B5C42" fill-opacity="0.55"/>
<path d="M458.899 637.568C456.397 636.081 453.428 635.581 450.574 636.166C449.131 636.437 447.644 636.364 446.234 635.951C444.825 635.539 443.534 634.799 442.466 633.792C441.612 632.35 441.129 630.72 441.061 629.046L439.871 619.445C439.223 614.914 438.682 610.275 438.466 605.744C438.343 600.441 437.946 595.148 437.277 589.886C436.03 583.961 434.183 578.178 431.763 572.626C430.175 569.547 428.009 566.8 425.384 564.535C425.109 563.705 424.642 562.952 424.023 562.333C423.404 561.715 422.648 561.25 421.816 560.975C407.401 553.783 392.986 546.592 378.571 539.4C372.007 536.604 365.83 532.978 360.192 528.612C354.456 524.357 350.584 518.059 349.381 511.028C349.137 507.415 349.392 503.785 350.138 500.24C350.209 496.937 350.955 493.684 352.331 490.679C353.707 487.674 355.683 484.981 358.138 482.764C360.621 481.357 363.273 480.269 366.03 479.528C372.085 477.478 378.679 474.026 384.626 476.615C388.072 478.804 391.139 481.536 393.707 484.706C396.706 487.226 400.057 489.297 403.653 490.855L425.276 501.643C429.466 503.577 433.45 505.926 437.168 508.655C439.223 510.381 441.061 512.215 443.007 513.941C447.196 518.257 451.794 522.159 456.737 525.592C455.952 524.393 455.414 523.052 455.154 521.644C454.894 520.236 454.918 518.791 455.223 517.393C455.994 514.617 457.159 511.965 458.683 509.518C460.571 504.972 462.926 500.634 465.71 496.573C468.096 493.922 470.622 491.402 473.278 489.021L483.116 480.175C486.452 476.818 490.069 473.75 493.928 471.006C497.82 468.525 502.144 466.691 506.144 464.533C510.145 462.376 513.496 460.326 516.956 458.492C526.037 454.177 536.957 452.127 543.119 444.252C543.45 450.06 544.429 455.813 546.038 461.405C546.242 465.035 545.877 468.674 544.957 472.192C544.717 473.777 544.126 475.287 543.227 476.615C542.362 477.91 539.876 480.607 538.362 480.283C553.373 480.443 568.344 481.85 583.121 484.49C592.418 485.637 601.291 489.045 608.96 494.415C610.784 495.694 612.268 497.397 613.284 499.377C614.678 503.285 614.678 507.552 613.284 511.46C607.679 534.325 596.794 555.567 581.499 573.489C586.035 571.07 591.286 570.343 596.311 571.439C601.932 571.979 607.122 572.734 613.068 573.813C623.883 575.062 634.138 579.282 642.691 586.003C644.313 587.513 645.934 589.671 645.178 591.72C644.421 593.77 642.259 594.309 640.312 594.849C634.068 596.797 628.416 600.284 623.879 604.989C618.672 612.101 612.769 618.678 606.257 624.623C601.666 627.337 596.605 629.167 591.337 630.017C586.413 631.147 581.355 631.583 576.31 631.311C570.221 630.463 564.191 629.238 558.255 627.643C551.894 626.406 545.301 627.356 539.551 630.34C546.173 632.07 552.077 635.846 556.417 641.128C558.43 643.996 560.75 646.636 563.336 649.003C568.85 653.21 576.958 652.887 582.472 657.094C585.024 659.705 587.035 662.792 588.389 666.18C589.744 669.568 590.415 673.189 590.364 676.835C580.526 670.255 566.471 672.412 556.633 666.048C552.331 662.256 548.286 658.184 544.525 653.858C538.881 649.117 532.101 645.92 524.848 644.58C517.604 642.962 510.253 642.315 503.225 640.912C498.741 639.731 494.132 639.079 489.495 638.97C486.252 638.97 483.008 639.833 479.765 640.265C476.281 641.212 472.643 641.461 469.062 640.999C465.481 640.536 462.027 639.37 458.899 637.568Z" fill="#FF7A03"/>
<path d="M519.767 467.769C517.181 470.781 514.199 473.43 510.901 475.644C504.124 480.501 497.857 486.031 492.198 492.15C486.559 498.238 482.576 505.666 480.63 513.725C488.239 502.873 497.676 493.419 508.523 485.785C512.631 482.98 516.848 480.391 520.631 477.263C528.58 470.33 535.496 462.303 541.173 453.422C540.148 456.797 538.617 459.997 536.632 462.915C534.254 467.122 531.767 471.221 529.281 475.429C527.07 479.368 524.343 482.996 521.172 486.216C524.853 484.133 528.774 482.503 532.848 481.362C536.976 480.111 541.413 480.34 545.389 482.009C545.389 483.304 542.254 484.49 540.849 484.814C531.592 484.026 522.356 486.55 514.793 491.934C507.478 497.306 500.835 503.536 495.009 510.489C492.477 513.044 490.23 515.865 488.306 518.903C484.174 526.868 482.553 535.893 483.657 544.794C484.734 553.852 484.915 562.993 484.197 572.087C483.023 579.961 479.819 587.395 474.9 593.662C468.737 601.429 459.764 607.686 457.277 617.395C455.439 624.299 454.791 631.743 448.736 635.734C447.868 636.349 446.869 636.755 445.817 636.921C443.115 636.921 441.169 634.224 441.169 631.527C441.418 628.889 442.268 626.343 443.655 624.083C448.776 613.382 450.546 601.39 448.736 589.671C451.292 592.838 453.136 596.517 454.142 600.458C454.551 603.48 455.503 606.404 456.953 609.089C458.575 608.333 458.899 606.176 458.899 604.45C459.029 595.03 458.122 585.624 456.196 576.402C455.005 569.572 452.549 563.023 448.953 557.092C452.251 562.521 454.404 568.565 455.278 574.853C456.151 581.142 455.728 587.542 454.034 593.662C443.223 588.16 440.628 573.921 430.465 568.095C426.248 566.16 421.823 564.712 417.276 563.78C412.827 562.242 408.461 560.478 404.194 558.494C396.152 554.926 387.837 552.004 379.328 549.756C376.656 549.151 374.021 548.395 371.436 547.491C363.18 544.545 356.016 539.165 350.894 532.064C346.963 525.244 345.657 517.229 347.219 509.518C348.394 502.004 350.844 494.744 354.462 488.05C353.489 492.087 353.868 496.331 355.543 500.133C356.671 503.895 358.231 507.515 360.192 510.92C362.044 514.649 364.139 518.252 366.463 521.708C376.707 533.62 390.692 541.719 406.14 544.686C411.472 545.726 416.566 547.737 421.168 550.619C423.979 552.669 426.141 555.474 428.952 557.631C428.584 555.19 427.931 552.801 427.006 550.511C425.168 547.598 423.222 544.686 421.168 541.989C410.028 529.967 396.319 520.602 381.058 514.588C399.5 520.111 416.789 528.919 432.087 540.587C429.802 535.693 426.482 531.35 422.357 527.857C418.681 524.944 414.573 522.679 410.789 519.766C407.005 516.854 403.113 513.078 398.788 510.381C394.886 508.147 390.754 506.339 386.463 504.987C378.581 501.871 370.391 499.593 362.03 498.191C368.886 497.124 375.904 497.907 382.355 500.456C388.41 501.859 394.68 502.182 400.626 503.477C414.814 506.665 427.347 514.912 435.871 526.67C436.628 526.67 436.52 524.944 435.871 524.297L430.141 515.775C428.086 512.843 425.691 510.163 423.006 507.792C420.085 505.553 416.841 503.771 413.384 502.506C406.897 499.809 400.302 497.328 393.707 495.17C413.453 498.569 432.035 506.838 447.763 519.227C450.719 521.064 453.23 523.533 455.115 526.455C456.343 529.213 457.04 532.177 457.169 535.193C457.169 537.782 461.926 539.4 464.521 539.508C464.069 532.006 464.947 524.483 467.116 517.285C468.156 514.525 469.422 511.855 470.9 509.302C472.898 505.367 475.446 501.735 478.467 498.514C481.062 495.925 484.306 493.984 487.225 491.61C493.681 484.977 500.945 479.179 508.847 474.35C512.2 473.341 515.272 471.568 517.821 469.172" fill="#F9DAB5"/>
<path d="M473.386 634.116C471.615 634.897 469.619 635.011 467.77 634.435C465.921 633.86 464.344 632.635 463.332 630.987C462.416 629.358 461.865 627.55 461.715 625.688C461.566 623.826 461.822 621.954 462.467 620.2C463.922 616.627 465.889 613.285 468.305 610.275C476.549 600.865 482.735 589.843 486.468 577.912C488.414 568.634 487.225 559.033 488.414 549.756C489.477 541.583 492.286 533.732 496.65 526.735C501.015 519.737 506.833 513.756 513.712 509.194C530.146 498.406 550.687 497.004 569.499 491.394C558.884 493.437 548.641 497.074 539.119 502.182C531.618 507.491 524.887 513.807 519.118 520.953C514.577 526.239 510.037 531.74 505.604 537.026C503.985 538.753 502.702 540.765 501.82 542.96C501.436 544.063 501.365 545.251 501.613 546.393C501.86 547.534 502.418 548.586 503.225 549.432C507.096 545.766 510.709 541.837 514.037 537.674C533.757 515.846 559.852 500.752 588.635 494.523C561.849 506.416 537.897 523.844 518.361 545.657C516.006 547.638 514.188 550.177 513.073 553.042C511.959 555.908 511.584 559.006 511.983 562.054C512.201 563.055 512.731 563.961 513.496 564.643C516.199 566.908 520.091 564.643 522.578 562.054C545.281 540.479 567.12 516.853 594.797 502.074C566.139 525.468 540.694 552.526 519.118 582.551C517.28 585.032 515.55 588.808 517.929 590.857C520.307 592.907 522.47 591.612 524.524 590.857C529.827 587.605 534.633 583.609 538.795 578.991C550.882 566.427 562.183 553.133 572.634 539.184C565.066 550.511 556.958 563.241 549.065 575.539C568.547 554.689 586.606 532.561 603.122 509.302C587.241 536.775 569.43 563.091 549.822 588.052C559.696 580.609 568.755 572.148 576.85 562.809C571.908 575.076 563.68 585.749 553.065 593.662C537.152 603.707 519.343 610.389 500.739 613.296C491.528 614.584 482.83 618.309 475.549 624.083C473.386 626.133 471.548 629.477 473.17 632.066C497.248 624.953 520.892 616.452 543.984 606.607C549.173 604.657 554.053 601.968 558.471 598.624C561.976 595.629 565.066 592.183 567.661 588.376C574.593 578.025 580.806 567.212 586.256 556.013L602.797 523.65C607.822 515.063 611.47 505.745 613.609 496.033C613.677 509.863 609.937 523.446 602.797 535.3C595.618 546.835 589.847 559.184 585.607 572.087C585.607 569.497 589.499 568.958 592.094 569.174C609.286 570.536 625.828 576.335 640.096 586.003C640.745 586.328 641.32 586.784 641.785 587.341C642.25 587.897 642.595 588.544 642.799 589.239C642.774 590.042 642.486 590.815 641.978 591.439C641.47 592.062 640.771 592.502 639.988 592.691C638.425 593.071 636.794 593.071 635.231 592.691C622.127 590.871 608.804 591.383 595.878 594.201C592.26 595.278 588.933 597.159 586.148 599.703C587.137 599.042 588.259 598.602 589.435 598.416C590.611 598.23 591.813 598.301 592.959 598.624L602.365 599.811C608.3 599.986 614.053 601.9 618.906 605.313L575.012 616.1C587.106 615.234 599.109 613.394 610.906 610.599C600.294 617.356 588.03 621.087 575.445 621.386C562.952 621.688 550.492 622.805 538.146 624.731C536.335 624.957 534.657 625.795 533.389 627.104C532.03 626.497 530.553 626.202 529.064 626.241C528.428 626.272 527.819 626.511 527.331 626.92C526.843 627.329 526.502 627.886 526.362 628.506C526.362 630.232 528.2 631.203 529.821 631.635C537.378 633.017 544.198 637.031 549.065 642.962C550.402 645.414 551.523 647.976 552.417 650.621C554.242 654.262 556.453 657.698 559.012 660.869C559.703 661.951 560.581 662.901 561.606 663.674C562.619 664.36 563.758 664.836 564.958 665.077C569.823 666.587 574.904 667.558 579.661 669.392C584.506 670.986 588.687 674.134 591.554 678.346C587.432 675.416 582.554 673.731 577.499 673.491C573.802 672.609 570.185 671.418 566.688 669.931L554.795 665.292C553.493 664.954 552.301 664.285 551.336 663.351C550.676 662.236 550.167 661.039 549.822 659.791C546.655 652.412 541.488 646.061 534.903 641.452C533.043 639.735 530.927 638.315 528.632 637.244C525.466 636.194 522.12 635.791 518.794 636.058C503.63 636.734 488.436 636.084 473.386 634.116Z" fill="#F9DAB5"/>
<path d="M439.115 582.874C438.65 579.416 437.351 576.121 435.331 573.273C432.163 570.049 428.157 567.77 423.763 566.693L415.005 563.672C419.033 563.323 423.078 564.108 426.682 565.937C435.608 569.283 443.353 575.173 448.953 582.874C451.726 586.745 453.609 591.179 454.468 595.859C455.328 600.539 455.143 605.351 453.926 609.951C452.682 613.705 451.051 617.32 449.061 620.739L438.25 639.294C441.116 631.575 441.863 623.233 440.412 615.129C441.136 604.362 440.701 593.549 439.115 582.874Z" fill="#F9DAB5"/>
<path d="M462.575 633.684L472.846 625.702C476.012 623.111 479.374 620.766 482.9 618.69C485.603 617.287 488.414 616.208 491.117 614.914C504.847 608.225 515.226 595.927 528.956 589.347C506.394 599.572 484.824 611.85 464.521 626.025C479.881 615.593 493.184 602.428 503.766 587.189C495.914 593.66 488.407 600.537 481.278 607.794C487.263 601.084 492.384 593.655 496.522 585.679C497.253 583.054 497.831 580.388 498.252 577.696C502.181 556.755 513.733 538.004 530.686 525.052C519.72 532.306 510.492 541.883 503.658 553.1C498.685 560.436 493.928 567.879 489.387 575.539C484.846 583.198 481.603 589.023 477.278 595.388C472.953 601.806 468.03 607.801 462.575 613.296C461.602 609.196 464.953 605.421 467.764 602.508C473.052 596.574 477.358 589.837 480.522 582.551C481.754 580.07 482.593 577.413 483.008 574.676C483.44 570.532 483.222 566.346 482.36 562.27C481.407 556.75 481.152 551.132 481.603 545.549C482.867 537.992 485.388 530.7 489.063 523.973C492.032 517.06 495.845 510.538 500.414 504.555C510.967 493.232 524.937 485.656 540.2 482.98C532.081 485.532 524.253 488.931 516.848 493.12C512.321 495.982 508.053 499.23 504.09 502.829C500.525 505.725 497.232 508.939 494.252 512.43C491.495 515.833 489.001 519.439 486.792 523.218C477.995 534.869 473.284 549.085 473.386 563.672C471.074 554.237 471.601 544.331 474.9 535.193C478.149 526.1 482.506 517.441 487.873 509.41C492.414 502.29 497.279 495.278 502.144 488.374C487.017 503.729 475.882 522.543 469.71 543.175C468.173 533.707 468.764 524.016 471.44 514.804C473.755 508.354 477.195 502.365 481.603 497.112C487.017 490.201 493.14 483.873 499.874 478.233C482.42 487.907 469.143 503.65 462.575 522.463C460.75 527.184 460.75 532.413 462.575 537.134C457.818 533.035 452.52 527.965 452.953 521.708C452.132 526.751 452.464 531.914 453.926 536.811C454.791 538.753 455.872 540.479 456.737 542.42C458.824 548.744 459.416 555.464 458.467 562.054C450.807 547.277 440.256 534.181 427.438 523.542C432.525 528.424 437.057 533.85 440.952 539.723C445.354 545.097 448.992 551.05 451.764 557.415C452.877 560.442 453.78 563.542 454.466 566.693C456.521 574.891 458.25 583.09 459.764 591.397C461.168 598.823 460.417 606.495 457.602 613.511C456.255 616.398 454.626 619.144 452.737 621.71C448.527 626.714 444.9 632.179 441.925 638L457.494 636.274C460.521 635.626 460.196 635.195 462.575 633.684Z" fill="#D6D0C9" fill-opacity="0.55"/>
<path d="M550.471 659.251L547.66 656.015C544.013 651.059 539.28 647 533.821 644.149C528.473 642.452 522.968 641.295 517.388 640.697C513.712 639.834 510.253 638.431 506.577 637.676C493.279 634.763 479.333 639.834 466.143 637.029C468.089 634.008 471.981 633.145 475.332 631.851C482.36 629.154 488.306 624.083 495.333 621.063C498.36 619.876 501.496 619.121 504.523 618.258C516.199 615.13 527.551 611.246 538.903 607.47C544.309 605.78 549.526 603.539 554.471 600.782C558.292 597.657 562.82 595.51 567.661 594.525C562.078 600.099 555.566 604.662 548.417 608.01C548.417 609.412 550.687 608.549 552.093 608.549C567.12 608.549 582.256 608.01 597.284 607.255C586.856 610.838 575.876 612.554 564.85 612.325C554.598 613.221 544.415 614.77 534.362 616.964C558.255 619.876 583.337 622.357 605.825 613.727C590.54 620.809 573.59 623.535 556.85 621.602C551.795 620.47 546.552 620.47 541.497 621.602C538.186 623.003 535.149 624.975 532.524 627.428L543.335 630.988C537.632 628.828 531.672 627.414 525.605 626.78C514.812 625.508 503.893 625.762 493.171 627.536C501.174 629.651 509.436 630.631 517.713 630.448C526.029 630.299 534.212 632.547 541.281 636.921C545.113 639.644 548.109 643.38 549.93 647.709C551.038 651.138 552.375 654.49 553.93 657.741C557.116 662.268 561.343 665.967 566.255 668.529C568.287 670.108 570.818 670.911 573.391 670.794C572.188 671.003 570.955 670.967 569.766 670.689C568.577 670.411 567.457 669.896 566.472 669.176L551.444 660.978C550.687 661.193 551.12 660.115 550.471 659.251Z" fill="#F9DAB5"/>
<path d="M91.0994 188.475C95.4847 191.314 99.2555 195.001 102.189 199.318C105.123 203.635 107.161 208.495 108.181 213.611C113.492 226.289 114.921 240.253 112.29 253.741C113.514 250.781 115.112 247.99 117.046 245.434C120.851 240.719 125.966 237.229 131.75 235.402C136.301 233.201 141.205 231.813 146.237 231.303C152.338 231.513 158.396 232.418 164.292 234C174.152 235.483 184.231 233.901 193.158 229.469C193.158 229.469 193.158 227.958 193.698 228.174C194.239 228.39 194.239 228.929 194.347 229.361C197.708 240.542 198.666 252.305 197.158 263.881C202.456 260.753 209.591 268.412 214.889 265.284C215.505 264.766 216.254 264.429 217.051 264.313C218.456 264.313 218.889 266.147 219.646 267.334C220.402 268.52 222.997 269.599 224.619 270.786C225.993 271.936 227.03 273.435 227.62 275.125C228.21 276.816 228.331 278.634 227.97 280.387C227.195 283.91 225.804 287.269 223.862 290.311C229.271 290.978 234.755 290.723 240.079 289.556C240.296 293.897 239.747 298.242 238.457 302.394L247.322 296.245C253.161 292.253 259.647 286.967 259.539 279.955C261.593 280.602 262.674 282.868 263.431 284.918C267.85 295.656 270.021 307.184 269.81 318.791C269.754 330.577 265.236 341.906 257.161 350.507C258.655 349.695 260.367 349.373 262.056 349.586C263.744 349.799 265.322 350.536 266.567 351.693C268.727 353.95 270.32 356.686 271.215 359.676C273.851 364.991 275.009 370.915 274.567 376.829C273.157 381.165 270.891 385.174 267.901 388.621C264.911 392.067 261.259 394.881 257.161 396.894C253.094 399.892 248.615 402.29 243.863 404.014C229.484 408.545 214.564 400.67 199.753 398.189C192.599 396.952 185.285 396.952 178.13 398.189C183.666 402.279 189.997 405.17 196.719 406.675C203.44 408.18 210.402 408.265 217.159 406.927C212.803 410.347 207.801 412.856 202.451 414.302C197.1 415.747 191.513 416.101 186.022 415.341C183.146 414.641 180.142 414.641 177.265 415.341C175.864 415.79 174.684 416.751 173.962 418.031C173.24 419.312 173.03 420.817 173.373 422.245C174.346 424.618 177.265 425.481 179.644 426.237C185.481 428.46 190.818 431.818 195.346 436.114C199.874 440.41 203.503 445.559 206.023 451.264C210.983 462.707 213.025 475.196 211.97 487.619C211.978 488.858 211.681 490.081 211.105 491.179C210.216 492.171 209.064 492.89 207.781 493.253C206.499 493.616 205.139 493.607 203.861 493.228C197.832 491.605 192.236 488.675 187.471 484.647C182.706 480.62 178.889 475.594 176.292 469.927C171.182 458.574 165.369 447.549 158.886 436.916L163.859 446.302C161.043 443.339 157.755 440.86 154.129 438.966C150.647 437.734 147.007 437.008 143.318 436.809L114.992 433.896C109.587 433.765 104.289 432.361 99.5322 429.797C96.1166 427.099 93.3246 423.698 91.3468 419.826C89.369 415.953 88.2521 411.701 88.0722 407.358C87.6496 398.687 85.6341 390.167 82.126 382.223C79.0989 377.153 77.0447 372.622 74.1257 367.551C74.8819 372.521 74.8819 377.577 74.1257 382.546C73.5851 384.92 72.0715 388.048 69.6931 387.509C65.9091 374.024 67.6389 358.166 58.2331 347.702C53.6374 343.494 48.7611 339.601 43.6379 336.051C33.8413 325.607 27.927 312.129 26.8804 297.863C26.4873 293.776 25.4663 289.773 23.8532 285.996C23.0462 284.099 21.8039 282.418 20.2266 281.088C18.6492 279.757 16.7807 278.815 14.7717 278.337L39.962 282.436C42.9657 282.575 45.8456 283.672 48.1786 285.565C47.7854 281.222 48.3891 276.847 49.944 272.772C51.4988 268.697 53.9639 265.03 57.152 262.048C60.2872 259.027 63.9631 256.869 67.2065 254.065C72.4096 249.655 76.1742 243.795 78.0177 237.236C78.6479 234.359 79.6282 231.569 80.9368 228.929C82.126 227.095 83.7477 225.693 84.937 223.859C87.5701 219.246 88.3065 213.793 86.9911 208.648C85.7788 203.742 84.8404 198.772 84.1802 193.761C84.0092 192.798 84.0669 191.809 84.3485 190.872C84.6301 189.935 85.1279 189.078 85.8019 188.367C87.2073 187.181 91.64 186.534 91.0994 188.475Z" fill="white" fill-opacity="0.55"/>
<path d="M113.695 424.942C109.898 422.213 105.288 420.845 100.613 421.059C94.5072 420.42 88.4893 419.117 82.6666 417.175C78.5024 415.944 74.6125 413.93 71.2066 411.242C67.4828 407.581 64.9381 402.895 63.8981 397.783C62.8581 392.671 63.3701 387.366 65.3685 382.546C67.8651 377.155 68.8729 371.196 68.2876 365.286C66.0911 357.224 61.0649 350.218 54.1248 345.544C51.6473 343.684 49.4611 341.466 47.638 338.964C46.3772 336.879 45.327 334.675 44.5027 332.383L35.3131 309.082C39.8627 314.665 45.0514 319.697 50.7733 324.077C53.8565 327.517 57.6416 330.26 61.8744 332.12C66.1072 333.981 70.6899 334.917 75.3149 334.865C65.1448 320.384 51.2517 308.906 35.0969 301.638C41.2788 300.169 47.6988 299.995 53.9514 301.128C60.204 302.261 66.1531 304.675 71.4228 308.219C70.8893 305.264 69.6196 302.49 67.7303 300.152C65.8411 297.815 63.3931 295.989 60.6116 294.842C56.9357 293.224 52.2869 292.685 49.8003 289.34C49.0907 287.59 48.8183 285.693 49.0067 283.814C49.195 281.934 49.8384 280.129 50.8814 278.553C55.1558 269.382 61.0938 261.08 68.3957 254.065C76.9366 245.866 87.7479 238.638 90.0182 227.095C90.6706 222.805 90.6706 218.441 90.0182 214.15L88.0722 187.72C92.508 194.007 95.5456 201.167 96.9813 208.721C98.4171 216.275 98.2178 224.048 96.3969 231.518C94.3428 246.729 89.3696 263.881 94.4509 278.013L112.506 259.243C115.645 255.433 119.281 252.059 123.317 249.21C117.675 256.668 114.433 265.658 114.019 274.993C114.019 278.445 116.073 282.436 119.425 282.328C120.957 282.175 122.398 281.532 123.533 280.495L181.482 237.667C170.67 259.998 149.048 275.64 134.561 296.029C133.068 297.714 131.926 299.679 131.202 301.809C130.478 303.939 130.186 306.191 130.344 308.435C153.233 288.956 173.639 266.747 191.104 242.306C185.049 256.546 179.103 270.786 171.752 284.378C165.481 295.813 158.346 306.709 151.21 317.604C146.237 325.371 141.156 333.031 136.182 340.69C149.048 323.322 170.67 310.7 177.265 289.556C179.428 282.544 179.86 275.209 182.563 267.981C184.17 263.932 186.579 260.249 189.646 257.152C192.714 254.055 196.376 251.607 200.413 249.955C204.451 248.303 208.781 247.481 213.145 247.539C217.508 247.596 221.815 248.531 225.808 250.289C226.497 250.481 227.135 250.822 227.677 251.288C228.219 251.754 228.652 252.334 228.943 252.986C229.106 253.848 229.063 254.737 228.819 255.58C228.575 256.423 228.136 257.197 227.538 257.84L215.429 275.64C213.051 279.092 210.888 284.27 214.024 287.075C217.159 289.88 222.673 287.075 225.484 290.419C228.295 293.763 226.24 297.539 223.754 300.344C213.726 309.167 202.429 316.44 190.239 321.919C181.886 327.041 174.555 333.661 168.616 341.445C167.535 342.955 166.562 345.437 168.616 346.3C168.992 346.46 169.397 346.543 169.806 346.543C170.214 346.543 170.619 346.46 170.995 346.3C185.482 341.769 195.32 328.931 207.321 319.762C218.921 311.736 231.536 305.279 244.836 300.56C237.579 308.432 231.266 317.121 226.024 326.45C233.881 321.786 240.678 315.541 245.983 308.112C251.288 300.682 254.984 292.232 256.836 283.299C260.828 284.647 264.153 287.464 266.134 291.174C266.565 293.129 266.565 295.153 266.134 297.108C264.404 315.663 257.377 341.877 239.43 346.731C221.483 351.586 200.077 347.378 181.265 352.772C172.428 357.124 162.488 358.74 152.724 357.411C158.286 348.413 165.133 340.273 173.049 333.246C171.021 333.787 168.873 333.658 166.925 332.881C164.977 332.103 163.332 330.718 162.238 328.931C161.823 328.094 161.276 327.329 160.616 326.666C158.346 325.048 155.643 327.853 154.237 330.334L148.399 341.122C145.163 346.573 142.724 352.458 141.156 358.598C139.848 363.457 139.122 368.454 138.993 373.485C147.803 365 159.238 359.752 171.427 358.598C183.605 357.519 195.867 357.844 207.969 359.569C218.781 360.647 229.592 361.726 239.646 363.776C246.862 364.574 253.6 367.765 258.782 372.837C247.605 375.982 237.192 381.379 228.186 388.695C226.811 389.823 225.859 391.382 225.484 393.118C231.579 388.642 238.805 385.952 246.349 385.351C248.707 385.265 251.055 385.013 253.377 384.596C260.188 382.762 264.188 375.966 270.999 373.808C267.264 382.891 261.364 390.927 253.809 397.218C246.615 401.51 238.574 404.196 230.241 405.093C213.319 407.806 196.236 409.392 179.103 409.839C167.19 408.749 155.251 411.632 145.156 418.038C149.805 416.096 154.67 419.872 159.102 422.245C167.751 426.884 178.346 426.884 186.887 431.738C193.416 435.93 198.713 441.774 202.239 448.675C206.501 455.55 209.435 463.161 210.888 471.114C212.38 479.153 211.043 487.461 207.104 494.631C194.332 491.411 182.951 484.143 174.671 473.918C169.801 469.718 165.83 464.582 162.994 458.816C159.967 451.804 160.508 443.389 156.183 437.24C153.867 434.447 151.004 432.155 147.77 430.504C144.535 428.853 140.997 427.878 137.372 427.639C130.128 426.668 122.776 427.1 115.749 425.589L113.695 424.942Z" fill="#FF7A03"/>
<path d="M218.889 252.446C214.68 249.777 209.757 248.451 204.774 248.643C199.791 248.836 194.985 250.539 190.996 253.525C188.338 256.363 186.148 259.603 184.509 263.126C179.359 272.683 174.739 282.514 170.67 292.577C169.027 297.472 166.927 302.204 164.4 306.709C159.102 313.816 153.284 320.523 146.994 326.774C141.523 333.648 137.546 341.583 135.318 350.075C134.274 356.477 132.115 362.648 128.939 368.307C126.802 370.94 124.491 373.427 122.02 375.75C114.888 383.953 109.384 393.435 105.803 403.69C115.596 391.142 127.944 380.809 142.033 373.371C156.121 365.933 171.63 361.559 187.536 360.539C197.05 359.892 206.672 360.539 216.186 359.353C225.781 358.636 234.798 354.501 241.592 347.702C243.214 345.976 244.512 344.034 246.133 342.416C248.028 340.684 250.052 339.097 252.188 337.669C258.976 331.941 263.614 324.083 265.342 315.382C267.071 306.68 265.787 297.651 261.701 289.772C263.335 297.937 263.736 306.3 262.891 314.584C262.363 318.631 260.982 322.522 258.839 325.999C256.696 329.476 253.84 332.461 250.458 334.757C242.477 338.358 233.81 340.198 225.051 340.151C215.771 341.183 207.005 344.937 199.861 350.938C206.536 340.381 216.208 332.044 227.646 326.99C204.942 329.687 185.698 343.926 165.913 355.253C161.946 357.946 157.302 359.478 152.507 359.676C164.4 344.897 183.536 337.454 195.753 323.106C198.066 320.187 200.558 317.413 203.212 314.799C206.934 311.731 211.087 309.223 215.537 307.356C222.674 303.566 230.17 300.495 237.917 298.186C211.526 302.26 187.151 314.705 168.4 333.678C173.481 323.538 183.103 318.144 190.023 309.082C194.068 303.352 197.682 297.33 200.834 291.067C207.946 277.993 216.31 265.638 225.808 254.173C206.417 268.757 189.231 286.051 174.779 305.522C173.063 308.406 170.441 310.644 167.319 311.887C172.076 302.609 179.428 294.842 184.509 285.781C188.06 277.416 192.253 269.337 197.05 261.616C199.1 257.835 202.382 254.865 206.353 253.198C210.324 251.53 214.746 251.265 218.889 252.446Z" fill="#F9DAB5"/>
<path d="M108.397 427.315L82.126 410.918C81.0223 410.137 79.7721 409.587 78.4502 409.3C73.9094 408.437 69.693 413.507 65.2604 412.32C60.8278 411.134 60.071 406.387 60.1791 402.396C61.4183 392.43 63.7383 382.627 67.0983 373.161C68.7579 368.408 69.3659 363.354 68.8807 358.344C68.3954 353.335 66.8284 348.49 64.2874 344.142C59.7467 337.885 51.7463 334.757 47.8542 327.853C51.2297 332.754 56.018 336.516 61.5846 338.64C69.0444 341.337 77.4772 340.798 84.8288 343.818C87.0196 344.583 88.9621 345.925 90.4507 347.702C91.7346 349.314 92.7228 351.14 93.3698 353.096C95.7482 359.137 98.2348 365.178 100.613 371.111C101.191 364.64 100.189 358.126 97.6943 352.125C94.2347 345.221 85.8018 342.308 80.9368 336.267C79.3318 334.072 77.8866 331.764 76.6123 329.363C74.3817 325.994 71.9634 322.752 69.3687 319.654L58.5574 305.954C62.9381 307.204 67.0229 309.318 70.5698 312.172C74.1168 315.025 77.0538 318.56 79.207 322.567C79.2604 315.183 77.2378 307.933 73.3689 301.638C71.3789 298.684 68.7752 296.192 65.7345 294.331C62.6939 292.469 59.2874 291.282 55.7465 290.851C56.6505 280.949 60.1559 271.46 65.9091 263.342C71.3245 256.532 77.0986 250.015 83.2071 243.816C89.4229 237.429 93.5345 229.299 94.9914 220.515C96.2888 209.727 90.6669 198.939 89.2615 187.289C97.1537 191.388 98.4511 201.744 101.694 210.051C102.992 213.503 104.722 216.739 105.695 220.299C106.594 224.187 106.957 228.179 106.776 232.166C107.075 241.234 106.423 250.309 104.83 259.243C102.878 269.19 98.157 278.387 91.2075 285.781C94.3057 276.227 98.983 267.257 105.046 259.243C107.846 255.239 111.153 251.613 114.884 248.455C121.904 243.4 129.832 239.737 138.237 237.667C144.474 235.311 151.037 233.928 157.697 233.568C168.508 233.568 179.319 238.315 189.374 233.568C179.816 236.334 169.733 236.778 159.967 234.863C150.853 234.722 141.851 236.884 133.799 241.146C125.747 245.409 118.905 251.634 113.911 259.243C106.403 272.893 101.837 287.958 100.505 303.472C99.6372 306.468 99.6372 309.647 100.505 312.642C106.208 302.053 113.791 292.586 122.885 284.702C143.427 265.505 166.182 248.811 190.671 234.97C186.158 237.098 182.254 240.326 179.319 244.356L134.885 295.166C129.049 300.713 124.731 307.657 122.344 315.339C121.601 320.697 120.481 325.996 118.992 331.197C130.59 314.937 145.285 301.117 162.238 290.527C155.25 302 147.254 312.83 138.345 322.89C121.263 346.839 118.344 378.663 101.478 402.935C99.4715 405.218 98.1588 408.025 97.6943 411.026C111.533 403.367 123.749 393.01 137.264 384.704C154.756 373.014 175.775 367.752 196.726 369.817C203.447 371.638 210.451 372.187 217.375 371.435C222.965 368.984 228.707 366.894 234.565 365.178C220.329 371.212 205.407 375.486 190.131 377.908C181.512 378.185 173.227 381.295 166.562 386.754C174.812 383.579 183.916 383.389 192.293 386.214C200.526 389.058 209.111 390.764 217.808 391.284C232.576 389.455 246.367 382.952 257.161 372.73C244.878 382.541 231.311 390.635 216.835 396.786C213.56 398.443 210.117 399.745 206.564 400.67C202.347 401.425 197.591 402.827 193.482 404.014C216.618 404.877 240.295 404.014 260.188 392.687C251.232 401.164 240.254 407.217 228.295 410.271C222.348 411.406 216.288 411.841 210.24 411.565C203.23 411.513 196.228 411.081 189.266 410.271C178.249 408.144 167.076 406.917 155.859 406.603C150.23 406.485 144.636 407.525 139.428 409.659C134.22 411.794 129.508 414.977 125.587 419.009C126.639 419.812 127.84 420.397 129.121 420.73C130.402 421.064 131.737 421.139 133.047 420.951C141.359 421.072 149.559 422.87 157.156 426.237C164.61 429.862 171.674 434.235 178.238 439.29C181.195 441.279 183.947 443.556 186.455 446.086C190.385 450.888 193.39 456.374 195.32 462.268C198.728 469.741 201.057 477.659 202.239 485.785C193.312 472.888 183.018 460.989 171.535 450.293C172.726 457.47 175.385 464.325 179.346 470.431C183.308 476.537 188.488 481.764 194.563 485.785C199.212 488.913 204.185 490.531 208.726 493.983C197.731 493.185 187.363 488.566 179.428 480.93C171.533 473.382 164.923 464.601 159.859 454.932C153.697 444.144 147.21 431.738 135.318 428.286C132.375 427.548 129.372 427.079 126.344 426.884C121.155 426.56 112.938 430.12 108.397 427.315Z" fill="#F9DAB5"/>
<path d="M257.161 289.988C255.348 293.146 252.533 295.613 249.16 297C235.106 304.443 220.51 310.7 206.672 318.575C185.189 330.846 165.958 346.679 149.805 365.394C170.778 359.029 188.077 343.818 208.726 337.022C202.165 344.112 194.923 350.544 187.104 356.224C190.529 356.837 194.053 356.614 197.374 355.577C212.21 351.926 226.684 346.943 240.619 340.69C235.932 348.113 228.774 353.651 220.402 356.332C213.365 358.276 206.08 359.185 198.78 359.029L178.346 359.569C174.4 359.619 170.463 359.944 166.562 360.539C161.063 361.607 155.747 363.46 150.778 366.041C128.822 376.669 110.559 393.615 98.3429 414.694C109.966 406.071 123.088 399.67 137.047 395.815C144.068 393.772 151.357 392.79 158.67 392.903C173.806 392.903 188.509 400.562 203.645 399.267C192.833 400.993 182.022 402.18 170.67 402.827C159.393 402.983 148.147 404.066 137.047 406.064C125.851 408.015 115.643 413.678 108.073 422.137C129.188 410.542 152.95 404.596 177.049 404.877C159.484 406.501 142.331 411.136 126.344 418.577C125.371 418.577 124.29 420.303 125.047 421.058C125.047 423.971 129.155 425.913 132.074 425.805C138.993 425.805 145.913 424.079 152.832 424.079C165.534 424.382 177.747 429.028 187.428 437.24C197.044 445.421 204.724 455.626 209.915 467.122C204.153 454.554 195.257 443.672 184.076 435.514C182.535 434.299 180.823 433.318 178.995 432.601C176.571 431.884 174.063 431.485 171.535 431.415C164.166 430.392 156.921 428.62 149.913 426.129L179.536 452.559C187.077 458.544 193.081 466.236 197.05 474.997C184.479 459.881 170.265 446.205 154.67 434.22C157.496 438.993 160.792 443.474 164.508 447.596C166.718 451.519 168.563 455.636 170.022 459.894C175.386 472.482 184.93 482.844 197.05 489.237C184.592 481.532 174.026 471.137 166.13 458.816C162.245 450.697 156.638 443.52 149.696 437.779C143.036 434.241 135.619 432.354 128.074 432.278C121.255 431.493 114.378 431.349 107.532 431.846C101.585 432.759 95.533 432.759 89.5857 431.846C86.5767 431.451 83.8164 429.972 81.825 427.687C79.8335 425.402 78.7485 422.468 78.7744 419.44C77.8778 415.919 77.5494 412.277 77.8014 408.653C74.4499 410.163 74.8824 415.341 71.9633 417.606C70.6629 418.337 69.1316 418.542 67.684 418.181C66.2363 417.82 64.9822 416.92 64.1792 415.665C62.6144 413.073 61.9318 410.045 62.2332 407.034C62.2615 399.205 63.6139 391.437 66.2333 384.057C68.4794 379.166 70.2533 374.073 71.5309 368.846C72.3996 360.754 71.2866 352.573 68.2875 345.005C70.5204 345.898 72.5298 347.268 74.1737 349.02C75.8176 350.773 77.056 352.864 77.8014 355.146C81.6021 363.686 83.941 372.802 84.7206 382.115C85.8561 370.996 85.8561 359.791 84.7206 348.673C87.6397 358.706 91.8561 368.414 94.667 378.555C98.2318 388.746 98.9053 399.722 96.6131 410.271C97.478 399.483 101.911 388.695 103.857 377.908C105.271 372.566 105.35 366.96 104.087 361.581C102.824 356.201 100.258 351.214 96.6131 347.055C102.098 351.979 106.23 358.222 108.614 365.19C110.999 372.157 111.557 379.618 110.235 386.861C118.22 382.218 124.681 375.36 128.831 367.12C133.48 359.353 136.831 350.938 141.156 343.063C151.21 324.508 166.238 308.866 175.427 289.772C181.806 276.611 185.698 261.4 197.05 252.015C192.293 262.048 187.428 272.188 182.563 282.221C179.817 288.598 176.411 294.672 172.4 300.344C169.373 304.335 165.805 307.787 162.67 311.779C158.923 316.837 155.63 322.216 152.832 327.853C147.553 336.119 143.885 345.306 142.02 354.93L173.698 313.181C180.184 304.659 186.671 296.137 193.807 288.154C203.23 278.97 211.507 268.683 218.456 257.517C203.393 279.092 188.149 300.2 172.725 320.841C165.097 330.028 159.2 340.517 155.318 351.801C184.042 323.646 218.895 302.491 257.161 289.988Z" fill="#D6D0C9" fill-opacity="0.55"/>
<path d="M100.505 436.053C95.3639 435.871 90.2179 436.233 85.153 437.132C79.8169 439.067 74.9791 442.162 70.9902 446.194C65.1961 451.004 59.9074 456.389 55.2058 462.268C47.3135 473.055 42.6647 486.648 31.3128 493.444C30.1236 490.963 31.3128 488.05 33.367 485.785L60.6114 446.194C64.5011 440.962 67.7326 435.274 70.2335 429.257C71.4513 425.748 72.3558 422.138 72.9363 418.469C73.5791 408.493 77.1512 398.925 83.207 390.961C86.8553 396.51 89.6266 402.586 91.4236 408.976C93.1923 415.447 92.5786 422.336 89.6938 428.394C97.6531 427.703 105.671 428.212 113.479 429.904C112.83 434.435 104.613 435.838 100.505 436.053Z" fill="#64735C" fill-opacity="0.55"/>
<path d="M81.6935 315.878C79.9481 312.436 78.5711 308.82 77.5852 305.091C75.1929 299.053 74.0527 292.594 74.2337 286.104C75.3148 274.669 84.1801 265.715 88.8289 255.143C90.8318 250.009 92.3519 244.7 93.3697 239.285C95.444 250.587 94.1664 262.248 89.6938 272.835C86.691 278.851 85.9618 285.745 87.6397 292.253C90.1354 296 92.8426 299.601 95.7482 303.041C96.999 305.652 97.7106 308.487 97.8406 311.379C97.9706 314.27 97.5164 317.157 96.505 319.87C95.7482 322.351 92.721 331.52 88.7208 329.794C87.6397 329.255 86.991 324.724 86.4505 323.538C85.2612 321.272 83.099 318.683 81.6935 315.878Z" fill="white" fill-opacity="0.55"/>
<path d="M573.715 1.41632C578.309 4.06311 582.322 7.60443 585.516 11.8298C588.711 16.0551 591.021 20.8782 592.311 26.0123C598.047 38.485 600.001 52.3597 597.932 65.9269C599.04 62.9431 600.53 60.1148 602.365 57.5125C605.9 52.4957 610.932 48.7205 616.744 46.7247C621.175 44.2974 626.01 42.6894 631.015 41.9781C637.092 41.9664 643.15 42.6542 649.07 44.0278C659.004 45.1164 669.036 43.1597 677.828 38.4182C677.828 38.4182 677.828 36.9079 677.828 37.1237C678.041 37.2454 678.221 37.417 678.353 37.6237C678.485 37.8305 678.564 38.0661 678.585 38.3103C682.368 49.3273 683.768 61.0191 682.693 72.6152C687.882 69.3789 695.342 76.7146 700.531 73.3704C701.108 72.8554 701.821 72.5181 702.586 72.3995C703.991 72.3995 704.532 74.1255 705.288 75.2043C706.045 76.2831 708.64 77.3618 710.37 78.4406C711.793 79.5615 712.886 81.0456 713.533 82.7358C714.18 84.426 714.357 86.2593 714.046 88.0417C713.455 91.5847 712.209 94.9869 710.37 98.0743C715.738 98.76 721.183 98.5412 726.479 97.427C726.898 101.921 726.495 106.454 725.289 110.804L733.938 104.331C739.668 100.016 745.939 94.6222 745.506 87.5023C747.669 88.0417 748.858 90.3071 749.615 92.3568C754.45 102.935 757.063 114.39 757.291 126.014C757.455 137.72 753.167 149.053 745.29 157.73C746.762 156.868 748.465 156.477 750.166 156.612C751.868 156.747 753.487 157.401 754.804 158.485C757.062 160.724 758.765 163.457 759.777 166.468C762.635 171.644 764.019 177.501 763.777 183.405C762.532 187.764 760.427 191.832 757.587 195.37C754.747 198.908 751.228 201.845 747.236 204.01C743.329 207.208 738.954 209.791 734.263 211.669C720.1 216.739 704.856 209.403 689.828 207.57C682.613 206.678 675.296 207.043 668.206 208.648C673.897 212.525 680.339 215.171 687.116 216.415C693.893 217.66 700.857 217.476 707.559 215.876C703.332 219.459 698.426 222.155 693.132 223.805C687.838 225.454 682.265 226.023 676.747 225.477C673.814 225.093 670.833 225.313 667.99 226.124C666.609 226.616 665.469 227.617 664.806 228.921C664.142 230.226 664.005 231.734 664.422 233.136C665.503 235.51 668.314 236.265 670.8 237.02C676.717 238.989 682.177 242.124 686.857 246.238C691.536 250.351 695.341 255.361 698.045 260.969C703.499 272.208 706.027 284.636 705.397 297.108C705.562 298.107 705.448 299.133 705.067 300.072C704.686 301.01 704.052 301.826 703.236 302.429C702.42 303.031 701.452 303.397 700.441 303.486C699.43 303.575 698.414 303.384 697.504 302.933C691.42 301.541 685.718 298.827 680.803 294.986C675.889 291.145 671.883 286.271 669.071 280.71C663.488 269.582 657.28 258.777 650.475 248.347L655.773 257.625C652.855 254.75 649.451 252.413 645.718 250.72C642.468 249.447 639.04 248.682 635.556 248.455L607.122 246.621C601.994 246.452 596.954 245.24 592.311 243.061C588.791 240.468 585.87 237.153 583.744 233.338C581.618 229.523 580.336 225.297 579.986 220.946C579.257 212.282 576.911 203.83 573.066 196.027C569.931 191.064 567.661 186.641 564.526 181.679C565.337 186.645 565.337 191.708 564.526 196.674C564.526 199.155 562.796 202.284 560.309 201.852C555.985 188.475 557.174 172.509 547.444 162.477C542.618 158.584 537.564 154.981 532.308 151.689C522.124 141.62 515.712 128.368 514.145 114.148C513.59 110.077 512.424 106.113 510.685 102.389C509.79 100.557 508.487 98.9539 506.875 97.7012C505.264 96.4486 503.387 95.5799 501.388 95.1616L526.578 98.29C529.585 98.2978 532.507 99.2824 534.903 101.095C534.404 96.77 534.873 92.3887 536.275 88.2663C537.677 84.1438 539.978 80.3828 543.011 77.254C546.038 74.1255 549.714 71.8601 552.849 68.9474C557.836 64.2939 561.366 58.299 563.012 51.6871C563.446 48.863 564.245 46.1071 565.39 43.4884C566.472 41.6545 567.985 40.1442 569.174 38.3103C570.486 35.9058 571.297 33.2612 571.557 30.5358C571.817 27.8104 571.521 25.0607 570.688 22.4524C569.607 17.2743 567.553 12.204 567.012 7.02593C566.837 6.07902 566.872 5.1052 567.114 4.17321C567.357 3.24122 567.802 2.37377 568.418 1.63208C569.823 0.33755 574.148 -0.417591 573.715 1.41632Z" fill="white" fill-opacity="0.55"/>
<path d="M605.284 236.912C601.449 234.379 596.904 233.132 592.31 233.352C586.193 232.923 580.14 231.838 574.255 230.116C570.047 229.042 566.084 227.174 562.579 224.614C558.739 221.078 556.033 216.487 554.802 211.419C553.571 206.351 553.869 201.033 555.66 196.135C557.983 190.696 558.768 184.727 557.93 178.874C555.345 171.138 550.098 164.564 543.119 160.319C540.582 158.539 538.324 156.394 536.416 153.955C534.99 151.954 533.827 149.778 532.956 147.482L522.902 124.612C527.485 129.934 532.632 134.745 538.254 138.96C541.49 142.207 545.379 144.733 549.666 146.37C553.952 148.006 558.538 148.716 563.12 148.453C552.435 134.35 538.128 123.391 521.713 116.737C527.837 115.035 534.25 114.626 540.542 115.536C546.834 116.447 552.867 118.656 558.255 122.023C557.654 119.133 556.355 116.434 554.471 114.159C552.587 111.884 550.174 110.103 547.443 108.97C543.768 107.567 539.119 107.244 536.632 103.9C535.85 102.185 535.5 100.306 535.613 98.4253C535.726 96.5449 536.299 94.7207 537.281 93.1119C541.218 83.7744 546.864 75.2505 553.93 67.9765C562.039 59.4542 572.634 51.795 574.688 40.2521C575.34 35.9616 575.34 31.5974 574.688 27.3068C573.607 18.5688 572.634 9.72286 571.661 0.98481C582.472 11.7725 583.121 29.1408 581.715 44.1357C580.31 59.1306 575.769 76.4988 581.715 90.5229L597.932 70.5656C601.021 66.4898 604.659 62.8596 608.743 59.7779C603.046 67.5929 599.911 76.976 599.77 86.6393C599.77 89.9835 602.149 93.8671 605.5 93.6513C606.987 93.3834 608.371 92.7115 609.5 91.7095L665.827 47.4799C655.34 70.4577 634.799 86.6393 621.176 108.215C619.752 109.95 618.684 111.948 618.035 114.095C617.385 116.243 617.167 118.497 617.392 120.728C639.607 100.322 659.15 77.1967 675.557 51.9028C670.152 66.3584 664.746 80.8139 657.827 95.0537C652.097 106.704 645.286 117.924 638.583 129.035L624.744 152.336C637.285 133.997 658.151 120.621 663.989 99.2609C665.827 92.2489 666.043 84.8054 668.422 77.6855C669.855 73.4844 672.138 69.6222 675.131 66.3391C678.123 63.0559 681.76 60.422 685.816 58.6008C689.872 56.7797 694.26 55.8104 698.707 55.7531C703.154 55.6957 707.565 56.5516 711.667 58.2676C712.964 58.2676 714.478 59.5621 714.91 60.8566C715.087 61.7203 715.072 62.612 714.866 63.4692C714.661 64.3265 714.27 65.1285 713.721 65.819C709.937 71.8601 706.045 77.9012 702.261 84.0502C699.991 87.6102 698.045 92.7883 701.288 95.4852C704.531 98.1821 709.937 95.4852 712.856 98.3979C715.775 101.311 713.829 105.518 711.559 108.43C701.952 117.655 691.02 125.4 679.125 131.408C670.599 136.911 663.159 143.932 657.178 152.121C656.097 153.631 655.232 156.22 657.178 156.975C657.554 157.135 657.958 157.218 658.367 157.218C658.776 157.218 659.181 157.135 659.557 156.975C673.827 151.905 683.233 138.636 694.909 129.035C706.121 120.523 718.407 113.523 731.452 108.215C724.526 116.342 718.576 125.248 713.721 134.753C721.425 129.747 727.992 123.187 733.001 115.495C738.01 107.802 741.349 99.149 742.803 90.0914C744.828 90.6528 746.721 91.6094 748.372 92.9055C750.024 94.2017 751.402 95.8119 752.425 97.6428C752.804 99.5662 752.804 101.545 752.425 103.468C751.452 122.131 745.398 148.561 727.56 154.063C709.721 159.564 688.315 156.22 669.719 162.261C660.421 165.282 650.907 170.783 641.394 168.087C646.531 158.811 653.057 150.371 660.746 143.059C658.775 143.652 656.667 143.605 654.724 142.927C652.782 142.248 651.105 140.973 649.934 139.283C649.54 138.406 648.948 137.63 648.205 137.018C645.826 135.508 643.231 138.42 642.042 140.901C640.853 143.383 638.366 148.237 636.637 151.689C633.567 157.275 631.31 163.268 629.934 169.489C628.89 174.382 628.383 179.374 628.42 184.376C637.042 175.417 648.498 169.701 660.854 168.194C672.958 166.792 685.184 166.792 697.288 168.194C707.963 168.661 718.608 169.669 729.181 171.215C736.416 171.735 743.268 174.659 748.641 179.522C737.573 183.015 727.342 188.744 718.586 196.35C717.303 197.537 716.4 199.076 715.991 200.773C721.884 196.124 728.961 193.21 736.425 192.359C738.79 192.166 741.138 191.806 743.452 191.28C750.155 189.231 754.263 182.218 760.642 179.414C757.038 188.726 751.211 197.02 743.668 203.578C736.678 208.122 728.785 211.102 720.532 212.316C703.727 215.678 686.715 217.912 669.611 219.005C657.635 218.312 645.768 221.614 635.88 228.39C640.529 226.34 645.61 229.9 650.151 232.166C658.908 236.481 669.503 236.049 678.152 240.58C684.853 244.48 690.38 250.106 694.153 256.869C698.621 263.42 701.845 270.733 703.667 278.445C705.64 286.495 704.682 294.983 700.964 302.394C688.32 299.558 676.94 292.706 668.53 282.868C663.466 278.906 659.272 273.949 656.205 268.304C654.354 260.881 651.784 253.655 648.529 246.729C646.133 244.005 643.193 241.811 639.898 240.288C636.603 238.764 633.024 237.945 629.393 237.883C622.149 237.236 614.906 237.883 607.77 236.696L605.284 236.912Z" fill="#FF7A03"/>
<path d="M703.775 60.6409C699.48 58.1166 694.511 56.9699 689.542 57.3558C684.572 57.7417 679.842 59.6416 675.99 62.7984C673.428 65.6639 671.38 68.9482 669.935 72.5074C665.156 82.3091 660.897 92.3556 657.178 102.605C655.702 107.549 653.784 112.351 651.448 116.953C646.43 124.237 640.902 131.158 634.907 137.665C629.658 144.682 625.972 152.737 624.096 161.29C623.361 167.729 621.456 173.98 618.474 179.737C616.449 182.499 614.207 185.096 611.771 187.504C604.907 196.009 599.667 205.699 596.311 216.092C605.563 203.056 617.494 192.138 631.308 184.065C645.122 175.992 660.502 170.949 676.422 169.273C685.936 168.302 695.558 168.626 704.964 167.008C714.538 165.93 723.403 161.45 729.938 154.386C731.452 152.66 732.641 150.718 734.263 148.992C736.109 147.225 738.058 145.568 740.101 144.03C746.681 138.059 751.027 130.029 752.422 121.264C753.818 112.499 752.179 103.521 747.777 95.8088C749.766 103.921 750.532 112.283 750.047 120.621C749.801 124.827 748.651 128.931 746.673 132.654C744.696 136.377 741.938 139.632 738.587 142.196C730.709 146.117 722.086 148.323 713.289 148.669C704.177 149.729 695.592 153.486 688.639 159.456C694.804 148.576 704.161 139.842 715.451 134.429C692.855 137.989 674.152 152.984 654.8 164.958C650.966 167.849 646.396 169.606 641.61 170.028C652.421 154.71 671.773 146.511 683.774 131.84C686.152 128.927 688.315 125.799 690.909 123.21C694.581 120.036 698.652 117.352 703.018 115.227C709.904 111.261 717.142 107.938 724.641 105.302C698.596 110.455 674.926 123.892 657.178 143.598C661.827 132.811 671.233 127.525 677.72 118.139C681.408 112.272 684.66 106.143 687.45 99.8003C694.145 86.4478 702.109 73.7679 711.235 61.9354C692.36 77.2521 675.793 95.1999 662.043 115.227C660.524 118.197 657.995 120.53 654.908 121.807C659.232 112.422 666.368 104.439 671.017 95.1616C674.337 86.7047 678.238 78.4865 682.693 70.5656C687.558 63.1221 695.342 57.2967 703.775 60.6409Z" fill="white" fill-opacity="0.55"/>
<path d="M600.095 239.501L573.174 224.183C572.042 223.383 570.752 222.832 569.39 222.565C564.85 221.917 560.85 227.095 556.309 226.125C551.768 225.154 551.011 220.407 551.011 216.416C551.801 206.414 553.723 196.535 556.741 186.965C558.239 182.154 558.667 177.074 557.995 172.081C557.323 167.087 555.567 162.3 552.849 158.054C547.984 152.013 540.092 148.884 535.875 142.412C539.425 147.085 544.333 150.551 549.93 152.337C557.498 154.71 565.823 153.955 573.283 156.652C575.508 157.363 577.516 158.625 579.121 160.319C580.431 161.91 581.489 163.693 582.256 165.605C584.851 171.539 587.445 177.472 590.148 183.405C590.455 176.886 589.233 170.385 586.58 164.419C582.796 157.623 574.256 155.033 569.174 149.208C567.466 147.092 565.913 144.857 564.525 142.52C562.19 139.211 559.663 136.041 556.957 133.027L545.389 119.758C549.873 120.825 554.096 122.778 557.81 125.502C561.524 128.226 564.653 131.665 567.012 135.616C566.559 128.327 564.089 121.306 559.877 115.335C557.88 112.292 555.218 109.74 552.091 107.871C548.964 106.003 545.453 104.866 541.822 104.547C542.407 94.6124 545.534 84.9932 550.903 76.6067C555.66 69.379 561.714 63.23 567.553 56.4337C573.403 49.9151 577.168 41.8008 578.364 33.1322C579.229 22.3445 573.174 11.5568 571.445 0.121794C579.445 3.8975 581.175 14.3616 584.634 22.5602C586.331 25.8037 587.812 29.1551 589.067 32.5928C590.097 36.4294 590.642 40.3797 590.689 44.3514C591.448 53.5541 591.231 62.811 590.04 71.968C588.543 81.9941 584.147 91.3667 577.391 98.9373C580.14 89.2269 584.488 80.04 590.256 71.7522C592.907 67.5358 596.066 63.6594 599.662 60.2094C606.451 54.9967 614.149 51.0832 622.366 48.6665C628.538 46.094 635.061 44.4577 641.718 43.8121C652.529 43.8121 663.989 47.8035 673.395 42.7333C663.906 45.7783 653.833 46.5544 643.988 44.9987C634.905 45.3633 626.057 47.9805 618.242 52.6139C610.428 57.2473 603.893 63.7507 599.23 71.5365C592.232 85.4382 588.254 100.657 587.553 116.198C586.95 119.221 587.174 122.352 588.202 125.259C593.599 114.461 600.927 104.736 609.825 96.564C629.608 76.6039 651.712 59.0753 675.665 44.3514C671.327 46.7145 667.62 50.0808 664.854 54.1683L621.933 106.489C616.359 112.305 612.344 119.428 610.257 127.201C609.655 132.576 608.717 137.909 607.446 143.167C618.347 126.465 632.502 112.12 649.07 100.987C642.406 112.379 634.813 123.204 626.366 133.35C610.149 157.946 608.419 189.878 592.527 214.69C590.625 217.085 589.427 219.961 589.067 222.996C603.122 215.229 613.933 204.441 627.663 195.595C644.649 183.273 665.409 177.246 686.369 178.551C693.18 180.089 700.22 180.345 707.126 179.306C712.67 176.892 718.335 174.768 724.1 172.941C710.049 179.721 695.19 184.687 679.882 187.72C671.25 188.301 663.064 191.758 656.638 197.537C664.677 193.978 673.726 193.404 682.152 195.919C690.562 198.349 699.241 199.726 707.991 200.018C722.615 197.531 736.081 190.51 746.479 179.953C734.562 190.182 721.282 198.713 707.018 205.304C703.825 207.161 700.41 208.61 696.855 209.619C692.747 210.59 688.098 212.208 683.99 213.503C706.949 215.306 729.946 210.514 750.263 199.695C741.702 208.524 731.021 215.022 719.235 218.573C713.354 219.959 707.33 220.647 701.288 220.623C694.072 220.77 686.854 220.518 679.666 219.868C668.577 218.169 657.368 217.376 646.151 217.494C640.532 217.582 634.992 218.824 629.876 221.144C624.761 223.465 620.18 226.813 616.42 230.979C617.484 231.75 618.693 232.299 619.974 232.596C621.256 232.892 622.583 232.93 623.879 232.705C632.2 232.45 640.482 233.92 648.205 237.02C655.815 240.371 663.06 244.492 669.827 249.318C678.426 254.227 684.84 262.207 687.774 271.649C691.524 278.954 694.183 286.768 695.666 294.842C686.15 282.221 675.273 270.681 663.232 260.429C664.677 267.591 667.582 274.38 671.767 280.374C675.951 286.368 681.326 291.44 687.558 295.274C692.423 298.186 697.396 299.589 702.045 302.933C691.048 302.477 680.547 298.247 672.314 290.959C664.122 283.715 657.214 275.145 651.881 265.608C645.394 254.82 638.366 242.953 626.258 239.933C623.315 239.249 620.306 238.888 617.284 238.854C612.744 238.315 604.635 242.198 600.095 239.501Z" fill="#F9DAB5"/>
<path d="M743.668 96.6719C741.961 99.9106 739.222 102.491 735.884 104.008C722.154 111.99 707.775 118.787 694.261 127.201C673.229 140.2 654.611 156.734 639.231 176.069C659.881 168.95 676.638 153.2 697.072 145.54C690.519 152.898 683.278 159.617 675.449 165.605C679.096 166.107 682.81 165.7 686.261 164.419C701.162 160.328 715.642 154.838 729.506 148.021C725.138 155.571 718.307 161.397 710.153 164.527C703.156 166.735 695.87 167.899 688.531 167.979L667.989 169.381C664.036 169.545 660.099 169.978 656.205 170.676C650.781 171.969 645.574 174.041 640.745 176.825C619.129 188.08 601.364 205.506 589.716 226.88C601.018 217.89 613.881 211.052 627.663 206.707C634.456 204.382 641.566 203.109 648.745 202.931C663.881 202.931 678.801 209.404 693.937 207.677C683.125 209.727 672.314 211.345 661.503 212.316C650.23 212.955 639.024 214.47 627.988 216.847C616.89 219.246 606.918 225.285 599.662 234C620.396 221.795 643.923 215.109 667.989 214.582C650.509 216.962 633.553 222.249 617.825 230.224C616.96 230.763 615.879 232.058 616.636 232.813C616.636 235.726 620.96 237.452 623.879 237.236C630.799 236.696 637.61 234.97 644.529 234.755C656.96 234.782 669.025 238.959 678.801 246.621C688.729 254.418 696.782 264.333 702.369 275.64C696.12 263.299 686.817 252.754 675.341 245.003C673.758 243.82 672.01 242.875 670.152 242.198C667.678 241.579 665.134 241.289 662.584 241.335C655.03 240.612 647.568 239.13 640.313 236.912L671.017 262.155C679.015 267.706 685.544 275.109 690.044 283.731C677.018 269.134 662.364 256.068 646.367 244.787C649.498 249.474 653.123 253.814 657.178 257.733C659.42 261.654 661.301 265.77 662.8 270.031C668.713 282.378 678.665 292.347 691.017 298.294C678.088 291.18 666.987 281.174 658.584 269.06C654.513 261.061 648.76 254.033 641.718 248.455C634.98 245.213 627.575 243.588 620.095 243.708C613.228 243.061 606.314 243.061 599.446 243.708C593.552 244.961 587.508 245.361 581.499 244.895C575.661 243.816 569.823 238.854 570.688 232.921C569.701 229.411 569.228 225.778 569.282 222.133C566.039 223.751 566.688 228.929 563.877 231.303C562.598 232.071 561.076 232.33 559.614 232.031C558.152 231.731 556.856 230.893 555.985 229.684C554.321 227.125 553.525 224.099 553.714 221.054C553.395 213.27 554.456 205.492 556.849 198.076C558.907 193.054 560.499 187.854 561.606 182.542C562.146 174.442 560.699 166.333 557.39 158.917C559.673 159.716 561.75 161.011 563.471 162.708C565.191 164.406 566.511 166.464 567.336 168.734C571.471 177.101 574.141 186.113 575.229 195.379C575.893 184.282 575.385 173.145 573.715 162.153C577.067 172.186 581.607 181.679 584.526 191.712C588.215 201.598 589.149 212.298 587.229 222.672C587.229 211.885 591.77 201.097 593.283 190.309C594.505 184.904 594.375 179.282 592.904 173.939C591.433 168.596 588.668 163.696 584.851 159.672C590.58 164.337 594.99 170.413 597.644 177.3C600.299 184.187 601.106 191.646 599.986 198.939C607.814 193.995 614.016 186.869 617.825 178.443C622.15 170.568 625.285 162.045 629.285 153.955C638.691 135.076 652.962 118.787 661.719 99.4767C667.557 86.0999 670.908 70.7813 681.828 60.8566L668.638 91.6016C666.076 98.0107 662.889 104.153 659.124 109.941C656.205 114.04 652.746 117.708 649.826 121.807C646.289 127.014 643.179 132.497 640.529 138.205C635.688 146.712 632.463 156.038 631.015 165.713L661.07 122.562C667.233 113.824 673.395 105.086 680.206 96.7797C689.221 87.3779 697.095 76.95 703.667 65.7111C689.252 87.2866 674.837 108.862 660.422 130.437C653.064 139.913 647.529 150.666 644.097 162.153C671.793 132.969 705.869 110.56 743.668 96.6719Z" fill="#F9DAB5"/>
<path d="M592.31 248.455C587.147 248.395 581.995 248.938 576.958 250.073C571.718 252.206 567.025 255.487 563.228 259.674C557.594 264.681 552.487 270.247 547.984 276.287C540.524 287.075 536.416 301.207 525.28 308.651C524.928 307.305 524.912 305.893 525.232 304.539C525.552 303.185 526.2 301.93 527.118 300.883L552.741 260.322C556.483 254.971 559.534 249.172 561.823 243.061C562.833 239.523 563.592 235.918 564.093 232.273C564.348 222.263 567.544 212.548 573.283 204.333C577.129 209.743 580.119 215.709 582.148 222.025C584.164 228.405 583.818 235.295 581.175 241.443C589.129 240.523 597.175 240.741 605.068 242.09C604.743 246.405 596.527 248.455 592.31 248.455Z" fill="#64735C" fill-opacity="0.55"/>
<path d="M569.066 129.143C567.282 125.68 565.799 122.071 564.633 118.355C562.039 112.396 560.678 105.974 560.633 99.4767C561.282 88.0417 569.823 78.6564 574.039 67.9765C575.816 62.775 577.154 57.4345 578.04 52.0107C580.703 63.5418 579.836 75.6049 575.553 86.6393C572.727 92.7667 572.265 99.719 574.256 106.165C576.31 110.264 580.418 113.069 582.796 116.953C584.174 119.492 585.01 122.289 585.252 125.167C585.494 128.044 585.136 130.941 584.202 133.674C583.445 136.155 580.85 145.54 576.742 143.922C575.553 143.922 574.796 138.852 574.256 137.773C572.85 134.429 570.688 131.948 569.066 129.143Z" fill="white" fill-opacity="0.55"/>
</svg>
