<svg width="33" height="33" viewBox="0 0 33 33" fill="none" xmlns="http://www.w3.org/2000/svg">
<path fill-rule="evenodd" clip-rule="evenodd" d="M16.8433 2.75C23.0981 2.75 28.187 7.87737 28.187 14.1804C28.187 21.9285 19.31 29.5625 16.8433 29.5625C14.3765 29.5625 5.49951 21.9285 5.49951 14.1804C5.49951 7.87737 10.5884 2.75 16.8433 2.75ZM16.8433 4.8125C11.7255 4.8125 7.56201 9.01587 7.56201 14.1804C7.56201 20.7515 15.295 27.1535 16.8433 27.4945C18.3915 27.1521 26.1245 20.7501 26.1245 14.1804C26.1245 9.01587 21.961 4.8125 16.8433 4.8125ZM16.8446 9.625C19.3086 9.625 21.3134 11.6298 21.3134 14.0951C21.3134 16.5591 19.3086 18.5625 16.8446 18.5625C14.3806 18.5625 12.3759 16.5591 12.3759 14.0951C12.3759 11.6298 14.3806 9.625 16.8446 9.625ZM16.8446 11.6875C15.5178 11.6875 14.4384 12.7669 14.4384 14.0951C14.4384 15.422 15.5178 16.5 16.8446 16.5C18.1715 16.5 19.2509 15.422 19.2509 14.0951C19.2509 12.7669 18.1715 11.6875 16.8446 11.6875Z" fill="#787878"/>
</svg>
