<svg width="452" height="318" viewBox="0 0 452 318" fill="none" xmlns="http://www.w3.org/2000/svg">
<g opacity="0.2">
<path d="M179.92 244.055C287.273 276.481 400.243 226.801 451.178 131.315L447.751 130.28C397.423 223.918 286.429 272.558 180.935 240.694C110.205 219.33 57.4546 166.472 33.36 102.053C14.1858 58.5561 16.4306 1.04263e-05 16.4306 1.04263e-05C5.98844 107.717 72.5544 211.625 179.92 244.055Z" fill="#C3937C"/>
<path d="M441.378 138.018C432.59 156.72 408.935 171.118 388.806 173.775C376.303 175.421 363.59 172.734 351.453 169.904C339.603 167.109 327.925 163.63 316.478 159.485C314.704 158.845 313.866 161.645 315.633 162.282C328.867 167.081 342.411 170.978 356.172 173.947C367.755 176.423 379.776 178.314 391.575 176.304C411.687 172.812 434.987 158.446 443.841 139.598C444.631 137.916 442.171 136.331 441.371 138.043L441.378 138.018Z" fill="#C3937C"/>
<path d="M442.209 136.066C418.654 127.701 392.909 123.571 368.101 128.331C347.265 132.322 328.853 143.413 314.707 159.088C313.458 160.479 315.437 162.631 316.702 161.231C330.541 145.864 348.383 135.084 368.787 131.177C393.09 126.513 418.294 130.673 441.364 138.863C443.139 139.496 443.98 136.69 442.209 136.066Z" fill="#C3937C"/>
<path d="M440.309 138.337C413.374 163.687 374.628 172.58 338.669 166.768C337.386 166.56 336.76 168.519 338.076 168.73C374.76 174.657 414.194 165.723 441.705 139.836C441.904 139.651 442.021 139.394 442.03 139.123C442.04 138.851 441.941 138.586 441.756 138.388C441.571 138.189 441.314 138.072 441.043 138.062C440.772 138.053 440.507 138.152 440.309 138.337Z" fill="#C3937C"/>
<path d="M439.945 136.528L381.633 152.656C372.208 155.259 362.78 157.964 353.348 160.454C342.849 163.23 331.621 165.316 321.494 160.102C320.298 159.492 319.233 161.235 320.402 161.844C337.45 170.62 358.557 161.164 375.503 156.482L440.425 138.524C441.69 138.174 441.222 136.182 439.943 136.534L439.945 136.528Z" fill="#C3937C"/>
<path d="M438.2 137.141C415.536 126.351 387.188 129.766 364.225 137.942C355.643 141 347.386 145.102 339.04 148.749C331.189 152.172 322.712 155.2 315.399 159.718C314.286 160.411 315.244 162.22 316.372 161.525C322.897 157.487 330.433 154.721 337.432 151.675C345.016 148.358 352.53 144.749 360.2 141.651C383.516 132.234 413.637 127.705 437.11 138.877C438.285 139.439 439.388 137.707 438.202 137.135L438.2 137.141Z" fill="#C3937C"/>
<path d="M438.063 135.242C417.741 133.489 396.28 135.848 377.094 142.921C357.908 149.993 338.622 161.691 317.344 159.836C316.001 159.714 315.98 161.773 317.289 161.892C336.939 163.586 355.08 153.898 372.773 146.789C393.488 138.585 415.828 135.335 438.014 137.299C439.326 137.412 439.373 135.361 438.069 135.244L438.063 135.242Z" fill="#C3937C"/>
<path d="M438.926 154.545C441.503 178.27 441.353 202.215 438.477 225.91C436.944 238.453 434.446 251.042 426.167 261.023C418.864 269.827 408.912 275.841 399.227 281.681C397.622 282.653 398.995 285.237 400.608 284.26C410.278 278.423 420.206 272.394 427.679 263.759C435.409 254.821 438.742 243.879 440.515 232.41C444.533 206.5 444.529 179.9 441.728 153.879C441.525 152.015 438.68 152.709 438.878 154.565L438.926 154.545Z" fill="#C3937C"/>
<path d="M400.553 282.931C403.048 258.819 403.376 234.295 408.049 210.462C412.027 190.189 421.517 167.086 441.434 157.865C443.151 157.071 441.758 154.509 440.054 155.286C420.93 164.139 410.699 185.63 406.203 205.152C400.353 230.529 400.306 257.024 397.635 282.837C397.443 284.706 400.369 284.775 400.561 282.906L400.553 282.931Z" fill="#C3937C"/>
<path d="M438.115 158.872C435.372 198.014 423.722 234.141 400.284 265.845C399.501 266.907 401.236 267.99 402.024 266.937C425.667 234.964 437.41 198.395 440.168 158.926C440.261 157.614 438.214 157.562 438.115 158.872Z" fill="#C3937C"/>
<path d="M439.375 156.849C437.171 183.563 435.972 210.628 429.68 236.804C427.667 245.447 423.916 253.59 418.656 260.736C413.571 267.841 407.708 275.671 400.313 280.551C399.22 281.271 400.182 283.088 401.279 282.356C407.968 277.939 413.291 271.258 418.099 264.933C423.585 257.715 428.265 250.35 430.594 241.543C437.888 213.97 439.083 185.204 441.42 156.908C441.537 155.561 439.478 155.547 439.365 156.86L439.375 156.849Z" fill="#C3937C"/>
<path d="M437.116 160.214C421.768 191.108 406.811 223.266 400.564 257.427C400.321 258.734 402.281 259.327 402.524 258.019C408.738 224.035 423.579 192.035 438.85 161.305C439.441 160.102 437.706 159.039 437.11 160.213L437.116 160.214Z" fill="#C3937C"/>
<path d="M382.271 211.33C376.884 242.165 361.868 282.373 329.779 294.244C328.033 294.884 328.72 297.751 330.459 297.088C363.651 284.811 379.467 244.258 385.085 212.18C385.404 210.349 382.61 209.478 382.284 211.334L382.271 211.33Z" fill="#C3937C"/>
<path d="M331.89 294.861C334.139 278.243 339.91 262.295 348.816 248.087C357.722 233.879 369.559 221.738 383.532 212.478C385.094 211.443 383.721 208.86 382.152 209.899C367.74 219.425 355.536 231.932 346.361 246.577C337.186 261.221 331.254 277.663 328.965 294.793C328.718 296.659 331.646 296.721 331.89 294.861Z" fill="#C3937C"/>
<path d="M378.961 214.889C369.823 244.412 358.218 274.675 330.738 291.778C329.623 292.477 330.581 294.286 331.704 293.582C359.667 276.183 371.612 245.546 380.921 215.481C381 215.22 380.972 214.94 380.843 214.7C380.715 214.461 380.497 214.282 380.237 214.204C379.977 214.125 379.697 214.153 379.457 214.282C379.218 214.41 379.039 214.628 378.961 214.889Z" fill="#C3937C"/>
<path d="M377.242 215.986C364.979 236.094 350.919 255.048 335.235 272.616C334.36 273.595 335.748 275.098 336.625 274.113C352.434 256.426 366.606 237.338 378.966 217.086C379.657 215.962 377.925 214.866 377.228 215.988L377.242 215.986Z" fill="#C3937C"/>
<path d="M377.24 216.199C373.094 228.83 366.795 240.796 360.053 252.222C353.223 263.8 345.545 277.408 332.968 283.41C331.775 283.982 332.749 285.782 333.934 285.215C346.355 279.297 354.052 266.24 360.889 254.843C368.092 242.832 374.811 230.157 379.186 216.815C379.6 215.558 377.672 214.976 377.232 216.224L377.24 216.199Z" fill="#C3937C"/>
<path d="M389.662 198.077C373.11 210.658 353.042 217.74 332.271 218.33C321.649 218.616 311.38 216.93 301.156 214.139C290.746 211.299 280.51 208.179 269.595 208.75C267.728 208.877 267.636 211.785 269.524 211.678C282.739 210.966 294.887 215.886 307.551 218.778C317.396 221.027 327.527 221.758 337.594 220.946C357.224 219.354 375.987 212.155 391.655 200.205C393.152 199.062 391.153 196.932 389.668 198.058L389.662 198.077Z" fill="#C3937C"/>
<path d="M389.185 197.601C368.708 190.214 347.063 182.516 324.938 184.812C304.656 186.926 285.415 195.529 269.593 208.252C268.12 209.431 270.123 211.569 271.582 210.394C287.328 197.737 306.971 189.014 327.257 187.53C348.339 185.989 368.832 193.367 388.34 200.399C390.113 201.038 390.952 198.238 389.185 197.601Z" fill="#C3937C"/>
<path d="M386.718 197.588C351.179 204.273 312.893 211.282 276.953 204.08C275.652 203.818 275.059 205.78 276.36 206.042C312.691 213.32 351.294 206.338 387.194 199.576C388.489 199.332 388.013 197.344 386.718 197.588Z" fill="#C3937C"/>
<path d="M388.557 199.29C375.96 207.075 358.824 208.64 344.356 210.349C329.149 212.151 313.841 212.942 298.537 213.397C297.228 213.436 297.169 215.484 298.489 215.454C313.967 214.991 329.45 214.169 344.83 212.343C359.499 210.606 376.702 209.026 389.528 201.103C390.639 200.416 389.681 198.608 388.555 199.297L388.557 199.29Z" fill="#C3937C"/>
<path d="M383.503 196.811C349.954 192.293 316.059 201.85 282.36 199.656C281.048 199.57 280.994 201.619 282.305 201.711C316.01 203.907 349.905 194.35 383.448 198.866C384.772 199.052 384.794 196.993 383.503 196.811Z" fill="#C3937C"/>
<path d="M362.841 190.473C341.906 191.892 320.882 191.344 299.918 191.214C298.603 191.204 298.544 193.251 299.863 193.269C320.837 193.388 341.851 193.948 362.786 192.528C364.09 192.439 364.124 190.384 362.841 190.473Z" fill="#C3937C"/>
<path d="M323.307 241.385C320.439 258.304 313.526 274.886 304.098 289.195C294.614 303.597 277.625 309.427 261.845 314.11C260.048 314.644 260.72 317.493 262.531 316.955C277.795 312.428 294.469 306.841 304.525 293.675C315.558 279.236 323.089 260.037 326.108 242.231C326.413 240.396 323.618 239.531 323.307 241.385Z" fill="#C3937C"/>
<path d="M323.728 240.034C314.647 244.972 304.372 247.235 295.528 252.645C289.489 256.377 284.13 261.111 279.68 266.645C268.419 280.511 263.051 298.008 260.409 315.389C260.125 317.244 263.053 317.306 263.333 315.464C265.954 298.242 271.444 280.685 282.95 267.239C287.631 261.716 293.289 257.103 299.639 253.631C307.817 249.194 316.945 247.026 325.117 242.588C326.764 241.704 325.395 239.108 323.736 240.009L323.728 240.034Z" fill="#C3937C"/>
<path d="M259.74 251.38C246.387 265.457 232.066 280.547 213.138 286.744C192.967 293.354 171.615 287.927 152.192 281.417C150.407 280.816 149.56 283.62 151.345 284.221C171.226 290.883 193.186 296.328 213.815 289.594C233.291 283.231 247.991 268.007 261.727 253.528C263.022 252.165 261.037 250.011 259.74 251.38Z" fill="#C3937C"/>
<path d="M260.243 250.655C221.813 248.862 182.52 258.84 150.993 281.276C149.479 282.359 150.843 284.947 152.371 283.861C183.531 261.681 222.186 251.807 260.189 253.574C262.066 253.665 262.15 250.713 260.259 250.646L260.243 250.655Z" fill="#C3937C"/>
<path d="M298.802 244.136C276.481 248.363 248.692 243.277 231.028 228.431C224.548 223.02 219.678 216.024 214.056 209.76C206.747 201.745 198.1 195.064 188.501 190.016C186.848 189.137 185.262 191.601 186.938 192.494C197.475 198.109 206.849 205.675 214.565 214.79C220.443 221.67 225.921 228.774 233.462 233.939C251.92 246.594 277.643 251.117 299.49 246.976C301.336 246.622 300.656 243.778 298.806 244.124L298.802 244.136Z" fill="#C3937C"/>
<path d="M302.053 243.813C299.805 238.12 293.857 233.553 289.327 229.774C280.218 222.282 270.448 215.632 260.138 209.907C238.723 197.816 213.303 186.899 188.18 189.022C186.333 189.154 186.227 192.106 188.11 191.95C212.717 189.864 237.602 200.544 258.576 212.384C268.056 217.662 277.09 223.706 285.588 230.455C290.397 234.318 297.113 239.199 299.473 245.182C300.166 246.931 302.735 245.532 302.051 243.799L302.053 243.813Z" fill="#C3937C"/>
<path d="M185.661 243.323C146.645 267.848 99.9677 251.283 64.2608 229.033C62.6571 228.037 61.1011 230.516 62.6984 231.51C99.2836 254.302 147.165 270.968 187.042 245.902C188.633 244.905 187.261 242.321 185.661 243.323Z" fill="#C3937C"/>
<path d="M186.544 243.459C163.483 233.917 139.413 226.867 115.259 220.691C97.5186 216.147 77.0224 215.496 62.4593 228.599C61.057 229.861 63.0461 232.002 64.4484 230.74C80.6483 216.169 102.687 220.257 121.62 225.423C143.332 231.346 164.85 237.638 185.704 246.264C187.446 246.984 188.28 244.176 186.551 243.46L186.544 243.459Z" fill="#C3937C"/>
<path d="M210.185 246.151C208.139 209.382 171.697 192.034 141.485 181.196C139.712 180.557 138.871 183.363 140.64 183.994C169.406 194.319 205.276 210.797 207.246 246.079C207.372 247.947 210.271 248.035 210.166 246.145L210.185 246.151Z" fill="#C3937C"/>
<path d="M208.896 245.278C189.534 237.42 170.032 226.923 157.841 209.351C151.743 200.553 148.38 189.916 141.332 181.771C140.092 180.347 137.958 182.341 139.192 183.763C146.772 192.476 150.232 204.137 157.16 213.365C169.77 230.166 188.964 240.315 208.032 248.07C209.771 248.775 210.604 245.974 208.877 245.272L208.896 245.278Z" fill="#C3937C"/>
<path d="M105.37 202.032C93.9616 202.454 82.2047 202.908 71.0983 199.816C63.5494 197.716 58.2185 194.075 52.4019 189.141C42.3316 180.608 32.973 171.226 22.5374 163.081C21.0467 161.94 19.5071 164.41 20.9751 165.558C32.2677 174.384 42.3074 184.731 53.4244 193.773C68.1579 205.759 87.1587 205.627 105.3 204.96C107.169 204.896 107.26 201.967 105.37 202.032Z" fill="#C3937C"/>
<path d="M105.651 201.032C82.5 180.063 53.496 166.678 22.5235 162.669C20.6632 162.432 20.5992 165.362 22.4532 165.597C52.6498 169.535 80.9251 182.591 103.511 203.024C104.898 204.279 107.049 202.297 105.651 201.032Z" fill="#C3937C"/>
<path d="M125.56 214.16C125.942 191.973 130.026 157.981 105.361 146.255C103.677 145.457 102.098 147.922 103.799 148.733C127.373 159.935 123.002 192.818 122.635 214.091C122.606 215.968 125.528 216.05 125.56 214.16Z" fill="#C3937C"/>
<path d="M124.568 213.218C108.915 196.237 101.245 171.169 105.856 148.387C106.229 146.559 103.433 145.694 103.055 147.541C98.241 171.359 106.027 197.416 122.428 215.21C123.706 216.598 125.847 214.606 124.568 213.218Z" fill="#C3937C"/>
<path d="M75.9273 170.808C81.8112 151.154 81.6077 130.181 75.3435 110.652C74.7709 108.87 71.9203 109.535 72.4935 111.338C78.6343 130.36 78.8528 150.804 73.1198 169.96C72.575 171.764 75.3824 172.612 75.9209 170.806L75.9273 170.808Z" fill="#C3937C"/>
<path d="M74.1724 168.531C60.1204 151.798 60.294 128.243 74.1697 111.43C75.3681 109.975 72.8798 108.436 71.6954 109.868C64.588 118.392 60.7208 129.156 60.7778 140.255C60.8347 151.354 64.8122 162.073 72.0067 170.515C73.226 171.961 75.3621 169.961 74.1535 168.525L74.1724 168.531Z" fill="#C3937C"/>
<path d="M50.8681 144.121C31.8155 141.888 13.7017 130.677 3.55398 114.337C2.5666 112.74 -0.0154136 114.116 0.976386 115.721C11.713 133.012 30.6327 144.708 50.7981 147.049C52.6641 147.267 52.7279 144.337 50.8681 144.121Z" fill="#C3937C"/>
<path d="M51.862 143.185C46.2288 135.097 38.9586 128.286 30.5234 123.194C22.0882 118.102 12.6765 114.843 2.89909 113.628C1.03878 113.391 0.974834 116.321 2.82884 116.556C12.0967 117.727 21.0167 120.824 29.0167 125.648C37.0167 130.471 43.9203 136.916 49.2845 144.568C50.3556 146.093 52.9438 144.72 51.862 143.185Z" fill="#C3937C"/>
<path d="M39.6253 114.092C45.7624 98.9818 47.8398 81.5959 40.6525 66.4882C39.8418 64.786 37.2999 66.1663 38.075 67.8716C44.9292 82.2777 42.6566 98.8933 36.8243 113.246C36.1188 114.987 38.9218 115.827 39.6253 114.092Z" fill="#C3937C"/>
<path d="M39.1337 112.955C32.2229 99.2849 31.8388 81.9843 40.1306 68.81C41.1369 67.2146 38.6606 65.6585 37.6625 67.2496C28.8 81.3082 29.1867 99.7423 36.5497 114.337C37.4186 116.029 39.9709 114.638 39.1273 112.953L39.1337 112.955Z" fill="#C3937C"/>
<path d="M322.177 243.295C303.625 267.28 283.818 290.267 262.841 312.159C261.934 313.107 263.322 314.611 264.231 313.656C285.319 291.63 305.23 268.504 323.88 244.376C324.684 243.334 322.948 242.251 322.14 243.284L322.177 243.295Z" fill="#C3937C"/>
<path d="M323.054 242.814C315.669 255.454 308.534 268.294 300.683 280.649C293.373 292.151 283.797 307.769 269.785 311.487C268.519 311.795 268.984 313.821 270.26 313.481C283.064 310.083 291.907 297.392 298.96 286.994C308.353 273.164 316.348 258.325 324.782 243.903C325.45 242.764 323.718 241.668 323.042 242.811L323.054 242.814Z" fill="#C3937C"/>
<path d="M320.069 248.447C315.294 269.535 300.963 286.459 288.868 303.775C288.112 304.859 289.846 305.949 290.606 304.873C302.82 287.393 317.224 270.318 322.036 249.041C322.33 247.748 320.37 247.156 320.082 248.451L320.069 248.447Z" fill="#C3937C"/>
<path d="M320.421 243.124C298.506 261.175 279.015 281.986 262.432 305.039C261.661 306.104 263.401 307.196 264.172 306.13C280.659 283.237 300.035 262.572 321.816 244.651C322.835 243.812 321.439 242.313 320.42 243.151L320.421 243.124Z" fill="#C3937C"/>
<path d="M314.773 246.018C298.085 254.992 283.26 267.069 271.092 281.601C270.259 282.6 271.645 284.11 272.488 283.101C284.534 268.693 299.217 256.718 315.747 247.818C315.866 247.754 315.971 247.668 316.056 247.563C316.141 247.459 316.204 247.338 316.243 247.209C316.282 247.08 316.295 246.945 316.281 246.811C316.267 246.677 316.228 246.547 316.164 246.428C316.1 246.309 316.013 246.205 315.909 246.119C315.805 246.034 315.684 245.971 315.555 245.932C315.427 245.893 315.291 245.881 315.157 245.894C315.023 245.908 314.893 245.948 314.775 246.012L314.773 246.018Z" fill="#C3937C"/>
<path d="M256.466 251.144C240.381 257.862 224.322 264.657 208.191 271.277C192.817 277.588 175.025 286.304 157.981 283.636C156.664 283.424 156.643 285.483 157.932 285.693C174.099 288.228 190.507 280.641 205.157 274.719C222.662 267.664 240.019 260.225 257.434 252.963C258.651 252.453 257.67 250.652 256.464 251.151L256.466 251.144Z" fill="#C3937C"/>
<path d="M248.625 254.053C236.47 259.339 224.879 265.839 214.027 273.454C202.817 281.348 190.826 290.393 176.26 288.404C174.936 288.218 174.915 290.277 176.211 290.461C189.168 292.227 200.724 285.398 210.881 278.202C223.175 269.483 235.816 261.898 249.589 255.864C250.797 255.337 249.824 253.531 248.623 254.059L248.625 254.053Z" fill="#C3937C"/>
<path d="M254.5 252.374L226.313 274.672C217.792 281.409 209.266 288.552 198.167 290.186C196.862 290.372 197.342 292.368 198.643 292.174C208.549 290.718 216.537 284.946 224.235 278.9C234.81 270.594 245.331 262.217 255.882 253.876C256.916 253.055 255.518 251.563 254.487 252.37L254.5 252.374Z" fill="#C3937C"/>
<path d="M249.226 252.383C216.272 259.006 184.701 270.668 153.272 282.386C152.052 282.839 152.531 284.842 153.755 284.376C185.182 272.664 216.742 261.013 249.706 254.379C250.998 254.121 250.518 252.124 249.226 252.383Z" fill="#C3937C"/>
<path d="M299.568 242.627C282.702 238.728 267.241 230.453 253.282 220.358C240.591 211.158 229.2 200.376 215.57 192.481C214.431 191.819 213.334 193.553 214.478 194.223C228.658 202.443 240.434 213.805 253.76 223.231C267.469 232.897 282.552 240.824 298.966 244.621C300.255 244.921 300.848 242.959 299.558 242.659L299.568 242.627Z" fill="#C3937C"/>
<path d="M298.943 243.737C277.58 239.467 257.89 229.134 239.625 217.532C223.95 207.589 208.764 195.916 190.577 190.975C189.301 190.631 188.709 192.593 189.985 192.937C209.279 198.185 225.07 211.077 241.849 221.339C259.383 232.071 278.053 241.627 298.354 245.687C299.655 245.948 300.248 243.986 298.947 243.724L298.943 243.737Z" fill="#C3937C"/>
<path d="M295.337 244.458C266.985 239.182 241.594 225.931 216.291 212.639C215.129 212.032 214.026 213.764 215.193 214.379C240.644 227.751 266.208 241.116 294.743 246.426C296.048 246.675 296.64 244.713 295.336 244.464L295.337 244.458Z" fill="#C3937C"/>
<path d="M286.554 246.308C265.329 240.325 244.452 233.418 225.018 222.831C223.87 222.201 222.767 223.933 223.926 224.573C243.515 235.242 264.557 242.24 285.959 248.276C287.224 248.658 287.822 246.677 286.552 246.314L286.554 246.308Z" fill="#C3937C"/>
<path d="M299.283 241.471C279.526 231.152 261.031 219.922 244.891 204.369C243.946 203.455 242.443 204.845 243.388 205.759C259.646 221.424 278.281 232.806 298.186 243.205C299.348 243.811 300.449 242.085 299.285 241.464L299.283 241.471Z" fill="#C3937C"/>
<path d="M207.541 243.481C191.314 222.833 171.388 205.389 148.781 192.04C147.644 191.372 146.556 193.102 147.689 193.782C170.141 207.042 189.929 224.369 206.043 244.879C206.86 245.92 208.354 244.514 207.54 243.487L207.541 243.481Z" fill="#C3937C"/>
<path d="M207.824 243.414C192.49 230.733 175.943 219.595 158.425 210.162C157.27 209.53 156.174 211.264 157.326 211.903C174.695 221.245 191.106 232.27 206.323 244.819C207.321 245.652 208.83 244.264 207.82 243.427L207.824 243.414Z" fill="#C3937C"/>
<path d="M205.616 243.825C193.948 233.476 179.634 225.948 165.722 219.101C164.551 218.526 163.45 220.252 164.624 220.841C178.356 227.6 192.601 235.011 204.123 245.204C205.102 246.073 206.605 244.683 205.622 243.806L205.616 243.825Z" fill="#C3937C"/>
<path d="M209.288 243.159C196.122 222.785 179.773 204.316 160.355 189.7C159.305 188.906 158.219 190.65 159.263 191.442C178.37 205.854 194.491 224.095 207.475 244.158C208.185 245.257 209.993 244.297 209.278 243.19L209.288 243.159Z" fill="#C3937C"/>
<path d="M182.614 242.603C162.526 242.634 142.37 244.192 122.309 242.512C102.761 240.869 83.8512 235.24 65.2935 229.13C64.0289 228.748 63.4553 230.647 64.7027 231.086C82.7439 237.033 101.145 242.543 120.119 244.371C140.904 246.374 161.761 244.689 182.559 244.659C183.878 244.656 183.937 242.609 182.614 242.603Z" fill="#C3937C"/>
<path d="M180.054 243.108C164.72 243.504 149.726 247.07 134.425 247.974C118.409 248.95 102.361 246.703 87.2314 241.365C85.9859 240.92 85.3932 242.882 86.6387 243.327C101.282 248.487 116.778 250.795 132.291 250.127C148.3 249.437 163.96 245.588 179.977 245.191C181.284 245.157 181.352 243.106 180.032 243.135L180.054 243.108Z" fill="#C3937C"/>
<path d="M183.744 243.068C172.827 246.479 161.697 249.163 150.427 251.101C138.414 253.226 126.286 254.681 114.246 251.915C112.955 251.621 112.362 253.584 113.653 253.877C124.759 256.423 135.919 255.546 147.069 253.741C159.649 251.756 172.068 248.854 184.226 245.058C185.471 244.661 185.005 242.662 183.746 243.062L183.744 243.068Z" fill="#C3937C"/>
<path d="M142.588 243.381C117.004 240.043 91.7971 234.279 67.3061 226.167C66.0415 225.785 65.4679 227.684 66.7134 228.13C91.3877 236.276 116.78 242.061 142.548 245.406C143.874 245.586 143.896 243.527 142.597 243.349L142.588 243.381Z" fill="#C3937C"/>
<path d="M162.575 242.863C145.99 237.943 129.213 233.705 112.355 229.849C98.4015 226.657 84.0751 222.689 69.6475 224.63C68.3463 224.803 68.8286 226.793 70.1299 226.62C85.5068 224.551 101.147 229.33 115.994 232.786C131.426 236.383 146.784 240.317 161.982 244.825C162.242 244.904 162.522 244.876 162.762 244.747C163.001 244.619 163.18 244.4 163.259 244.14C163.337 243.88 163.309 243.599 163.181 243.36C163.053 243.12 162.835 242.942 162.575 242.863Z" fill="#C3937C"/>
<path d="M174.501 241.914C143.148 232.982 111.985 221.228 79.0357 220.276C78.9008 220.272 78.7665 220.295 78.6405 220.343C78.5145 220.392 78.3994 220.465 78.3014 220.557C78.2035 220.65 78.1249 220.762 78.0699 220.885C78.015 221.008 77.9848 221.141 77.9812 221.276C77.9776 221.411 78.0006 221.546 78.0488 221.672C78.0971 221.798 78.1697 221.913 78.2625 222.011C78.3553 222.109 78.4664 222.187 78.5896 222.242C78.7128 222.297 78.8456 222.327 78.9805 222.331C111.753 223.251 142.73 235.004 173.9 243.88C175.165 244.262 175.763 242.281 174.493 241.918L174.501 241.914Z" fill="#C3937C"/>
<path d="M102.904 200.693C78.1971 192.83 54.3721 183.188 31.5285 170.846C30.3404 170.21 29.2755 171.954 30.4301 172.586C53.4222 185.008 77.4274 194.738 102.31 202.661C103.574 203.043 104.161 201.1 102.902 200.699L102.904 200.693Z" fill="#C3937C"/>
<path d="M100.263 200.689C79.9365 199.246 62.149 191.021 44.1434 182.101C42.94 181.517 41.8707 183.252 43.0513 183.844C61.3749 192.922 79.5235 201.277 100.21 202.738C101.527 202.832 101.572 200.788 100.265 200.683L100.263 200.689Z" fill="#C3937C"/>
<path d="M101.114 199.883C77.3226 184.988 51.8129 172.883 24.7173 165.321C23.4527 164.939 22.8523 166.926 24.1246 167.283C51.0559 174.796 76.3583 186.811 100.004 201.613C100.235 201.758 100.514 201.805 100.78 201.744C101.045 201.683 101.276 201.519 101.421 201.288C101.565 201.057 101.613 200.777 101.552 200.512C101.491 200.246 101.327 200.015 101.096 199.87L101.114 199.883Z" fill="#C3937C"/>
<path d="M94.6467 199.843C81.8353 199.585 68.5672 197.574 56.7439 192.469C55.5214 191.948 54.9287 193.91 56.1513 194.431C68.1035 199.589 81.6462 201.628 94.6043 201.902C94.7393 201.905 94.8735 201.881 94.9994 201.833C95.1253 201.784 95.2404 201.711 95.3382 201.617C95.5355 201.429 95.65 201.17 95.6565 200.897C95.6629 200.624 95.5608 200.36 95.3726 200.163C95.1844 199.965 94.9256 199.851 94.653 199.844L94.6467 199.843Z" fill="#C3937C"/>
<path d="M123.563 210.4C118 202.504 115.512 191.116 112.564 181.985C109.71 173.159 104.426 161.734 105.537 152.345C105.698 151.012 103.641 150.992 103.483 152.291C102.331 162.069 107.612 173.32 110.565 182.459C113.591 191.834 116.028 203.206 121.74 211.39C122.493 212.46 124.308 211.475 123.549 210.424L123.563 210.4Z" fill="#C3937C"/>
<path d="M123.794 210.228C119.825 189.607 122.603 163.916 105.084 148.52C104.102 147.657 102.599 149.047 103.587 149.912C120.796 165.056 117.891 190.39 121.793 210.708C122.044 212 124.037 211.524 123.788 210.226L123.794 210.228Z" fill="#C3937C"/>
<path d="M121.547 207.892C119.839 197.989 117.857 188.128 115.189 178.413C112.615 169.16 108.71 160.867 104.375 152.353C103.773 151.17 101.974 152.146 102.571 153.321C107.101 162.287 111.091 171.007 113.687 180.735C116.11 189.846 117.95 199.104 119.547 208.393C119.776 209.691 121.764 209.208 121.541 207.911L121.547 207.892Z" fill="#C3937C"/>
<path d="M49.5623 143.671C36.9311 132.949 23.975 123.165 9.13522 115.574C7.96913 114.98 6.87264 116.714 8.04313 117.316C22.7314 124.792 35.5447 134.409 48.073 145.038C49.0665 145.883 50.576 144.495 49.5699 143.646L49.5623 143.671Z" fill="#C3937C"/>
<path d="M47.149 142.134C32.2902 134.438 18.0388 125.622 4.51788 115.761C3.45531 114.984 2.36955 116.728 3.42578 117.503C16.9485 127.361 31.1999 136.178 46.0571 143.876C47.2194 144.483 48.3157 142.749 47.149 142.134Z" fill="#C3937C"/>
<path d="M74.1175 167.319C71.8012 149.899 70.9523 132.314 71.58 114.751C71.6309 113.44 69.5835 113.388 69.5244 114.703C68.9002 132.44 69.7686 150.197 72.1203 167.787C72.2927 169.089 74.2811 168.605 74.1086 167.303L74.1175 167.319Z" fill="#C3937C"/>
<path d="M72.4655 164.541C67.6857 151.742 67.0896 138.936 66.9669 125.431C66.9508 124.113 64.9053 124.055 64.9132 125.377C65.0399 139.098 65.6054 152.005 70.4587 165.04C70.9173 166.263 72.9183 165.783 72.4515 164.564L72.4655 164.541Z" fill="#C3937C"/>
<path d="M74.3089 166.32C75.4895 149.071 78.0824 129.727 74.5553 112.576C74.2576 111.277 72.2964 111.762 72.5606 113.058C73.9499 119.88 73.8659 127.148 73.7362 134.133C73.5511 144.866 72.9875 155.595 72.252 166.3C72.1541 167.652 74.2067 167.664 74.3057 166.354L74.3089 166.32Z" fill="#C3937C"/>
<path d="M40.1498 110.071C39.1853 96.4287 39.5659 82.7643 39.7125 69.0982C39.7235 67.7823 37.6762 67.7304 37.6568 69.0507C37.5122 82.7104 37.1297 96.3811 38.0961 110.017C38.1914 111.324 40.2508 111.359 40.1498 110.071Z" fill="#C3937C"/>
<path d="M38.6318 110.78C36.9947 99.7525 37.2126 88.546 35.5692 77.5165C35.3758 76.2149 33.3873 76.6987 33.5806 78.0003C35.2177 89.0279 34.9999 100.234 36.6433 111.264C36.8366 112.565 38.8314 112.084 38.6381 110.782L38.6318 110.78Z" fill="#C3937C"/>
<path d="M43.1967 98.338C41.632 90.4059 41.0797 82.5032 43.2561 74.6581C43.6068 73.3827 41.6466 72.7906 41.2959 74.066C39.0415 82.2606 39.5717 90.5571 41.2103 98.8155C41.4682 100.109 43.4546 99.6315 43.1967 98.338Z" fill="#C3937C"/>
</g>
</svg>
